/* XPM */
static char *xpm_[] = {
/* columns rows colors chars-per-pixel */
"64 64 238 2 ",
"   c #A79F7B",
".  c #A49D78",
"X  c #A39B77",
"o  c #9F9873",
"O  c #A49C77",
"+  c #A09874",
"@  c #A59D79",
"#  c #9F9772",
"$  c #A19975",
"%  c #A69E7A",
"&  c #A29A76",
"*  c #9E9672",
"=  c #A9A07B",
"-  c #B0A67C",
";  c #B6AB7C",
":  c #B7AB7C",
">  c #B1A77C",
",  c #D3C27E",
"<  c #E2CE7F",
"1  c #EBD580",
"2  c #EDD680",
"3  c #ECD580",
"4  c #D2C17E",
"5  c #BBAF7C",
"6  c #B2A87C",
"7  c #D1C07E",
"8  c #FEE480",
"9  c #FEE173",
"0  c #FEDE62",
"q  c #FEDD59",
"w  c #FFDC56",
"e  c #FEDC58",
"r  c #F0D980",
"t  c #D5C37E",
"y  c #A9A17B",
"u  c #C1B37D",
"i  c #E8D27D",
"p  c #F9DC6E",
"a  c #FEDC56",
"s  c #FED531",
"d  c #FFD11A",
"f  c #FFCF11",
"g  c #FFCE0C",
"h  c #FFCE0B",
"j  c #FFD42D",
"k  c #FEDB51",
"l  c #FBDD6C",
"z  c #E7D27E",
"x  c #C4B67D",
"c  c #C5B77D",
"v  c #F3DA7C",
"b  c #FEDB50",
"n  c #FFD221",
"m  c #FFCE08",
"M  c #FFCC00",
"N  c #FFCD05",
"B  c #FFD11B",
"V  c #FEDB53",
"C  c #F1D878",
"Z  c #C8B97D",
"A  c #A8A07B",
"S  c #C1B47D",
"D  c #F9DE79",
"F  c #FED842",
"G  c #FFCD04",
"H  c #FED73B",
"J  c #F7DC77",
"K  c #BEB17D",
"L  c #F0D775",
"P  c #FED52E",
"I  c #FECB00",
"U  c #F9C700",
"Y  c #F3C300",
"T  c #F2C201",
"R  c #FED42D",
"E  c #F4D976",
"W  c #BCB07C",
"Q  c #E7CF6E",
"!  c #FFCC01",
"~  c #F0C001",
"^  c #DAAF01",
"/  c #CFA602",
"(  c #CCA302",
")  c #CBA302",
"_  c #DBAF01",
"`  c #EEBE01",
"'  c #FED325",
"]  c #F2D874",
"[  c #D1C07C",
"{  c #F9D43F",
"}  c #FCCA00",
"|  c #E9BB01",
" . c #D1A802",
".. c #D0A702",
"X. c #D6AC02",
"o. c #D9AE02",
"O. c #DAAF02",
"+. c #D6AB02",
"@. c #D1A702",
"#. c #E8BA01",
"$. c #FDCB00",
"%. c #FED739",
"&. c #CDBD7D",
"*. c #AAA27B",
"=. c #EDD267",
"-. c #FFD015",
";. c #FECC00",
":. c #ECBD01",
">. c #CEA602",
",. c #D4AA02",
"<. c #E0B402",
"1. c #E3B602",
"2. c #EDBD00",
"3. c #EBD16C",
"4. c #B4A97B",
"5. c #B8AD7C",
"6. c #FFD42E",
"7. c #FFCC02",
"8. c #F1C100",
"9. c #D5AB02",
"0. c #E7B902",
"q. c #F2C101",
"w. c #F3C301",
"e. c #E8B902",
"r. c #DBB002",
"t. c #D0A602",
"y. c #F4C300",
"u. c #FFD534",
"i. c #C6B673",
"p. c #AAA17B",
"a. c #D5C272",
"s. c #FFCD07",
"d. c #DDB101",
"f. c #DCB002",
"g. c #F5C401",
"h. c #DCB102",
"j. c #FFCE09",
"k. c #DCC25B",
"l. c #E6C74F",
"z. c #F8C700",
"x. c #E2B502",
"c. c #F1C101",
"v. c #F8C701",
"b. c #F0C100",
"n. c #E7C63E",
"m. c #AFA57B",
"M. c #B7AA74",
"N. c #EDC834",
"B. c #DEB202",
"V. c #DDB102",
"C. c #EDBE01",
"Z. c #EEC62B",
"A. c #B3A775",
"S. c #BAAA68",
"D. c #F3C81F",
"F. c #EFBF01",
"G. c #E1B502",
"H. c #E1B402",
"J. c #F2C71D",
"K. c #B5A76D",
"L. c #BBAA62",
"P. c #F6C814",
"I. c #F7C501",
"U. c #F2C512",
"Y. c #B5A667",
"T. c #B8A764",
"R. c #EFC416",
"E. c #E4B702",
"W. c #EEC417",
"Q. c #B3A56B",
"!. c #E6BF23",
"~. c #FCC900",
"^. c #E6B802",
"/. c #E5B802",
"(. c #F7C500",
"). c #E7C021",
"_. c #AFA370",
"`. c #AAA177",
"'. c #D6B73A",
"]. c #EBBC01",
"[. c #F5C501",
"{. c #DCBA31",
"}. c #A9A078",
"|. c #BEAB5B",
" X c #F6C501",
".X c #F8C601",
"XX c #EABB01",
"oX c #E4B602",
"OX c #FECC01",
"+X c #CBB149",
"@X c #A89F7A",
"#X c #F4C60F",
"$X c #F1C513",
"%X c #B6A766",
"&X c #DAB934",
"*X c #FDCB03",
"=X c #F3C201",
"-X c #F2C100",
";X c #D4B63C",
":X c #ABA175",
">X c #B4A668",
",X c #ECC21B",
"<X c #F7C601",
"1X c #EABC01",
"2X c #E5B702",
"3X c #F6C70C",
"4X c #B1A46D",
"5X c #CAB14A",
"6X c #F7C80C",
"7X c #FBC900",
"8X c #F6C500",
"9X c #F9C909",
"0X c #CBB147",
"qX c #ACA174",
"wX c #D4B63D",
"eX c #FECB01",
"rX c #FDCB02",
"tX c #D9B834",
"yX c #AAA176",
"uX c #ACA274",
"iX c #D3B63D",
"pX c #F9C908",
"aX c #F8C909",
"sX c #D7B738",
"dX c #C8B04D",
"fX c #F7C80B",
"gX c #CDB345",
"hX c #F1C514",
"jX c #B3A56A",
"kX c #B7A765",
"lX c #CCB247",
"zX c #E1BD2A",
"xX c #ECC21A",
"cX c #CFB443",
"vX c #B8A863",
"bX c #ADA273",
"nX c #B5A668",
"mX c #B2A56C",
/* pixels */
"                                                                                                                                ",
"                                                                                                                                ",
"                                                                                                                                ",
"                                                                                                                                ",
"                                                                                  .                                             ",
"                                                  X                   X         X o                                             ",
"                                                O +                   + O     @ # +                                             ",
"                                              @ o X                   $ o @ @ o o $                                             ",
"                                    @       % $ + .                   O + + + + + &                                             ",
"                                  % $ O     X $ $ @                   O $ $ $ $ $ &                                             ",
"                            @     @ & & X . & & &               % . @ @ & & & & & X                                             ",
"                            X O % @ X X X X X X O                 X X X X X X X X O                                             ",
"                            . O O . O O O O O O . % @ @           % . . . . . . . . @ . @                                       ",
"                        %   @ . . . . . . . . . . . . %             @ @ @ @ @ @ @ @ @ @ %                                       ",
"                        % @ @ @ @ @ @ @ @ @ @ @ @ @ @               % % % % % % % % % %                                   X     ",
"                        % @ @ @ @ @ @ @ @ @ @ @ @ @ %                                                                   & X     ",
"                  . .                                                                                                 . o .     ",
"      X .       . * .                                   = - ; : : ; > =                                   % %       @ + + %     ",
"      . # %   % o # .                                 ; , < 1 2 2 3 < 4 5                                 . $ @   % & $ $       ",
"      @ o + @ + o o .                           6 7 2 8 9 0 q w w e 0 9 8 r t -                   % @     . & & . X & & X       ",
"        + + + + + + @                       y u i p a s d f g h h g f d j k l z x y               % X .   O X X X X X X .       ",
"        $ $ $ $ $ $ @                     y c v b n m M M M M M M M M M M N B V C Z =               O O O O O O O O O O @ % . % ",
"  . . @ X X X X X X @                   A S D F G M M M M M M M M M M M M M M N H J c A         %   . . . . . . . . . . . . .   ",
"  % O O O O O O O O %   % %             K L P G M M M M I U Y T T Y U I M M M M N R E W         @ @ @ @ @ @ @ @ @ @ @ @ @ @ %   ",
"    @ . . . . . . . . . .             > Q R ! M M M I ~ ^ / ( ) ) ) / _ ` I M M M ! ' ] -       % @ @ @ @ @ @ @ @ @ @ @ @ @     ",
"    % @ @ @ @ @ @ @ @ @ @             [ { N M M M } |  ...X.o.O.O.o.+...@.#.$.M M M G %.&.*.                                    ",
"      % % % % % % % % % %             =.-.M M M ;.:.>.,.<.1.1.1.1.1.1.<.+.>.2.M M M M G 3.4.                                    ",
"                                    5.6.7.M M M 8.9.O.1.1.1.0.q.w.e.1.1.1.r.t.y.M M M M u.i.                                    ",
"                                  p.a.s.M M M I d.f.1.1.1.1.~ M M g.1.1.1.1.h.d.U M M M j.k.y                                   ",
"                                  6 l.M M M M z.r.x.1.1.1.1.c.M M v.1.1.1.1.1.o.b.M M M M n.m.                                  ",
"                                  M.N.M M M M T B.1.1.1.1.1.c.M M v.1.1.1.1.1.V.C.M M M M Z.A.                                  ",
"                                  S.D.M M M M F.G.1.1.1.1.1.c.M M v.1.1.1.1.1.H.:.M M M M J.K.                                  ",
"                                  L.P.M M M M I.1.1.1.1.1.1.c.M M v.1.1.1.1.1.1.~ M M M M U.Y.                                  ",
"                                  T.R.M M M M U E.1.1.1.1.1.c.M M v.1.1.1.1.1.1.w.M M M M W.Q.                                  ",
"                                  Q.!.M M M M ~.^.1.1.1.1.1.c.M M v.1.1.1.1.1./.(.M M M M )._.                                  ",
"                          % @     `.'.M M M M M ].1.1.1.1.1.~ M M [.1.1.1.1.1.].~.M M M M {.}.                                  ",
"                          $         |.M M M M M g.^.1.1.1.1.#. X.XXX1.1.1.1.oX XM M M M OX+X                                    ",
"                        O +         @X#XM M M M I c.E.1.1.1.1.1.1.1.1.1.1.E.~ M M M M M $X%X                                    ",
"                      @ + &           &X*XM M M M I =XE.1.1.1.1.1.1.1.1.oX-XI M M M M M ;X:X                                    ",
"            X @     % $ $ O           >X,XM M M M M M <X1X2X1.1.1.1.2X].g.M M M M M M 3X4X                                      ",
"            $ $ .   & $ $ @           @X5X6XM M M M M M 7X8XT c.c.T 8X7XM M M M M M 9X0X                                        ",
"    X .     & & & & & & & %             qXwXeXM M M M M M M M M M M M M M M M M M rXtXyX                                        ",
"    . X X . X X X X X X X     @           uXiXpXM M M M M M M M M M M M M M M M aXsXuX                                          ",
"    @ O O O O O O O O O O O O .             }.dXpXM M M M M M M M M M M M M M fXgX`.                                            ",
"% @ % . . . . . . . . . . . . %                 >X'.hXM M M M M M M M M M #X&XjX                                    .           ",
"  @ @ @ @ @ @ @ @ @ @ @ @ @ @                     uXkXlXzXxX$XU.U.U.xXzXcXvXbX                        . .         + &           ",
"                                                        :X4XnXY.Y.nXmX:X                                # @     X # X           ",
"                                                                                                        o + % O o o X           ",
"                                                                                                        & + $ + + + O           ",
"                                                                                                        & $ $ $ $ $ O           ",
"                                                      %                                           @ @ % . & & & & & .           ",
"                                                    X %                                           % O O O O O O O O @           ",
"                                                  . #                                               @ . . . . . . . . @ . %     ",
"                                                % o $                                               % @ @ @ @ @ @ @ @ @ @       ",
"                                      O %       $ + O                                                 % % % % % % % % % %       ",
"                                      $ & @   X $ $ .                                                                           ",
"                              . %     & & & O & & & @                                                                           ",
"                              . X . % X X X X X X X                                                                             ",
"                              @ O O O O O O O O O O @ . .                                                                       ",
"                          % % % . . . . . . . . . . . . %                                                                       ",
"                          % @ @ @ @ @ @ @ @ @ @ @ @ @ @                                                                         ",
"                            % % % % % % % % % % % % % %                                                                         ",
"                                                                                                                                ",
"                                                                                                                                "
};
