/* XPM */
static char *xpm_[] = {
/* columns rows colors chars-per-pixel */
"64 64 83 1 ",
"  c #A79F7B",
". c #9C9A80",
"X c #919584",
"o c #8B9286",
"O c #859088",
"+ c #A49D78",
"@ c #A29D7D",
"# c #7A8B8C",
"$ c #848F87",
"% c #8D9280",
"& c #999980",
"* c #809192",
"= c #879799",
"- c #89999A",
"; c #8E9D9F",
": c #7B8C8D",
"> c #849495",
", c #95A4A6",
"< c #8C9C9D",
"1 c #A49E7C",
"2 c #7D8E8F",
"3 c #8A9A9C",
"4 c #93A2A4",
"5 c #7F8D8A",
"6 c #939682",
"7 c #859597",
"8 c #829294",
"9 c #969E9A",
"0 c #989589",
"q c #9A8C78",
"w c #9C8061",
"e c #9B8367",
"r c #97988F",
"t c #95A1A0",
"y c #7F8F90",
"u c #998F7E",
"i c #9D7D5C",
"p c #9F744B",
"a c #989283",
"s c #8F9FA1",
"d c #969881",
"f c #A2764C",
"g c #A4774D",
"h c #A7794E",
"j c #9D7A56",
"k c #9E7750",
"l c #A1754C",
"z c #A6784D",
"x c #AA7B4F",
"c c #969B94",
"v c #A39B77",
"b c #9E9C7E",
"n c #7D8C8B",
"m c #A1754B",
"M c #A29A76",
"N c #828E88",
"B c #A5784D",
"V c #9B866D",
"C c #9F9873",
"Z c #A0744B",
"A c #A59D79",
"S c #A09874",
"D c #A69E7A",
"F c #9F9772",
"G c #A97A4E",
"H c #9B997F",
"J c #A19975",
"K c #7F8C8A",
"L c #7E8C89",
"P c #91947D",
"I c #93957F",
"U c #818D87",
"Y c #828D87",
"T c #A49C77",
"R c #9B987B",
"E c #9C9A7C",
"W c #8C9282",
"Q c #8C9383",
"! c #9D9A7D",
"~ c #939582",
"^ c #8D9484",
"/ c #A3764C",
"( c #91A0A2",
/* pixels */
"                                                                ",
"                                                                ",
"                                                                ",
"                                                                ",
"                         .XoOOOOOOOOoX.  +                      ",
"                     @XO################$%@                     ",
"                   &O####*=-;;;;;;;;-=*####O&                   ",
"                 &O##:>;,,,,,,,,,,,,,,,,<>###O&                 ",
"               1o##234,,,,,,,,,,,,,,,,,,,,4-2##o1               ",
"              &5#:<,,,,,,,,,,,,,,,,,,,,,,,,,,3:#5&              ",
"             6##7,,,,,,,,,,,,,,,,,,,,,,,,,,,,,48##6             ",
"            o#:;,,,,,,,,,90qwwwwwwweqrt,,,,,,,,,3##o            ",
"           X#y4,,,,,,,tuippppppppppppppea,,,,,,,,s:#X           ",
"          d#:4,,,,,,,qppppfghhhpphhhgfpppju,,,,,,,s##d          ",
"         d##3,,,,,,0kpplzxxxxxxppxxxxxxzlppwc,,,,,,3##d      v  ",
"        bn#3,,,,,teppmhxxxxxxxxppxxxxxxxxhfppa,,,,,,3#nb    Mv  ",
"       1N#>,,,,,tippgxxxxxxxxxxppxxxxxxxxxxBppV,,,,,,>#N1  +C+  ",
"   v+  o#y4,,,,,uppzxxxxxxxxxxxppxxxxxxxxxxxhZpq,,,,,4y#o ASSD  ",
"   +FD.#:s,,,,,apphxxxxxxxxxxxxppxxxxxxxxxxxxGZpa,,,,,s:#HMJJ   ",
"   ACSK#=,,,,,apphxxxxxxxxxxxxxppxxxxxxxxxxxxxhppa,,,,,=#LMMv   ",
"    SP#:4,,,,ckphxxxxxxxxxxxxxxppxxxxxxxxxxxxxxhpkc,,,,4:#Iv+   ",
"    JU#-,,,,,wpgxxxxxxxxxxxxxxxppxxxxxxxxxxxxxxxgpw,,,,,-#YTAD+D",
" ++AR#:4,,,,uplxxxxxxxxxxxxxxxxppxxxxxxxxxxxxxxxxlpu,,,,4:#E+++ ",
" DTTW#7,,,,,kphxxxxxxxxxxxxxxxxppxxxxxxxxxxxxxxxxhpk,,,,,7#QAAD ",
"  A+L#<,,,,aplxxxxxxxxxxxxxxxxxppxxxxxxxxxxxxxxxxxlpa,,,,<#KAA  ",
"  D!#:,,,,,iphxxxxxxxxxxxxxxxxxppxxxxxxxxxxxxxxxxxhpi,,,,,:#b   ",
"   ~#8,,,,9ppxxxxxxxxxxxxxxxxxxppxxxxxxxxxxxxxxxxxxpp9,,,,8#6   ",
"   ^#=,,,,ap/xxxxxxxxxxxxxxxxxxppxxxxxxxxxxxxxxxxxx/pa,,,,=#^   ",
"   O#;,,,,VpBxxxxxxxxxxxxxxxxxxppxxxxxxxxxxxxxxxxxxBpV,,,,;#O   ",
"   5#(,,,,wphxxxxxxxxxxxxxxxxxxppxxxxxxxxxxxxxxxxxxhpw,,,,(#5   ",
"   ##,,,,,ppxxxxxxxxxxxxxxxxxxxppxxxxxxxxxxxxxxxxxxxpp,,,,,##   ",
"   ##,,,,,ppxxxxxxxxxxxxxxxxxxxppxxxxxxxxxxxxxxxxxxxpp,,,,,##   ",
"   ##,,,,,ppxxxxxxxxxxxxxxxxxxxppxxxxxxxxxxxxxxxxxxxpp,,,,,##   ",
"   ##,,,,,ppxxxxxxxxxxxxxxxxxxxppxxxxxxxxxxxxxxxxxxxpp,,,,,##   ",
"   ##,,,,,ppxxxxxxxxxxxxxxxxxxxppxxxxxxxxxxxxxxxxxxxpp,,,,,##   ",
"   ##,,,,,ppxxxxxxxxxxxxxxxxxxxppxxxxxxxxxxxxxxxxxxxpp,,,,,##   ",
"   ##,,,,,ppxxxxxxxxxxxxxxxxxxxppxxxxxxxxxxxxxxxxxxxpp,,,,,##   ",
"   ##,,,,,ppxxxxxxxxxxxxxxxxxxxppxxxxxxxxxxxxxxxxxxxpp,,,,,##   ",
"   ##,,,,,ppxxxxxxxxxxxxxxxxxxxppxxxxxxxxxxxxxxxxxxxpp,,,,,##   ",
"   ##,,,,,ppxxxxxxxxxxxxxxxxxxxppxxxxxxxxxxxxxxxxxxxpp,,,,,##   ",
"   ##,,,,,ppxxxxxxxxxxxxxxxxxxxppxxxxxxxxxxxxxxxxxxxpp,,,,,##   ",
"  v##,,,,,ppxxxxxxxxxxxxxxxxxxxppxxxxxxxxxxxxxxxxxxxpp,,,,,##   ",
"  +##,,,,,ppxxxxxxxxxxxxxxxxxxxppxxxxxxxxxxxxxxxxxxxpp,,,,,##   ",
"  A##,,,,,ppxxxxxxxxxxxxxxxxxxxppxxxxxxxxxxxxxxxxxxxpp,,,,,##   ",
"DAD##,,,,,ppxxxxxxxxxxxxxxxxxxxppxxxxxxxxxxxxxxxxxxxpp,,,,,##   ",
" AA##,,,,,ppxxxxxxxxxxxxxxxxxxxppxxxxxxxxxxxxxxxxxxxpp,,,,,##   ",
"   ##,,,,,ppxxxxxxxxxxxxxxxxxxxppxxxxxxxxxxxxxxxxxxxpp,,,,,##   ",
"   ##,,,,,ppxxxxxxxxxxxxxxxxxxxppxxxxxxxxxxxxxxxxxxxpp,,,,,##   ",
"   ##,,,,,ppxxxxxxxxxxxxxxxxxxxppxxxxxxxxxxxxxxxxxxxpp,,,,,##   ",
"   ##,,,,,ppxxxxxxxxxxxxxxxxxxxppxxxxxxxxxxxxxxxxxxxpp,,,,,##   ",
"   ##,,,,,ppxxxxxxxxxxxxxxxxxxxppxxxxxxxxxxxxxxxxxxxpp,,,,,##   ",
"   ##,,,,,ppxxxxxxxxxxxxxxxxxxxppxxxxxxxxxxxxxxxxxxxpp,,,,,##   ",
"   ##,,,,,ppxxxxxxxxxxxxxxxxxxxppxxxxxxxxxxxxxxxxxxxpp,,,,,##D  ",
"   ##,,,,,ppxxxxxxxxxxxxxxxxxxxppxxxxxxxxxxxxxxxxxxxpp,,,,,##   ",
"   ##,,,,,ppxxxxxxxxxxxxxxxxxxxppxxxxxxxxxxxxxxxxxxxpp,,,,,##   ",
"   ##,,,,,ppxxxxxxxxxxxxxxxxxxxppxxxxxxxxxxxxxxxxxxxpp,,,,,##   ",
"   ##,,,,,ppxxxxxxxxxxxxxxxxxxxppxxxxxxxxxxxxxxxxxxxpp,,,,,##   ",
"   ##,,,,,ppxxxxxxxxxxxxxxxxxxxppxxxxxxxxxxxxxxxxxxxpp,,,,,##   ",
"   ##,,,,,ppxxxxxxxxxxxxxxxxxxxppxxxxxxxxxxxxxxxxxxxpp,,,,,##   ",
"   ##,,,,,ppxxxxxxxxxxxxxxxxxxxppxxxxxxxxxxxxxxxxxxxpp,,,,,##   ",
"   ##,,,,,ppxxxxxxxxxxxxxxxxxxxppxxxxxxxxxxxxxxxxxxxpp,,,,,##   ",
"   ##,,,,,ppxxxxxxxxxxxxxxxxxxxppxxxxxxxxxxxxxxxxxxxpp,,,,,##   ",
"   ##,,,,,pppppppppppppppppppppppppppppppppppppppppppp,,,,,##   ",
"   ##,,,,,pppppppppppppppppppppppppppppppppppppppppppp,,,,,##   "
};
