/* XPM */
static char *xpm_[] = {
/* columns rows colors chars-per-pixel */
"64 64 93 2 ",
"   c #A79F7B",
".  c #9C9A80",
"X  c #919584",
"o  c #8B9286",
"O  c #859088",
"+  c #A49D78",
"@  c #A29D7D",
"#  c #7A8B8C",
"$  c #848F87",
"%  c #8D9280",
"&  c #999980",
"*  c #809192",
"=  c #879799",
"-  c #89999A",
";  c #8E9D9F",
":  c #7B8C8D",
">  c #849495",
",  c #95A4A6",
"<  c #8C9C9D",
"1  c #A49E7C",
"2  c #7D8E8F",
"3  c #8A9A9C",
"4  c #93A2A4",
"5  c #7F8D8A",
"6  c #939682",
"7  c #859597",
"8  c #829294",
"9  c #8C999A",
"0  c #7E888A",
"q  c #717879",
"w  c #5F6263",
"e  c #636868",
"r  c #838E8F",
"t  c #909EA0",
"y  c #7F8F90",
"u  c #757D7F",
"i  c #5A5D5D",
"p  c gray30",
"a  c #7A8384",
"s  c #8F9FA1",
"d  c #969881",
"f  c #565758",
"g  c #515252",
"h  c #879395",
"j  c #A39B77",
"k  c #9E9C7E",
"l  c #7D8C8B",
"z  c #A29A76",
"x  c #828E88",
"c  c #686D6E",
"v  c #9F9873",
"b  c #6C7373",
"n  c #A59D79",
"m  c #A09874",
"M  c #A69E7A",
"N  c #9F9772",
"B  c #989283",
"V  c #61564C",
"C  c #9B866D",
"Z  c #9B997F",
"A  c #A19975",
"S  c #7F8C8A",
"D  c #969B94",
"F  c #9E7750",
"G  c #9F744B",
"H  c #7E8C89",
"J  c #91947D",
"K  c #979E9B",
"L  c #A07851",
"P  c #9B978A",
"I  c #93957F",
"U  c #818D87",
"Y  c #A6825F",
"T  c #A1754C",
"R  c #A87D54",
"E  c #96A1A0",
"W  c #828D87",
"Q  c #A49C77",
"!  c #9B987B",
"~  c #9C9485",
"^  c #AA7B4F",
"/  c #9F8F7A",
"(  c #9C9A7C",
")  c #8C9282",
"_  c #A78059",
"`  c #8C9383",
"'  c #9D9A7D",
"]  c #939582",
"[  c #989C95",
"{  c #8D9484",
"}  c #A08C75",
"|  c #A48564",
" . c #91A0A2",
/* pixels */
"                                                                                                                                ",
"                                                                                                                                ",
"                                                                                                                                ",
"                                                                                                                                ",
"                                                  . X o O O O O O O O O o X .     +                                             ",
"                                          @ X O # # # # # # # # # # # # # # # # $ % @                                           ",
"                                      & O # # # # * = - ; ; ; ; ; ; ; ; - = * # # # # O &                                       ",
"                                  & O # # : > ; , , , , , , , , , , , , , , , , < > # # # O &                                   ",
"                              1 o # # 2 3 4 , , , , , , , , , , , , , , , , , , , , 4 - 2 # # o 1                               ",
"                            & 5 # : < , , , , , , , , , , , , , , , , , , , , , , , , , , 3 : # 5 &                             ",
"                          6 # # 7 , , , , , , , , , , , , , , , , , , , , , , , , , , , , , 4 8 # # 6                           ",
"                        o # : ; , , , , , , , , , 9 0 q w w w w w w w e q r t , , , , , , , , , 3 # # o                         ",
"                      X # y 4 , , , , , , , t u i p p p p p p p p p p p p p p e a , , , , , , , , s : # X                       ",
"                    d # : 4 , , , , , , , q p p p p p p p p p p p p p p p p p p p f u , , , , , , , s # # d                     ",
"                  d # # 3 , , , , , , 0 g p p p p p p p p p p p p p p p p p p p p p p w h , , , , , , 3 # # d             j     ",
"                k l # 3 , , , , , t e p p p p p p p p p p p p p p p p p p p p p p p p p p a , , , , , , 3 # l k         z j     ",
"              1 x # > , , , , , t i p p p p p p p p p p p p p p p p p p p p p p p p p p p p c , , , , , , > # x 1     + v +     ",
"      j +     o # y 4 , , , , , u p p p p p p p p p p p p p p p p p p p p p p p p p p p p p p b , , , , , 4 y # o   n m m M     ",
"      + N M . # : s , , , , , B V p p p p p p p p p p p p p p p p p p p p p p p p p p p p p p p C , , , , , s : # Z z A A       ",
"      n v m S # = , , , , , D F V p p p p p p p p p p p p p p p p p p p p p p p p p p p p p p p G B , , , , , = # H z z j       ",
"        m J # : 4 , , , , K L G V p p p p p p p p p p p p p p p p p p p p p p p p p p p p p p p G G P , , , , 4 : # I j +       ",
"        A U # - , , , , , Y T G V p p p p p p p p p p p p p p p p p p p p p p p p p p p p p p p G G R E , , , , - # W Q n M + M ",
"  + + n ! # : 4 , , , , ~ ^ T G V p p p p p p p p p p p p p p p p p p p p p p p p p p p p p p p G G ^ / , , , , 4 : # ( + + +   ",
"  M Q Q ) # 7 , , , , , _ ^ T G V p p p p p p p p p p p p p p p p p p p p p p p p p p p p p p p G G ^ ^ E , , , , 7 # ` n n M   ",
"    n + H # < , , , , ~ ^ ^ T G V p p p p p p p p p p p p p p p p p p p p p p p p p p p p p p p G G ^ ^ / , , , , < # S n n     ",
"    M ' # : , , , , , Y ^ ^ T G V p p p p p p p p p p p p p p p p p p p p p p p p p p p p p p p G G ^ ^ _ , , , , , : # k       ",
"      ] # 8 , , , , K ^ ^ ^ T G V p p p p p p p p p p p p p p p p p p p p p p p p p p p p p p p G G ^ ^ ^ [ , , , , 8 # 6       ",
"      { # = , , , , ~ ^ ^ ^ T G V p p p p p p p p p p p p p p p p p p p p p p p p p p p p p p p G G ^ ^ ^ / , , , , = # {       ",
"      O # ; , , , , } ^ ^ ^ T G V p p p p p p p p p p p p p p p p p p p p p p p p p p p p p p p G G ^ ^ ^ | , , , , ; # O       ",
"      5 #  ., , , , | ^ ^ ^ T G V p p p p p p p p p p p p p p p p p p p p p p p p p p p p p p p G G ^ ^ ^ R , , , ,  .# 5       ",
"      # # , , , , , | ^ ^ ^ T G V p p p p p p p p p p p p p p p p p p p p p p p p p p p p p p p G G ^ ^ ^ ^ , , , , , # #       ",
"      # # , , , , , _ ^ ^ ^ T G V p p p p p p p p p p p p p p p p p p p p p p p p p p p p p p p G G ^ ^ ^ ^ , , , , , # #       ",
"      # # , , , , , ^ ^ ^ ^ T G V p p p p p p p p p p p p p p p p p p p p p p p p p p p p p p p G G ^ ^ ^ ^ , , , , , # #       ",
"      # # , , , , , ^ ^ ^ ^ T G V p p p p p p p p p p p p p p p p p p p p p p p p p p p p p p p G G ^ ^ ^ ^ , , , , , # #       ",
"      # # , , , , , ^ ^ ^ ^ T G V p p p p p p p p p p p p p p p p p p p p p p p p p p p p p p p G G ^ ^ ^ ^ , , , , , # #       ",
"      # # , , , , , ^ ^ ^ ^ T G V p p p p p p p p p p p p p p p p p p p p p p p p p p p p p p p G G ^ ^ ^ ^ , , , , , # #       ",
"      # # , , , , , ^ ^ ^ ^ T G V p p p p p p p p p p p p p p p p p p p p p p p p p p p p p p p G G ^ ^ ^ ^ , , , , , # #       ",
"      # # , , , , , ^ ^ ^ ^ T G V p p p p p p p p p p p p p p p p p p p p p p p p p p p p p p p G G ^ ^ ^ ^ , , , , , # #       ",
"      # # , , , , , ^ ^ ^ ^ T G V p p p p p p p p p p p p p p p p p p p p p p p p p p p p p p p G G ^ ^ ^ ^ , , , , , # #       ",
"      # # , , , , , ^ ^ ^ ^ T G V p p p p p p p p p p p p p p p p p p p p p p p p p p p p p p p G G ^ ^ ^ ^ , , , , , # #       ",
"      # # , , , , , ^ ^ ^ ^ T G V p p p p p p p p p p p p p p p p p p p p p p p p p p p p p p p G G ^ ^ ^ ^ , , , , , # #       ",
"    j # # , , , , , ^ ^ ^ ^ T G V p p p p p p p p p p p p p p p p p p p p p p p p p p p p p p p G G ^ ^ ^ ^ , , , , , # #       ",
"    + # # , , , , , ^ ^ ^ ^ T G V p p p p p p p p p p p p p p p p p p p p p p p p p p p p p p p G G ^ ^ ^ ^ , , , , , # #       ",
"    n # # , , , , , ^ ^ ^ ^ T G V p p p p p p p p p p p p p p p p p p p p p p p p p p p p p p p G G ^ ^ ^ ^ , , , , , # #       ",
"M n M # # , , , , , ^ ^ ^ ^ T G V p p p p p p p p p p p p p p p p p p p p p p p p p p p p p p p G G ^ ^ ^ ^ , , , , , # #       ",
"  n n # # , , , , , ^ ^ ^ ^ T G V p p p p p p p p p p p p p p p p p p p p p p p p p p p p p p p G G ^ ^ ^ ^ , , , , , # #       ",
"      # # , , , , , ^ ^ ^ ^ T G V p p p p p p p p p p p p p p p p p p p p p p p p p p p p p p p G G ^ ^ ^ ^ , , , , , # #       ",
"      # # , , , , , ^ ^ ^ ^ T G V p p p p p p p p p p p p p p p p p p p p p p p p p p p p p p p G G ^ ^ ^ ^ , , , , , # #       ",
"      # # , , , , , ^ ^ ^ ^ T G V p p p p p p p p p p p p p p p p p p p p p p p p p p p p p p p G G ^ ^ ^ ^ , , , , , # #       ",
"      # # , , , , , ^ ^ ^ ^ T G V p p p p p p p p p p p p p p p p p p p p p p p p p p p p p p p G G ^ ^ ^ ^ , , , , , # #       ",
"      # # , , , , , ^ ^ ^ ^ T G V p p p p p p p p p p p p p p p p p p p p p p p p p p p p p p p G G ^ ^ ^ ^ , , , , , # #       ",
"      # # , , , , , ^ ^ ^ ^ T G V p p p p p p p p p p p p p p p p p p p p p p p p p p p p p p p G G ^ ^ ^ ^ , , , , , # #       ",
"      # # , , , , , ^ ^ ^ ^ T G V p p p p p p p p p p p p p p p p p p p p p p p p p p p p p p p G G ^ ^ ^ ^ , , , , , # # M     ",
"      # # , , , , , ^ ^ ^ ^ T G V p p p p p p p p p p p p p p p p p p p p p p p p p p p p p p p G G ^ ^ ^ ^ , , , , , # #       ",
"      # # , , , , , ^ ^ ^ ^ T G V p p p p p p p p p p p p p p p p p p p p p p p p p p p p p p p G G ^ ^ ^ ^ , , , , , # #       ",
"      # # , , , , , ^ ^ ^ ^ T G V p p p p p p p p p p p p p p p p p p p p p p p p p p p p p p p G G ^ ^ ^ ^ , , , , , # #       ",
"      # # , , , , , ^ ^ ^ ^ T G V p p p p p p p p p p p p p p p p p p p p p p p p p p p p p p p G G ^ ^ ^ ^ , , , , , # #       ",
"      # # , , , , , ^ ^ ^ ^ T G V p p p p p p p p p p p p p p p p p p p p p p p p p p p p p p p G G ^ ^ ^ ^ , , , , , # #       ",
"      # # , , , , , ^ ^ ^ ^ T G V p p p p p p p p p p p p p p p p p p p p p p p p p p p p p p p G G ^ ^ ^ ^ , , , , , # #       ",
"      # # , , , , , ^ ^ ^ ^ T G V p p p p p p p p p p p p p p p p p p p p p p p p p p p p p p p G G ^ ^ ^ ^ , , , , , # #       ",
"      # # , , , , , ^ ^ ^ ^ T G V p p p p p p p p p p p p p p p p p p p p p p p p p p p p p p p G G ^ ^ ^ ^ , , , , , # #       ",
"      # # , , , , , ^ ^ ^ ^ T G V p p p p p p p p p p p p p p p p p p p p p p p p p p p p p p p G G ^ ^ ^ ^ , , , , , # #       ",
"      # # , , , , , ^ ^ ^ ^ T G V p p p p p p p p p p p p p p p p p p p p p p p p p p p p p p p G G ^ ^ ^ ^ , , , , , # #       ",
"      # # , , , , , ^ ^ ^ ^ T G V p p p p p p p p p p p p p p p p p p p p p p p p p p p p p p p G G ^ ^ ^ ^ , , , , , # #       "
};
