/* XPM */
static char *xpm_[] = {
/* columns rows colors chars-per-pixel */
"64 64 202 2 ",
"   c #7E6E3F",
".  c #6B747B",
"X  c #657B79",
"o  c #69797C",
"O  c #787D7B",
"+  c #8E643A",
"@  c #89693E",
"#  c #91663B",
"$  c #95693D",
"%  c #99693E",
"&  c #A2613D",
"*  c #946B42",
"=  c #9C6E40",
"-  c #9A724B",
";  c #987047",
":  c #9A7E57",
">  c #B66C45",
",  c #A37243",
"<  c #A97745",
"1  c #AB7946",
"2  c #AF7B48",
"3  c #A67C4D",
"4  c #B27D49",
"5  c #BF7048",
"6  c #A17952",
"7  c #A57F58",
"8  c #AA7E5C",
"9  c #A56E42",
"0  c #DD5C48",
"q  c #D75B47",
"w  c #E05848",
"e  c #C96E4A",
"r  c #DA634A",
"t  c #D7684B",
"y  c #CB7B4E",
"u  c #CF764D",
"i  c #D1724D",
"p  c #309F57",
"a  c #25A65B",
"s  c #3AA66A",
"d  c #2AB665",
"f  c #2AB966",
"g  c #2BBD69",
"h  c #38B96A",
"j  c #3BBA73",
"k  c #4E8C4E",
"l  c #59854A",
"z  c #79985B",
"x  c #748553",
"c  c #52AB5F",
"v  c #548D74",
"b  c #5B8C79",
"n  c #5F8579",
"m  c #4A9E73",
"M  c #549A79",
"N  c #459A6E",
"B  c #65837D",
"V  c #6C9079",
"C  c #5EAE62",
"Z  c #44BB6B",
"A  c #45B66A",
"S  c #55B668",
"D  c #4BA176",
"F  c #48AA77",
"G  c #44B97A",
"H  c #44B274",
"J  c #55BD73",
"K  c #5CBB75",
"L  c #52AC6D",
"P  c #63AA63",
"I  c #69A96F",
"U  c #66B365",
"Y  c #7CAB75",
"T  c #64B577",
"R  c #62B875",
"E  c #6BB475",
"W  c #74B277",
"Q  c #74AD62",
"!  c #2CC46C",
"~  c #2DC96F",
"^  c #33C86F",
"/  c #3AC66E",
"(  c #2ECC71",
")  c #35C473",
"_  c #3AC673",
"`  c #32CB72",
"'  c #3ACF79",
"]  c #3ACB75",
"[  c #41C26C",
"{  c #47C576",
"}  c #42D17E",
"|  c #988C54",
" . c #8E9052",
".. c #A3834C",
"X. c #AE814E",
"o. c #B7804B",
"O. c #BB844D",
"+. c #AA815E",
"@. c #AC8758",
"#. c #B58D52",
"$. c #A69757",
"%. c #A49858",
"&. c #B49357",
"*. c #9F8A64",
"=. c #8F9162",
"-. c #83867C",
";. c #85887F",
":. c #8B8C7E",
">. c #938D7A",
",. c #9F9772",
"<. c #9F9873",
"1. c #94927D",
"2. c #9A967C",
"3. c #9E997B",
"4. c #939C69",
"5. c #AA8461",
"6. c #A88B67",
"7. c #B58D6B",
"8. c #B88F6E",
"9. c #B28A67",
"0. c #A9936C",
"q. c #A4926D",
"w. c #A69672",
"e. c #A89672",
"r. c #A29A76",
"t. c #A89B75",
"y. c #A79F7B",
"u. c #A89F7B",
"i. c #BC9573",
"p. c #B7987A",
"a. c #BE966D",
"s. c #81AD78",
"d. c #8CA979",
"f. c #8FA476",
"g. c #94A479",
"h. c #9BA279",
"j. c #A4A07B",
"k. c #ABA17D",
"l. c #C0874F",
"z. c #C9814F",
"x. c #C68650",
"c. c #C48A51",
"v. c #C88350",
"b. c #C4905A",
"n. c #CA9968",
"m. c #CC9F71",
"M. c #6E7880",
"N. c #717B83",
"B. c #7A8182",
"V. c #6B998A",
"C. c #5CA583",
"Z. c #54AC80",
"A. c #58A882",
"S. c #61A285",
"D. c #72BD86",
"F. c #52D589",
"G. c #5BD38D",
"H. c #6DDB9B",
"J. c #61D893",
"K. c #7BDFA6",
"L. c #77DEA2",
"P. c #808581",
"I. c #848880",
"U. c #9DBC8B",
"Y. c #AEA480",
"T. c #B3A884",
"R. c #AFB38F",
"E. c #CCAB89",
"W. c #CBB694",
"Q. c #D4B595",
"!. c #D3BA9A",
"~. c #DBBB9B",
"^. c #C0AA94",
"/. c #D0BFAF",
"(. c #C9B6A3",
"). c #9AC994",
"_. c #A4C895",
"`. c #86CCA3",
"'. c #ADDEBE",
"]. c #81E0A9",
"[. c #95E5B7",
"{. c #D7C1A1",
"}. c #DCC3A4",
"|. c #D6C9BB",
" X c #E1C3A4",
".X c #E4C9AA",
"XX c #E7C9AB",
"oX c #ECCFB1",
"OX c #BBDFC9",
"+X c #A8E9C3",
"@X c #B3ECCB",
"#X c #B9EECF",
"$X c #E3D9D1",
"%X c #E9E2DC",
"&X c #DFEFE6",
"*X c #DEF7E9",
"=X c #F1EDE9",
"-X c white",
";X c #FDFFFE",
":X c #FAFAFA",
">X c #F4FAF6",
",X c #E5F2EA",
/* pixels */
"y.y.y.y.y.y.y.y.y.y.y.y.y.y.y.y.y.y.y.y.y.y.y.y.y.y.y.y.y.y.y.y.y.y.y.y.y.y.y.y.y.y.y.y.y.y.y.y.y.y.y.y.y.y.y.y.y.y.y.y.y.y.y.y.",
"y.y.y.y.y.y.y.y.y.y.y.y.y.y.y.y.y.y.y.y.y.y.y.y.y.y.y.y.y.y.y.y.y.y.y.y.y.y.y.y.y.y.y.y.y.y.y.y.y.y.y.y.y.y.y.y.y.y.y.y.y.y.y.y.",
"y.y.y.y.y.y.y.y.y.y.y.y.y.y.y.y.y.y.y.y.y.y.y.y.y.y.y.y.y.y.y.y.y.y.y.y.y.y.y.y.y.y.y.y.y.y.y.y.y.y.y.y.y.y.y.y.y.y.y.y.y.y.y.y.",
"y.y.y.y.y.y.y.y.y.y.y.y.y.y.y.y.y.y.y.y.y.y.y.y.y.y.y.y.y.y.y.y.y.y.y.y.y.y.y.y.y.y.y.y.y.y.y.y.y.y.y.y.y.y.y.y.y.y.y.y.y.y.y.y.",
"y.y.y.y.y.y.y.y.y.y.y.y.y.y.y.y.y.y.y.y.y.y.y.y.y.y.y.y.y.y.y.y.y.y.y.y.y.y.y.y.y.y.y.y.y.y.y.y.y.y.y.y.y.y.y.y.y.y.y.y.y.y.y.y.",
"y.y.y.y.y.y.y.y.y.y.y.y.y.y.y.y.y.y.y.y.y.y.y.y.y.r.y.y.y.y.y.y.y.y.y.r.y.y.y.y.r.<.y.y.y.y.y.y.y.y.y.y.y.y.y.y.y.y.y.y.y.y.y.y.",
"y.y.y.y.y.y.y.y.y.y.y.y.y.y.y.y.y.y.y.y.y.y.y.y.r.r.y.y.y.y.y.y.y.y.y.r.r.y.y.y.,.r.y.y.y.y.y.y.y.y.y.y.y.y.y.y.y.y.y.y.y.y.y.y.",
"y.y.y.y.y.y.y.y.y.y.y.y.y.y.y.y.y.y.y.y.y.y.y.y.<.r.y.y.y.y.y.y.y.y.y.r.<.y.y.<.<.r.y.y.y.y.y.y.y.y.y.y.y.y.y.y.y.y.y.y.y.y.y.y.",
"y.y.y.y.y.y.y.y.y.y.y.y.y.y.y.y.y.y.y.y.y.y.y.r.r.y.y.y.y.y.y.y.y.y.y.r.r.r.r.r.r.r.y.y.y.y.y.y.y.y.y.y.y.y.y.y.y.y.y.y.y.y.y.y.",
"y.y.y.y.y.y.y.y.y.y.y.y.y.y.y.y.y.y.r.r.y.y.r.r.r.y.y.y.y.y.y.y.y.y.y.r.r.r.r.r.r.r.y.y.y.y.y.y.y.y.y.y.y.y.y.y.y.y.y.y.y.y.y.y.",
"y.y.y.y.y.y.y.y.y.y.y.y.y.y.y.y.y.y.r.r.r.y.r.r.r.y.y.y.y.y.y.y.y.y.y.y.r.r.r.r.r.r.y.y.y.y.y.y.y.y.y.y.y.y.y.y.y.y.y.y.y.y.y.y.",
"y.y.y.y.y.y.y.y.y.y.y.y.y.y.r.r.y.y.r.r.r.r.r.r.r.y.y.3.2.2.2.2.y.r.r.r.r.r.r.r.r.r.y.y.y.y.y.y.y.y.y.y.y.y.y.y.y.y.y.y.y.y.y.y.",
"y.y.y.y.y.y.y.y.y.y.y.y.y.y.y.r.r.y.r.r.r.r.r.r.3.:.B.N.N.N.N.I.y.y.r.r.r.r.r.y.y.y.y.y.y.y.y.y.y.y.y.y.y.y.y.y.y.y.y.y.y.y.y.y.",
"y.y.y.y.y.y.y.y.y.y.y.y.y.y.y.y.y.y.y.y.y.y.y.2.-.N.N.N.N.N.N.1.1.:.;.;.;.;.;.:.:.1.3.y.y.y.y.y.y.y.y.y.y.y.y.y.y.y.y.y.y.y.y.y.",
"y.y.y.y.y.y.y.y.y.y.y.y.y.y.y.y.y.y.y.y.y.y.3.B.N.N.N.N.N.N.N.N.N.N.N.M.. . . . . . . 1.y.y.y.y.y.y.y.y.y.y.y.y.y.y.y.y.y.r.y.y.",
"y.y.y.y.y.y.y.y.y.y.y.y.y.y.y.y.y.y.y.3.3.r.P.N.N.N.N.N.N.N.N.N.N.. . . . . . . . . O r.y.y.y.y.y.y.y.y.y.y.y.y.y.y.y.y.r.r.y.y.",
"y.y.y.y.y.y.y.y.y.y.y.y.y.y.y.y.y.y.y.-.B.B.N.N.N.N.M.. o N.M.. . . . . . . . . . . O 1.1.1.1.y.y.y.y.y.y.y.y.y.y.y.y.y.<.y.y.y.",
"y.y.y.r.r.y.y.y.y.,.y.y.y.y.y.y.y.y.1.N.N.N.N.N.N.M.. . . . . . . . . . . . . . . . . . N.N.B.r.y.y.y.y.y.y.y.y.y.y.y.r.r.y.y.y.",
"y.y.y.y.,.y.y.y.<.,.y.y.y.y.y.y.y.y.P.N.N.N.N.N.. . . . . . . . . . . . . . . . . . . . M.N.N.3.y.y.y.y.y.y.r.y.y.y.r.r.r.y.y.y.",
"y.y.y.y.<.r.y.r.<.<.y.y.y.y.y.y.y.r.N.N.N.N.N.. . . . . . . . . . . . . . . . . . . . . . N.N.3.y.y.y.y.y.y.r.r.y.r.r.r.r.y.y.y.",
"y.y.y.y.r.r.r.r.r.r.y.y.y.y.y.y.y.:.N.N.N.N.. . . . . . . . . . . . . . . . . . . . . . . N.N.3.y.y.r.y.y.r.r.r.r.r.r.r.y.y.y.y.",
"y.y.y.y.r.r.r.r.r.r.y.y.y.y.y.y.3.B.N.N.N.. . . . X v v X . . . . . . . . . . . . . . . . N.N.3.y.y.r.r.r.r.r.r.r.r.r.r.y.y.y.y.",
"y.y.y.y.r.r.r.r.r.r.y.y.y.y.y.y.3.B.N.N.. . . . . N d d d d s v X . . . . . . . . . . . . N.N.3.y.y.y.y.y.r.y.y.y.y.y.y.y.y.y.y.",
"y.y.r.r.r.r.r.r.r.r.y.y.y.y.y.y.y.:.M.. . . . . B f f f d d d d N . . . . . . . . . . . . N.N.3.y.y.y.y.y.y.y.y.y.y.y.y.y.y.y.y.",
"y.y.y.y.y.y.y.y.y.y.y.y.y.y.y.y.y.1.. . . . o B F ( ~ ~ ! g f d s X . . . . . . . . . . . N.B.y.y.y.y.y.y.y.y.y.y.y.y.y.y.y.y.y.",
"y.y.y.y.y.y.y.y.y.y.y.y.y.y.y.y.y.2.. . . X ) ) ` ( ( ( ( ( ( ( ~ v . . o . . o M F . . . N.P.y.y.y.y.y.y.y.y.y.y.y.y.y.y.y.y.y.",
"y.y.y.y.y.y.y.y.y.y.y.y.y.y.y.y.y.3.. . . D ( ( ( ` ( ( ( ( ( ( ( H M H j M D j ) ( n . . N.:.y.y.y.y.y.y.y.y.y.y.y.y.y.y.y.y.y.",
"y.y.y.y.y.y.y.y.y.y.y.y.y.y.y.y.y.3.. . . D ( ( ) V.S.C.C.A.) ( ( ( ( ) Z.C.C.S.V.G D . . N.2.y.y.y.y.y.y.y.y.y.y.y.y.y.y.y.y.y.",
"y.y.y.y.y.y.y.y.y.y.y.y.y.y.y.y.y.2.. . . b ( ( ` Z.C.S.S.S.G ( ( ( ( G C.S.S.C.Z._ j . . P.r.y.y.y.y.y.y.y.y.y.y.y.y.y.y.y.y.y.",
"y.y.y.y.y.y.y.y.y.y.y.y.y.y.y.y.y.:.. . . . ) ( ( ( ( ( ( ( ( ( ( ( ( ( ( ( ( ( ( ( ) B M.1.y.y.y.y.y.y.y.y.y.y.y.y.y.y.y.y.y.y.",
"y.y.y.y.y.y.y.y.y.y.y.y.y.y.y.y.y.-.. . . . j ( ( F.K.K.K.H.` ( ( ( ( ( F.K.K.K.H.( ( b N.y.y.y.y.y.y.y.y.y.y.y.y.y.y.y.y.y.y.y.",
"y.y.y.y.y.y.y.y.y.y.y.y.y.y.y.y.y.-.. . . b ( ( ( K.>X-X-X#X` ( ( ( ( ( H.-X-X-X+X( ( M :.y.y.y.y.y.y.y.y.y.y.y.y.y.y.y.y.y.y.y.",
"y.y.y.y.y.y.y.y.y.y.y.y.y.y.y.y.y.2.. . o ) ~ f ~ ( H.@X[.} ( ( ( ( ( ( ` L.@X[.` ( ( T y.y.y.y.y.y.y.y.y.y.y.y.y.y.y.y.y.y.y.y.",
"y.y.y.y.y.y.y.y.y.y.y.y.y.y.y.y.y.y.O . m ( ( f f ( ` ' ` } J.H.].[.+X+XF.` ' ` ( ( ( E y.y.y.y.y.y.y.y.y.y.y.y.y.y.y.y.y.y.y.y.",
"y.y.y.y.y.y.y.y.y.y.y.y.y.y.y.y.y.y.3.V ) ( ( ! d ! ( ( ( +X-X-X-X-X-XR.L ( ( ( ( ( ( W y.y.y.y.y.y.y.y.y.y.y.y.y.y.y.y.y.y.y.y.",
"y.y.y.y.y.y.y.y.y.y.y.y.y.y.y.y.y.y.y.R ( ( ( ( g f ~ ( ( J.#X*X-X-X:X>.A ( ( ( ( ( ( s.y.y.y.y.y.y.y.y.y.y.y.y.y.y.y.y.y.y.y.y.",
"y.y.y.y.y.y.y.y.y.y.y.y.y.r.y.y.y.y.y.Y ( ( ( ( ( f ~ ( ( ( ( ( ' K.@X'.} ( ( ( ( ( ` 4.0.t.y.y.y.y.y.y.y.y.y.y.y.y.y.y.y.y.y.y.",
"y.y.y.y.y.y.y.y.y.y.y.y.r.r.y.y.y.t.@.| Z ( ( ( ( ( ( ( ( ( ( ( ( ( ( ( ( ( ( ( ( ` U X.2 X.0.y.y.y.y.y.y.y.y.y.y.y.y.y.y.y.y.y.",
"y.y.y.y.y.y.y.y.y.y.y.y.r.r.y.y.t.@.2 2 | P C C C U A g g g g g g g g g g c C U U Q #.4 2 2 X.t.y.y.y.y.y.y.y.y.y.y.y.y.y.y.y.y.",
"y.y.y.y.y.y.r.y.y.y.y.r.r.r.y.0.2 2 2 2 2 2 2 2 2 4 $   k p a a a a a l   + # 4 c.c.c.o.2 2 2 X.y.y.y.y.y.y.y.y.y.y.y.y.y.y.y.y.",
"y.y.y.y.y.y.r.r.y.y.r.r.r.t.0.X.2 2 2 2 2 2 2 2 2 , + + @ x D.H H `.OX@ + + , O.c.c.c.o.2 2 2 2 0.y.y.y.y.y.y.y.y.y.y.y.y.y.y.y.",
"y.y.r.y.y.y.r.r.r.r.r.r.r.t.6.2 2 2 1 2 2 2 2 2 2 O., + + - %X&X,X:X$X+ + # 4 4 4 O.c.O.2 2 2 2 @.y.y.y.y.y.y.y.y.y.y.y.y.y.y.y.",
"y.y.y.r.r.y.r.r.r.r.r.r.r.y.d.^ C | 2 2 2 2 2 2 4 i y > % + ^.:X:X:X(.+ $ 4 o.o.O.O.c.O.2 2 2 2 2 y.y.y.y.y.y.y.y.y.y.y.y.y.y.y.",
"y.y.y.r.r.r.r.r.r.r.r.r.r.f.{ ( ( P 2 2 2 2 2 4 e w 0 r 9 + * =X:X=Xp.# 4 c.c.c.c.c.c.O.2 2 2 2 2 0.y.y.y.y.y.y.y.y.y.y.y.y.y.y.",
"y.y.y.y.y.y.y.y.y.y.y.y.3.J ( ( ( S ....2 2 2 5 q 0 r z.l.< # (.:X$X- 1 c.c.c.c.c.c.c.O.2 |  .z | @.y.y.y.y.y.y.y.y.y.y.y.y.y.y.",
"y.y.y.y.y.y.y.y.y.y.y.y.Y ` ( ( ( ^ S P ..2 4 y i r t c.c.c., 5.:X/.$ c.c.c.c.c.c.c.c.O.2 S ( ( W t.y.y.y.y.y.y.y.r.r.y.y.y.y.y.",
"y.y.y.y.y.y.y.y.y.y.y.g.` ( ( ( ( ( ( ( [ ..O.c.c.v.i x.O.l.c.1 |.p.O.c.c.c.x.i c.c.c.%.Z ( ( ( E y.y.y.,.y.y.y.r.,.r.y.y.y.y.y.",
"y.y.y.y.y.y.y.y.y.y.y.K ( ( ( ( ( ( ( ( { #.c.c.c.c.x.c.O.o.c.c.a.n.c.c.c.c.u t x.c.c.%.` ( ( ( K y.y.y.<.r.y.r.<.<.r.y.y.y.y.y.",
"y.y.y.y.y.y.y.y.y.y.s.^ g ! ~ ( ( ( ` K h.c.c.c.c.c.c.c.c.o.4 c.c.c.c.z.i t 0 0 y c.c.%./ ( ( ( K y.y.y.r.r.r.r.,.<.r.y.y.y.y.y.",
"y.y.y.y.y.y.y.y.y.y.J ( ! f f ~ ( ( R h.k.b.c.c.c.c.c.c.c.O.4 O.c.c.c.x.i 0 w w 0 i c.$.[ ( ( ~ h g.y.y.r.r.r.r.r.r.r.y.y.y.y.y.",
"y.y.y.y.y.y.y.y.y.g._ ( ( ( ~ ! ~ ( Y T..Xn.c.c.c.c.c.c.c.c.l.O.c.c.c.c.c.y 0 t y y c.&.K ( ~ ( ~ d I y.y.r.r.r.r.r.y.y.y.y.y.y.",
"y.y.y.y.y.y.y.y.y.d.` ( ( ( ( ( ( ~ W {.oXm.c.c.c.c.c.c.c.c.c.O.O.O.O.O.o.o.q > < < , 3 U.h ! ( ( ! h r.r.r.r.r.r.r.y.y.y.y.y.y.",
"y.y.y.y.y.y.y.y.y.d.( ( ( ( ( ( ( ! D.}.oXm.O.4 4 < , , = % % $ $ $ # # + + & # + + + * E.).] ( ( ( Z r.y.y.y.y.y.y.y.y.y.y.y.y.",
"y.y.y.y.y.y.y.y.y.d.` ( ( ( ( ( ~ g U. X.X9.+ + + + + + + + + + + + + + + + ; - 6 7 5.9.E.oX_.] ( ( ` f.y.y.y.y.y.y.y.y.y.y.y.y.",
"y.y.y.y.y.y.y.y.y.j.R ` ( ( ( ( A z i.~. Xi.* * - - 6 6 7 7 : : *.*.q.Q.XXoXoXoXoXoXoXoXoX.X XR.P P S E y.y.y.y.y.y.y.y.y.y.y.y.",
"y.y.y.y.y.y.y.y.y.y.j.s.J _ ( _ =.8 8 i.~.~.Q.~. X.XXXXXoXW.u.y.y.y.y.}.oXoXoXoXoXoXoXoX.X XQ.8.8 8 +.<.y.y.y.y.y.y.y.y.y.y.y.y.",
"y.y.y.y.y.y.y.y.y.y.y.y.j.s.R E q.+.8 8 i.~. X.XoXoXoXoX{.T.y.y.y.y.y.!.oXoXoXoXoXoXoX.X X~.i.8 8 +.e.y.y.y.y.y.y.y.y.y.y.y.y.y.",
"y.y.y.y.y.y.y.y.y.y.y.y.y.y.y.y.r.w.+.8 8 7.~. X.XoXoX{.k.y.y.y.y.y.y.Y.{.oXoXoXoXoX.X X~.9.8 8 5.t.y.y.y.y.y.y.y.y.y.y.y.y.y.y.",
"y.y.y.y.y.y.y.y.y.y.y.y.y.y.y.y.r.r.6.+.8 8 i.~. X.X!.Y.y.y.y.y.y.y.y.y.T..XoXoXoX.X XQ.i.8 8 5.e.y.y.y.y.y.y.y.y.y.y.y.y.y.y.y.",
"y.y.y.y.y.y.y.y.y.y.y.y.y.y.y.y.y.y.y.q.+.8 8 i.~.W.k.y.y.y.y.y.y.y.y.y.y.Y..XoX.X X~.8.8 8 +.e.y.y.y.y.y.y.y.y.y.y.y.y.y.y.y.y.",
"y.y.y.y.y.y.y.y.y.y.y.y.y.y.y.y.y.y.y.y.w.+.8 8 7.u.y.y.y.y.y.y.y.y.y.y.y.y.T.Q. X~.7.8 8 +.0.y.y.y.y.y.y.y.y.y.y.y.y.y.y.y.y.y.",
"y.y.y.y.y.y.y.y.y.y.y.y.y.y.y.y.y.y.y.y.y.w.+.8 8 y.y.y.y.y.y.y.y.y.y.y.y.y.y.Y.Q.7.8 8 +.e.y.y.y.y.y.y.y.y.y.y.y.y.y.y.y.y.y.y.",
"y.y.y.y.y.y.y.y.y.y.y.y.y.y.y.y.y.y.y.y.y.y.e.5.+.y.y.y.y.y.y.y.y.y.y.y.y.y.y.y.u.5.8 5.0.y.y.y.y.y.y.y.y.y.y.y.y.y.y.y.y.y.y.y.",
"y.y.y.y.y.y.y.y.y.y.y.y.y.y.y.y.y.y.y.y.y.y.y.e.0.y.y.y.y.y.y.y.y.y.y.y.y.y.y.y.y.t.5.0.y.y.y.y.y.y.y.y.y.y.y.y.y.y.y.y.y.y.y.y."
};
