/* XPM */
static char *xpm_[] = {
/* columns rows colors chars-per-pixel */
"64 64 191 2 ",
"   c #7B7040",
".  c #6B747B",
"X  c #647D79",
"o  c #6B7A7D",
"O  c #737A7B",
"+  c #70777B",
"@  c #8E643A",
"#  c #92663B",
"$  c #95693D",
"%  c #9C6C3F",
"&  c #A3643E",
"*  c #986C41",
"=  c #9F7041",
"-  c #B96845",
";  c #AD7947",
":  c #AF7B48",
">  c #A57444",
",  c #B37D49",
"<  c #BE7C4B",
"1  c #AA7E5C",
"2  c #AD7D51",
"3  c #8B7D68",
"4  c #DD5B48",
"5  c #E05848",
"6  c #D9644A",
"7  c #D66A4B",
"8  c #CC7C4E",
"9  c #CE744C",
"0  c #CB6B49",
"q  c #359D56",
"w  c #25A65B",
"e  c #2BA259",
"r  c #2AB665",
"t  c #2ABA67",
"y  c #2BBD69",
"u  c #33B466",
"i  c #3CBD75",
"p  c #3BB873",
"a  c #37A96A",
"s  c #5C834A",
"d  c #4F9956",
"f  c #799D59",
"g  c #6A834A",
"h  c #52A95F",
"j  c #42A55C",
"k  c #69A65E",
"l  c #67A85E",
"z  c #79A45D",
"x  c #5C8376",
"c  c #5C8D7A",
"v  c #5D8878",
"b  c #4E9171",
"n  c #529977",
"m  c #569478",
"M  c #559578",
"N  c #459A6E",
"B  c #65827A",
"V  c #7B807A",
"C  c #4CBD6A",
"Z  c #4ABA68",
"A  c #49A475",
"S  c #48A976",
"D  c #57AF7B",
"F  c #43BA79",
"G  c #4AB47D",
"H  c #53BE74",
"J  c #59BC75",
"K  c #4BAB68",
"L  c #77A862",
"P  c #7BAE76",
"I  c #79AF77",
"U  c #6AB575",
"Y  c #66B47A",
"T  c #72B276",
"R  c #2CC56D",
"E  c #2DC96F",
"W  c #34C56E",
"Q  c #3CC36D",
"!  c #34C86F",
"~  c #2ECC71",
"^  c #36C473",
"/  c #3DC573",
"(  c #31CB72",
")  c #3ACF79",
"_  c #39C872",
"`  c #3DD07B",
"'  c #41C46D",
"]  c #44C373",
"[  c #48C676",
"{  c #41D17E",
"}  c #9E864D",
"|  c #9B884E",
" . c #928E51",
".. c #9F8F52",
"X. c #899C5A",
"o. c #AD804F",
"O. c #A8844C",
"+. c #B6814B",
"@. c #BC844E",
"#. c #A8875A",
"$. c #B98E58",
"%. c #AB9456",
"&. c #82A75F",
"*. c #8D8D7E",
"=. c #85877C",
"-. c #918F7B",
";. c #9F9772",
":. c #9F9973",
">. c #94927D",
",. c #9A967B",
"<. c #9E997C",
"1. c #9E8963",
"2. c #AA8260",
"3. c #AA8B64",
"4. c #A88A69",
"5. c #A9936D",
"6. c #A1986F",
"7. c #A89371",
"8. c #A29A76",
"9. c #A89B76",
"0. c #A79F7B",
"q. c #B5997B",
"w. c #90A06D",
"e. c #84AC78",
"r. c #8AAA78",
"t. c #89A875",
"y. c #92A679",
"u. c #9CA279",
"i. c #A3A07B",
"p. c #C0874F",
"a. c #C9804F",
"s. c #C78550",
"d. c #C88350",
"f. c #C48A51",
"g. c #C09061",
"h. c #6F7880",
"j. c #727B83",
"k. c #7A8182",
"l. c #6B9989",
"z. c #73928D",
"x. c #5ECD81",
"c. c #46D181",
"v. c #4CD385",
"b. c #55D68C",
"n. c #5DD791",
"m. c #68CD84",
"M. c #72DC9F",
"N. c #65D996",
"B. c #79DEA4",
"V. c #7FE0A8",
"C. c #828680",
"Z. c #858980",
"A. c #BCAA88",
"S. c #AFB084",
"D. c #A7AB8C",
"F. c #93B590",
"G. c #C9A784",
"H. c #C3AE8B",
"J. c #C1B18F",
"K. c #CCB393",
"L. c #D9B999",
"P. c #D2BA9A",
"I. c #C7AF98",
"U. c #CFBDAC",
"Y. c #D0BFAF",
"T. c #B2C093",
"R. c #9CD5B4",
"E. c #ACD0B5",
"W. c #8BE2B0",
"Q. c #8FE3B3",
"!. c #CECDA6",
"~. c #D5CEA9",
"^. c #DAC2A3",
"/. c #E2C3A4",
"(. c #EBCDAF",
"). c #E3CFAE",
"_. c #ECCFB1",
"`. c #ACEBC6",
"'. c #B3ECCC",
"]. c #DAD2C8",
"[. c #C0E3CF",
"{. c #C7F1D9",
"}. c #C5E5D2",
"|. c #DEF7E9",
" X c #F2EFED",
".X c #E5F9ED",
"XX c #EBFAF2",
"oX c #FFFFFF",
"OX c #FAFAFA",
"+X c #F7FAF8",
"@X c #EFEBE7",
/* pixels */
"0.0.0.0.0.0.0.0.0.0.0.0.0.0.0.0.0.0.0.0.0.0.0.0.0.0.0.0.0.0.0.0.0.0.0.0.0.0.0.0.0.0.0.0.0.0.0.0.0.0.0.0.0.0.0.0.0.0.0.0.0.0.0.0.",
"0.0.0.0.0.0.0.0.0.0.0.0.0.0.0.0.0.0.0.0.0.0.0.0.0.0.0.0.0.0.0.0.0.0.0.0.0.0.0.0.0.0.0.0.0.0.0.0.0.0.0.0.0.0.0.0.0.0.0.0.0.0.0.0.",
"0.0.0.0.0.0.0.0.0.0.0.0.0.0.0.0.0.0.0.0.0.0.0.0.0.0.0.0.0.0.0.0.0.0.0.0.0.0.0.0.0.0.0.0.0.0.0.0.0.0.0.0.0.0.0.0.0.0.0.0.0.0.0.0.",
"0.0.0.0.0.0.0.0.0.0.0.0.0.0.0.0.0.0.0.0.0.0.0.0.0.0.0.0.0.0.0.0.0.0.0.0.0.0.0.0.0.0.0.0.0.0.0.0.0.0.0.0.0.0.0.0.0.0.0.0.0.0.0.0.",
"0.0.0.0.0.0.0.0.0.0.0.0.0.0.0.0.0.0.0.0.0.0.0.0.0.0.0.0.0.0.0.0.0.0.0.0.0.0.0.0.0.0.0.0.0.0.0.0.0.0.0.0.0.0.0.0.0.0.0.0.0.0.0.0.",
"0.0.0.0.0.0.0.0.0.0.0.0.0.0.0.0.0.0.0.0.0.0.0.0.0.8.0.0.0.0.0.0.0.0.0.8.0.0.0.0.8.:.0.0.0.0.0.0.0.0.0.0.0.0.0.0.0.0.0.0.0.0.0.0.",
"0.0.0.0.0.0.0.0.0.0.0.0.0.0.0.0.0.0.0.0.0.0.0.0.8.8.0.0.0.0.0.0.0.0.0.8.8.0.0.0.;.8.0.0.0.0.0.0.0.0.0.0.0.0.0.0.0.0.0.0.0.0.0.0.",
"0.0.0.0.0.0.0.0.0.0.0.0.0.0.0.0.0.0.0.0.0.0.0.0.:.8.0.0.0.0.0.0.0.0.0.8.:.0.0.:.:.8.0.0.0.0.0.0.0.0.0.0.0.0.0.0.0.0.0.0.0.0.0.0.",
"0.0.0.0.0.0.0.0.0.0.0.0.0.0.0.0.0.0.0.0.0.0.0.8.8.0.0.0.0.0.0.0.0.0.0.8.8.8.8.8.8.8.0.0.0.0.0.0.0.0.0.0.0.0.0.0.0.0.0.0.0.0.0.0.",
"0.0.0.0.0.0.0.0.0.0.0.0.0.0.0.0.0.0.8.8.0.0.8.8.8.0.0.0.0.0.0.0.0.0.0.8.8.8.8.8.8.8.0.0.0.0.0.0.0.0.0.0.0.0.0.0.0.0.0.0.0.0.0.0.",
"0.0.0.0.0.0.0.0.0.0.0.0.0.0.0.0.0.0.8.8.8.0.8.8.8.0.0.0.0.0.0.0.0.0.0.0.8.8.8.8.8.8.0.0.0.0.0.0.0.0.0.0.0.0.0.0.0.0.0.0.0.0.0.0.",
"0.0.0.0.0.0.0.0.0.0.0.0.0.0.8.8.0.0.8.8.8.8.8.8.8.0.0.0.8.8.8.8.0.8.8.8.8.8.8.8.8.8.0.0.0.0.0.0.0.0.0.0.0.0.0.0.0.0.0.0.0.0.0.0.",
"0.0.0.0.0.0.0.0.0.0.0.0.0.0.0.8.8.0.8.8.8.8.8.8.8.>.=.k.k.k.k.C.0.0.0.0.0.0.0.0.0.0.0.0.0.0.0.0.0.0.0.0.0.0.0.0.0.0.0.0.0.0.0.0.",
"0.0.0.0.0.0.0.0.0.0.0.0.0.0.0.0.0.0.0.0.0.0.0.8.*.j.j.j.j.j.j.>.<.>.>.>.>.>.>.>.,.8.0.0.0.0.0.0.0.0.0.0.0.0.0.0.0.0.0.0.0.0.0.0.",
"0.0.0.0.0.0.0.0.0.0.0.0.0.0.0.0.0.0.0.0.0.0.8.C.j.j.j.j.j.j.j.j.j.j.j.j.h.. . . . . O ,.0.0.0.0.0.0.0.0.0.0.0.0.0.0.0.0.0.8.0.0.",
"0.0.0.0.0.0.0.0.0.0.0.0.0.0.0.0.0.0.0.8.0.0.*.j.j.j.j.j.j.j.j.j.h.o . . . . . . . . + <.0.0.0.0.0.0.0.0.0.0.0.0.0.0.0.0.8.8.0.0.",
"0.0.0.0.0.0.0.0.0.0.0.0.0.0.0.0.0.0.0.*.C.C.j.j.j.j.j.. h.j.j.. . . . . . . . . . . V ,.<.<.<.0.0.0.0.0.0.0.0.0.0.0.0.0.:.0.0.0.",
"0.0.0.8.8.0.0.0.0.;.0.0.0.0.0.0.0.0.<.k.j.j.j.j.j.j.. . . o . . . . . . . . . . . . + O j.k.k.0.0.0.0.0.0.0.0.0.0.0.0.8.8.0.0.0.",
"0.0.0.0.;.0.0.0.:.;.0.0.0.0.0.0.0.0.Z.j.j.j.j.j.h.. . . . . . . . . . . . . . . . . . . h.j.j.<.0.0.0.0.0.0.8.0.0.0.8.8.8.0.0.0.",
"0.0.0.0.:.8.0.8.:.:.0.0.0.0.0.0.0.8.j.j.j.j.j.h.. . . . . . . . . . . . . . . . . . . . . j.j.<.0.0.0.0.0.0.8.8.0.8.8.8.8.0.0.0.",
"0.0.0.0.8.8.8.8.8.8.0.0.0.0.0.0.0.>.j.j.j.j.h.. . . . . . . . . . . . . . . . . . . . . . j.j.<.0.0.8.0.0.8.8.8.8.8.8.8.0.0.0.0.",
"0.0.0.0.8.8.8.8.8.8.0.0.0.0.0.0.8.C.j.j.j.. . . . . x X . . . . . . . . . . . . . . . . . j.j.<.0.0.8.8.8.8.8.8.8.8.8.8.0.0.0.0.",
"0.0.0.0.8.8.8.8.8.8.0.0.0.0.0.0.,.j.j.j.. . . . . b r r a N x X . . . . . . . . . . . . . j.j.<.0.0.0.0.0.8.0.0.0.0.0.0.0.0.0.0.",
"0.0.8.8.8.8.8.8.8.8.0.0.0.0.0.0.0.Z.j.. . . . . o u r r r r r r b . . . . . . . . . . . . j.j.<.0.0.0.0.0.0.0.0.0.0.0.0.0.0.0.0.",
"0.0.0.0.0.0.0.0.0.0.0.0.0.0.0.0.0.*.. . . . . o n R R y t t r r a . . . . . . . . . . . . j.k.8.0.0.0.0.0.0.0.0.0.0.0.0.0.0.0.0.",
"0.0.0.0.0.0.0.0.0.0.0.0.0.0.0.0.0.>.. . . . S p ^ ~ ~ ~ ~ ~ ~ R R v . . . . . . B M . . . j.k.0.0.0.0.0.0.0.0.0.0.0.0.0.0.0.0.0.",
"0.0.0.0.0.0.0.0.0.0.0.0.0.0.0.0.0.<.. . . n ~ ~ ~ ~ ~ ~ ~ ~ ~ ~ ~ A v n A c c A i ( X . . j.Z.0.0.0.0.0.0.0.0.0.0.0.0.0.0.0.0.0.",
"0.0.0.0.0.0.0.0.0.0.0.0.0.0.0.0.0.<.. . . A ~ ~ ( D F i i / ~ ~ ~ ~ ( ~ ^ F i F G ^ n . . j.>.0.0.0.0.0.0.0.0.0.0.0.0.0.0.0.0.0.",
"0.0.0.0.0.0.0.0.0.0.0.0.0.0.0.0.0.,.. . . c ~ ~ ^ l.z.z.z.z.G ~ ~ ~ ~ G z.z.z.z.l.F p . . k.<.0.0.0.0.0.0.0.0.0.0.0.0.0.0.0.0.0.",
"0.0.0.0.0.0.0.0.0.0.0.0.0.0.0.0.0.-.. . . o ~ ~ ~ ~ ~ ~ ~ ~ ~ ~ ~ ~ ~ ~ ~ ~ ~ ~ ~ ~ ^ X h.*.0.0.0.0.0.0.0.0.0.0.0.0.0.0.0.0.0.0.",
"0.0.0.0.0.0.0.0.0.0.0.0.0.0.0.0.0.=.. . . . i ~ ~ { b.b.b.v.( ~ ~ ~ ~ ~ { b.b.b.v.~ ( v j.8.0.0.0.0.0.0.0.0.0.0.0.0.0.0.0.0.0.0.",
"0.0.0.0.0.0.0.0.0.0.0.0.0.0.0.0.0.=.. . . B ~ ~ ~ B.|..X.X'.( ~ ~ ~ ~ ~ M..X.X.X`.~ ~ M Z.0.0.0.0.0.0.0.0.0.0.0.0.0.0.0.0.0.0.0.",
"0.0.0.0.0.0.0.0.0.0.0.0.0.0.0.0.0.-.. . . p ~ R ~ ) Q..X{.n.~ ~ ~ ~ ~ ~ ` `..X{.c.~ ~ D 8.0.0.0.0.0.0.0.0.0.0.0.0.0.0.0.0.0.0.0.",
"0.0.0.0.0.0.0.0.0.0.0.0.0.0.0.0.0.8.+ . m ~ ~ r y ~ ) b.c.) c.v.b.N.B.B.c.` b.v.~ ~ ~ U 0.0.0.0.0.0.0.0.0.0.0.0.0.0.0.0.0.0.0.0.",
"0.0.0.0.0.0.0.0.0.0.0.0.0.0.0.0.0.0.>.B i ~ ~ y r R ~ ~ ~ W..XXX+XoXoX].Y ~ ~ ~ ~ ~ ~ T 0.0.0.0.0.0.0.0.0.0.0.0.0.0.0.0.0.0.0.0.",
"0.0.0.0.0.0.0.0.0.0.0.0.0.0.0.0.0.0.0.Y ~ ~ ~ E t t ~ ~ ~ V.XXoXoXoX+X3 K ~ ~ ~ ~ ~ ~ P 0.0.0.0.0.0.0.0.0.0.0.0.0.0.0.0.0.0.0.0.",
"0.0.0.0.0.0.0.0.0.0.0.0.0.8.0.0.0.0.0.T ~ ~ ~ ~ ~ r R ~ ~ ~ ~ v.W.{.|.E.] ~ ~ ~ ~ ~ ( t.0.0.0.0.0.0.0.0.0.0.0.0.0.0.0.0.0.0.0.0.",
"0.0.0.0.0.0.0.0.0.0.0.0.8.8.0.0.0.0.0.w.Q ~ ~ ~ ~ E ~ ~ ~ ~ ~ ~ ~ ( { { ( ~ ~ ~ ~ ~ Z O.#.9.0.0.0.0.0.0.0.0.0.0.0.0.0.0.0.0.0.0.",
"0.0.0.0.0.0.0.0.0.0.0.0.8.8.0.0.0.0.3.o.f Z Q Q Q ' W R R R R R R R R R R W Q Q Q Z  .: : #.9.0.0.0.0.0.0.0.0.0.0.0.0.0.0.0.0.0.",
"0.0.0.0.0.0.8.0.0.0.0.8.8.8.0.0.0.3.: : : : : : : @.O.g q w w w w w w w s @ ; : : : : : : : #.0.0.0.0.0.0.0.0.0.0.0.0.0.0.0.0.0.",
"0.0.0.0.0.0.8.8.0.0.8.8.8.0.0.0.3.: : : : : : : : +.> @   s e w w w w q   # : : : : : : : : : 5.0.0.0.0.0.0.0.0.0.0.0.0.0.0.0.0.",
"0.0.8.0.0.0.8.8.8.8.8.8.8.0.0.9.: : : : : : : : : , = @ @ @ F.R.R.[.}.D.@ # : : : : : : : : : : 5.0.0.0.0.0.0.0.0.0.0.0.0.0.0.0.",
"0.0.0.8.8.0.8.8.8.8.8.8.8.0.9.o.: : : : : : : : : < @.> @ @ q.OXOXOXOX4.@ @ ; : : : : : : : | #.3.0.0.0.0.0.0.0.0.0.0.0.0.0.0.0.",
"0.0.0.8.8.8.8.8.8.8.8.8.8.8.8.6.L f } : : : : : , 4 6 9 & # @ @XOXOX X@ @ $ , : : : : : O.( ~ H 0.0.0.0.0.0.0.0.0.0.0.0.0.0.0.0.",
"0.0.0.0.0.0.0.0.0.0.0.0.0.0.0.e.( ~ Z } : : : : - 5 5 6 < % @ Y.OXOXY.@ = @.p., : }  . .k ~ ~ ~ y.0.0.0.0.0.0.0.0.0.0.0.0.0.0.0.",
"0.0.0.0.0.0.0.0.0.0.0.0.0.0.0.J ~ ~ ( l f z O., 0 5 4 8 f., # q.OX Xq.$ +.f.f.+.| Z ( Q ! ~ ~ ~ T 0.0.0.0.0.0.0.0.8.8.0.0.0.0.0.",
"0.0.0.0.0.0.0.0.0.0.0.0.0.0.y.~ ~ ~ ~ ~ ~ ~ Q ..f.8 7 d.f.f.+.*  X].* @.f.f.f.f.z ~ ~ ~ ~ ~ ~ ~ ] 0.0.0.;.0.0.0.8.;.8.0.0.0.0.0.",
"0.0.0.0.0.0.0.0.0.0.0.0.0.0.P ~ ~ ~ ~ ~ ~ ~ C $.f.f.8 s.@.@.f.; U.I.; f.f.f.f.s.$.C ~ ~ ~ ~ ~ ~ ( u.0.0.:.8.0.8.:.:.8.0.0.0.0.0.",
"0.0.0.0.0.0.0.0.0.0.0.0.0.u.H ~ ~ ~ ~ ~ ~ Q %.f.f.f.f.f.@., @.f.$.g.f.f.f.f.a.7 s.%.Q ~ ~ ~ ~ ~ ~ U 0.0.8.8.8.8.;.:.8.0.0.0.0.0.",
"0.0.0.0.0.0.0.0.0.0.0.0.0.y./ ~ ~ ~ ~ ~ ~ L f.f.f.f.f.f.f.+., f.f.f.f.s.d.a.6 6 s.f.&.( ~ ~ ~ ~ ~ H i.0.8.8.8.8.8.8.8.0.0.0.0.0.",
"0.0.0.0.0.0.0.0.0.0.0.0.0.e.~ ~ ~ ~ ~ ~ ^ $.f.f.f.f.f.f.f.p., +.f.f.f.d.7 4 5 5 7 s.X.! ~ ~ ~ ~ ~ ] u.0.0.8.8.8.8.8.0.0.0.0.0.0.",
"0.0.0.0.0.0.0.0.0.0.0.0.0.r.~ R R R R E ~ k f.f.f.f.f.f.f.f.@.+.f.f.f.f.s.6 5 4 6 2 u ~ R y y R R ] :.8.8.8.8.8.8.8.0.0.0.0.0.0.",
"0.0.0.0.0.0.0.0.0.0.0.0.0.r.R t t t y R ~ y X.f.f.f.f.f.f.f.f.f.f.f.f.f.f.8 4 9 s.h R ~ E R R R R ] u.0.0.0.0.0.0.0.0.0.0.0.0.0.",
"0.0.0.0.0.0.0.0.0.0.0.0.0.r.( ~ ~ ~ ~ ~ ~ R j $ $ $ $ $ $ $ $ $ $ $ $ $ $ & - $ $ u ~ ~ ~ ~ ~ ~ ~ ] i.0.0.0.0.0.0.0.0.0.0.0.0.0.",
"0.0.0.0.0.0.0.0.0.0.0.0.0.y./ ~ ~ ~ ~ ~ ~ R d @ @ @ @ @ @ @ @ @ @ @ @ @ @ @ @ @ @ d ~ ~ ~ ~ ~ ~ ~ H 0.0.0.0.0.0.0.0.0.0.0.0.0.0.",
"0.0.0.0.0.0.0.0.0.0.0.0.0.u.H ~ ~ ~ ~ ~ ~ [ H.G.G.G.G.G.G.G.G.5.1.q.G.G.G.G.G.G.G.S.~ ~ ~ ~ ~ ~ ~ P 0.0.0.0.0.0.0.0.0.0.0.0.0.0.",
"0.0.0.0.0.0.0.0.0.0.0.0.0.i.T ~ ~ ~ ~ ~ ~ x._._._._._._._._._.J.0.^._._._._._._._.~.~ ~ ~ ~ ~ ~ _ i.0.0.0.0.0.0.0.0.0.0.0.0.0.0.",
"0.0.0.0.0.0.0.0.0.0.0.0.0.0.i.J ( ~ ~ ~ ~ m._._._._._._._._._.J.0.^._._._._._._._.).m.[ ~ ~ ~ ] r.0.0.0.0.0.0.0.0.0.0.0.0.0.0.0.",
"0.0.0.0.0.0.0.0.0.0.0.0.0.0.0.u.T U U T P !.(.(.(.(.(.(.(.(.(.J.0.^.(.(.(.(.(.(.(.(.~.T.r.r.r.y.0.0.0.0.0.0.0.0.0.0.0.0.0.0.0.0.",
"0.0.0.0.0.0.0.0.0.0.0.0.0.0.0.0.0.0.0.0.0././././././././././.A.0.P./././././././././.K.0.0.0.0.0.0.0.0.0.0.0.0.0.0.0.0.0.0.0.0.",
"0.0.0.0.0.0.0.0.0.0.0.0.0.0.0.0.0.0.0.0.0.L.L.L.L.L.L.L.L.L.L.A.0.K.L.L.L.L.L.L.L.L.L.H.0.0.0.0.0.0.0.0.0.0.0.0.0.0.0.0.0.0.0.0.",
"0.0.0.0.0.0.0.0.0.0.0.0.0.0.0.0.0.0.0.9.4.1 1 1 1 1 1 1 1 1 1 5.0.3.1 1 1 1 1 1 1 1 1 #.4.0.0.0.0.0.0.0.0.0.0.0.0.0.0.0.0.0.0.0.",
"0.0.0.0.0.0.0.0.0.0.0.0.0.0.0.0.0.0.0.4.1 1 1 1 1 1 1 1 1 1 1 5.0.3.1 1 1 1 1 1 1 1 1 1 1 7.0.0.0.0.0.0.0.0.0.0.0.0.0.0.0.0.0.0.",
"0.0.0.0.0.0.0.0.0.0.0.0.0.0.0.0.0.0.9.3.2.2.2.2.2.2.2.2.2.2.2.7.0.4.2.2.2.2.2.2.2.2.2.2.2.5.0.0.0.0.0.0.0.0.0.0.0.0.0.0.0.0.0.0."
};
