/* XPM */
static char *xpm_[] = {
/* columns rows colors chars-per-pixel */
"64 64 203 2 ",
"   c #7E6E3F",
".  c #6B747B",
"X  c #657B79",
"o  c #69797C",
"O  c #787D7B",
"+  c #8E643A",
"@  c #89693E",
"#  c #91663B",
"$  c #95693D",
"%  c #99693E",
"&  c #A2613D",
"*  c #946B42",
"=  c #9C6E40",
"-  c #9A724B",
";  c #987047",
":  c #9A7E57",
">  c #B66C45",
",  c #A37243",
"<  c #A97745",
"1  c #AB7946",
"2  c #AF7B48",
"3  c #A67C4D",
"4  c #B27D49",
"5  c #BF7048",
"6  c #A17952",
"7  c #A57F58",
"8  c #AA7E5C",
"9  c #A56E42",
"0  c #DD5C48",
"q  c #D75B47",
"w  c #E05848",
"e  c #C96E4A",
"r  c #DA634A",
"t  c #D7684B",
"y  c #CB7B4E",
"u  c #CF764D",
"i  c #D1724D",
"p  c #309F57",
"a  c #25A65B",
"s  c #3AA66A",
"d  c #2AB665",
"f  c #2AB966",
"g  c #2BBD69",
"h  c #38B96B",
"j  c #3BBA73",
"k  c #4E8C4E",
"l  c #59854A",
"z  c #79985B",
"x  c #748553",
"c  c #52AB5F",
"v  c #548D74",
"b  c #5B8C79",
"n  c #5F8579",
"m  c #4A9E73",
"M  c #549A79",
"N  c #459A6E",
"B  c #65837D",
"V  c #6C9079",
"C  c #5EAE62",
"Z  c #44BB6B",
"A  c #45B66A",
"S  c #55B668",
"D  c #4BA176",
"F  c #48AA77",
"G  c #44B97A",
"H  c #44B274",
"J  c #5CBB75",
"K  c #54BD73",
"L  c #52AC6D",
"P  c #63AA63",
"I  c #66B365",
"U  c #7CAA74",
"Y  c #64B577",
"T  c #6CB576",
"R  c #62B875",
"E  c #74B176",
"W  c #6FAC69",
"Q  c #2CC46C",
"!  c #2DC96F",
"~  c #33C86F",
"^  c #3AC66E",
"/  c #2ECC71",
"(  c #35C473",
")  c #3BC573",
"_  c #32CB72",
"`  c #3ACF79",
"'  c #3ACB75",
"]  c #41C26C",
"[  c #48C576",
"{  c #42D17E",
"}  c #988C53",
"|  c #8E9052",
" . c #A3834C",
".. c #AE814E",
"X. c #B7804B",
"o. c #BB844D",
"O. c #AA815E",
"+. c #AC8658",
"@. c #B58D52",
"#. c #A69757",
"$. c #A49858",
"%. c #B49357",
"&. c #9F8A64",
"*. c #8F9162",
"=. c #84887E",
"-. c #8B8C7D",
";. c #84867B",
":. c #938D7A",
">. c #9F9772",
",. c #9F9873",
"<. c #93927D",
"1. c #9A967B",
"2. c #9E997B",
"3. c #979F75",
"4. c #939C69",
"5. c #AA8461",
"6. c #A88A65",
"7. c #B58D6B",
"8. c #B88F6E",
"9. c #B28A67",
"0. c #A5926D",
"q. c #A9936D",
"w. c #A79067",
"e. c #A89672",
"r. c #A29A76",
"t. c #A89B75",
"y. c #A79F7B",
"u. c #A79976",
"i. c #BC9573",
"p. c #B7987A",
"a. c #BE966D",
"s. c #80AD78",
"d. c #8CA878",
"f. c #93A579",
"g. c #9BA279",
"h. c #A3A17B",
"j. c #ABA27E",
"k. c #C0874F",
"l. c #C9814F",
"z. c #C68650",
"x. c #C48A51",
"c. c #C88350",
"v. c #C4905A",
"b. c #CA9968",
"n. c #CC9F71",
"m. c #6E7880",
"M. c #717B83",
"N. c #7A8182",
"B. c #6B998A",
"V. c #5CA583",
"C. c #54AC80",
"Z. c #58A882",
"A. c #61A285",
"S. c #72BD86",
"D. c #52D589",
"F. c #5BD38D",
"G. c #6DDB9B",
"H. c #61D893",
"J. c #7BDFA6",
"K. c #77DEA2",
"L. c #818581",
"P. c #858880",
"I. c #9DBC8B",
"U. c #ADA480",
"Y. c #B0A582",
"T. c #B5A885",
"R. c #AFB38F",
"E. c #CCAB89",
"W. c #CBB695",
"Q. c #D4B595",
"!. c #D3BA9B",
"~. c #DBBB9B",
"^. c #C0AA94",
"/. c #C9B6A3",
"(. c #D0BFAF",
"). c #9AC994",
"_. c #A4C895",
"`. c #86CCA3",
"'. c #ADDEBE",
"]. c #81E0A9",
"[. c #95E5B7",
"{. c #D7C1A1",
"}. c #DDC4A5",
"|. c #D6C9BB",
" X c #E1C3A4",
".X c #E5C7A8",
"XX c #E4C9AA",
"oX c #EACCAE",
"OX c #ECCFB1",
"+X c #BBDFC9",
"@X c #A8E9C3",
"#X c #B3ECCB",
"$X c #B9EECF",
"%X c #E3D9D1",
"&X c #E9E2DC",
"*X c #DFEFE6",
"=X c #DEF7E9",
"-X c #F1EDE9",
";X c white",
":X c #FDFFFE",
">X c #FAFAFA",
",X c #F4FAF6",
"<X c #E5F2EA",
/* pixels */
"y.y.y.y.y.y.y.y.y.y.y.y.y.y.y.y.y.y.y.y.y.y.y.y.y.y.y.y.y.y.y.y.y.y.y.y.y.y.y.y.y.y.y.y.y.y.y.y.y.y.y.y.y.y.y.y.y.y.y.y.y.y.y.y.",
"y.y.y.y.y.y.y.y.y.y.y.y.y.y.y.y.y.y.y.y.y.y.y.y.y.y.y.y.y.y.y.y.y.y.y.y.y.y.y.y.y.y.y.y.y.y.y.y.y.y.y.y.y.y.y.y.y.y.y.y.y.y.y.y.",
"y.y.y.y.y.y.y.y.y.y.y.y.y.y.y.y.y.y.y.y.y.y.y.y.y.y.y.y.y.y.y.y.y.y.y.y.y.y.y.y.y.y.y.y.y.y.y.y.y.y.y.y.y.y.y.y.y.y.y.y.y.y.y.y.",
"y.y.y.y.y.y.y.y.y.y.y.y.y.y.y.y.y.y.y.y.y.y.y.y.y.y.y.y.y.y.y.y.y.y.y.y.y.y.y.y.y.y.y.y.y.y.y.y.y.y.y.y.y.y.y.y.y.y.y.y.y.y.y.y.",
"y.y.y.y.y.y.y.y.y.y.y.y.y.y.y.y.y.y.y.y.y.y.y.y.y.y.y.y.y.y.y.y.y.y.y.y.y.y.y.y.y.y.y.y.y.y.y.y.y.y.y.y.y.y.y.y.y.y.y.y.y.y.y.y.",
"y.y.y.y.y.y.y.y.y.y.y.y.y.y.y.y.y.y.y.y.y.y.y.y.y.r.y.y.y.y.y.y.y.y.y.r.y.y.y.y.r.,.y.y.y.y.y.y.y.y.y.y.y.y.y.y.y.y.y.y.y.y.y.y.",
"y.y.y.y.y.y.y.y.y.y.y.y.y.y.y.y.y.y.y.y.y.y.y.y.r.r.y.y.y.y.y.y.y.y.y.r.r.y.y.y.>.r.y.y.y.y.y.y.y.y.y.y.y.y.y.y.y.y.y.y.y.y.y.y.",
"y.y.y.y.y.y.y.y.y.y.y.y.y.y.y.y.y.y.y.y.y.y.y.y.,.r.y.y.y.y.y.y.y.y.y.r.,.y.y.,.,.r.y.y.y.y.y.y.y.y.y.y.y.y.y.y.y.y.y.y.y.y.y.y.",
"y.y.y.y.y.y.y.y.y.y.y.y.y.y.y.y.y.y.y.y.y.y.y.r.r.y.y.y.y.y.y.y.y.y.y.r.r.r.r.r.r.r.y.y.y.y.y.y.y.y.y.y.y.y.y.y.y.y.y.y.y.y.y.y.",
"y.y.y.y.y.y.y.y.y.y.y.y.y.y.y.y.y.y.r.r.y.y.r.r.r.y.y.y.y.y.y.y.y.y.y.r.r.r.r.r.r.r.y.y.y.y.y.y.y.y.y.y.y.y.y.y.y.y.y.y.y.y.y.y.",
"y.y.y.y.y.y.y.y.y.y.y.y.y.y.y.y.y.y.r.r.r.y.r.r.r.y.y.y.y.y.y.y.y.y.y.y.r.r.r.r.r.r.y.y.y.y.y.y.y.y.y.y.y.y.y.y.y.y.y.y.y.y.y.y.",
"y.y.y.y.y.y.y.y.y.y.y.y.y.y.r.r.y.y.r.r.r.r.r.r.r.y.y.y.y.y.y.<.<.-.-.<.2.r.r.r.r.r.y.y.y.y.y.y.y.y.y.y.y.y.y.y.y.y.y.y.y.y.y.y.",
"y.y.y.y.y.y.y.y.y.y.y.y.y.y.y.r.r.y.r.r.r.r.r.r.y.y.r.r.y.y.y.P.M.M.M.M.N.-.2.y.y.y.y.y.y.y.y.y.y.y.y.y.y.y.y.y.y.y.y.y.y.y.y.y.",
"y.y.y.y.y.y.y.y.y.y.y.y.y.y.y.y.y.y.y.y.2.<.-.-.=.=.=.P.P.-.<.<.M.M.M.M.M.M.L.1.y.y.y.y.y.y.y.y.y.y.y.y.y.y.y.y.y.y.y.y.y.y.y.y.",
"y.y.y.y.y.y.y.y.y.y.y.y.y.y.y.y.y.y.y.<.. . . . . . . m.M.M.M.M.M.M.M.M.M.M.M.N.2.y.y.y.y.y.y.y.y.y.y.y.y.y.y.y.y.y.y.y.y.r.y.y.",
"y.y.y.y.y.y.y.y.y.y.y.y.y.y.y.y.y.y.y.2.O . . . . . . . . . M.M.M.M.M.M.M.M.M.M.L.r.r.r.y.y.y.y.y.y.y.y.y.y.y.y.y.y.y.y.r.r.y.y.",
"y.y.y.y.y.y.y.y.y.y.y.y.y.y.y.y.<.<.<.<.O . . . . . . . . . . . m.M.o . m.M.M.M.M.N.N.L.y.y.y.y.y.y.y.y.y.y.y.y.y.y.y.y.,.y.y.y.",
"y.y.y.r.y.y.y.y.y.>.y.y.y.y.y.r.N.M.M.. . . . . . . . . . . . . . . . . . m.M.M.M.M.M.M.<.y.y.y.y.y.y.y.y.y.y.y.y.y.y.r.r.y.y.y.",
"y.y.y.y.>.y.y.y.,.>.y.y.y.y.y.2.M.M.o . . . . . . . . . . . . . . . . . . . . M.M.M.M.M.L.y.y.y.y.y.y.y.y.y.r.y.y.y.r.r.r.y.y.y.",
"y.y.y.y.,.r.y.r.,.,.y.y.y.y.y.2.M.M.. . . . . . . . . . . . . . . . . . . . . . M.M.M.M.M.r.y.y.y.y.y.y.y.y.r.r.y.r.r.r.r.y.y.y.",
"y.y.y.y.r.r.r.r.r.r.y.y.y.y.y.2.M.M.. . . . . . . . . . . . . . . . . . . . . . . M.M.M.M.-.y.y.y.y.r.y.y.r.r.r.r.r.r.r.y.y.y.y.",
"y.y.y.y.r.r.r.r.r.r.y.y.y.y.y.2.M.M.. . . . . . . . . . . . . . . . X v v X . . . . M.M.M.N.2.y.y.y.r.r.r.r.r.r.r.r.r.r.y.y.y.y.",
"y.y.y.y.r.r.r.r.r.r.y.y.y.y.y.2.M.M.. . . . . . . . . . . . X v s d d d d N . . . . . M.M.N.2.y.y.y.y.y.y.r.y.y.y.y.y.y.y.y.y.y.",
"y.y.r.r.r.r.r.r.r.r.y.y.y.y.y.2.M.M.. . . . . . . . . . . . N d d d d f f g B . . . . . m.-.y.y.y.y.y.y.y.y.y.y.y.y.y.y.y.y.y.y.",
"y.y.y.y.y.y.y.y.y.y.y.y.y.y.y.r.N.M.. . . . . . . . . . . X s d f g Q Q Q / F B o . . . . <.y.y.y.y.y.y.y.y.y.y.y.y.y.y.y.y.y.y.",
"y.y.y.y.y.y.y.y.y.y.y.y.y.y.y.y.L.M.. . . F M o . . o . . b ! / / / / / / / _ ( ( X . . . 1.y.y.y.y.y.y.y.y.y.y.y.y.y.y.y.y.y.y.",
"y.y.y.y.y.y.y.y.y.y.y.y.y.y.y.y.-.M.. . n / ( j D M j H M H / / / / / / / _ / / / D . . . 2.y.y.y.y.y.y.y.y.y.y.y.y.y.y.y.y.y.y.",
"y.y.y.y.y.y.y.y.y.y.y.y.y.y.y.y.1.M.. . D G B.A.V.V.C.( / / / / ( Z.V.V.A.B.( / / D . . . 2.y.y.y.y.y.y.y.y.y.y.y.y.y.y.y.y.y.y.",
"y.y.y.y.y.y.y.y.y.y.y.y.y.y.y.y.r.L.. . j ) C.V.A.A.V.G / / / / G A.A.A.V.C._ / / b . . . 1.y.y.y.y.y.y.y.y.y.y.y.y.y.y.y.y.y.y.",
"y.y.y.y.y.y.y.y.y.y.y.y.y.y.y.y.y.<.m.B ( / / / / / / / / / / / / / / / / / / / ( . . . . -.y.y.y.y.y.y.y.y.y.y.y.y.y.y.y.y.y.y.",
"y.y.y.y.y.y.y.y.y.y.y.y.y.y.y.y.y.y.M.b / / G.J.J.J.D./ / / / / _ G.J.J.J.D./ / j . . . . ;.y.y.y.y.y.y.y.y.y.y.y.y.y.y.y.y.y.y.",
"y.y.y.y.y.y.y.y.y.y.y.y.y.y.y.y.y.y.-.M / / @X:X:X:XG./ / / / / _ $X:X:X,XK./ / / b . . . ;.y.y.y.y.y.y.y.y.y.y.y.y.y.y.y.y.y.y.",
"y.y.y.y.y.y.y.y.y.y.y.y.y.y.y.y.y.y.y.Y / / ' [.#XK._ / / / / / / { [.#XG./ Q f ! ( o . . 1.y.y.y.y.y.y.y.y.y.y.y.y.y.y.y.y.y.y.",
"y.y.y.y.y.y.y.y.y.y.y.y.y.y.y.y.y.y.y.T / / / ' ` _ D.@X@X[.].G.H.{ ' ` _ / f f / / m . O y.y.y.y.y.y.y.y.y.y.y.y.y.y.y.y.y.y.y.",
"y.y.y.y.y.y.y.y.y.y.y.y.y.y.y.y.y.y.y.E / / / / / / L R.:X:X:X:X:X@X/ / / Q d Q / / ( V 2.y.y.y.y.y.y.y.y.y.y.y.y.y.y.y.y.y.y.y.",
"y.y.y.y.y.y.y.y.y.y.y.y.y.y.y.y.y.y.y.s./ / / / / / A :.>X:X:X=X$XH./ / ! f g / / / / R y.y.y.y.y.y.y.y.y.y.y.y.y.y.y.y.y.y.y.y.",
"y.y.y.y.y.y.y.y.y.y.y.y.y.r.y.y.h.t.q.4.( / / / / / { '.#XJ.` / / / / / Q f / / / / / U y.y.y.y.y.y.y.y.y.y.y.y.y.y.y.y.y.y.y.y.",
"y.y.y.y.y.y.y.y.y.y.y.y.r.r.y.y.w...4 ..I _ / / / / / / / / / / / / / / / / / / / / Z } +.t.y.y.y.y.y.y.y.y.y.y.y.y.y.y.y.y.y.y.",
"y.y.y.y.y.y.y.y.y.y.y.y.r.r.y.t...2 2 4 @.W I I C c g g g g g g g g g g A I C C C P } 2 2 +.t.y.y.y.y.y.y.y.y.y.y.y.y.y.y.y.y.y.",
"y.y.y.y.y.y.r.y.y.y.y.r.r.r.y...2 2 2 X.x.x.x.4 # +   l a a a a a p k   $ 4 2 2 2 2 2 2 2 2 2 q.y.y.y.y.y.y.y.y.y.y.y.y.y.y.y.y.",
"y.y.y.y.y.y.r.r.y.y.r.r.r.y.q.2 2 2 2 X.x.x.x.o., + + @ +X`.H H S.x @ + # , 2 2 2 2 2 2 2 2 2 ..w.y.y.y.y.y.y.y.y.y.y.y.y.y.y.y.",
"y.y.r.y.y.y.r.r.r.r.r.r.r.y.+.2 2 2 2 o.x.o.4 4 4 # + + %X>X<X*X&X- + + , o.2 2 2 2 2 2 2 2 2 2 6.y.y.y.y.y.y.y.y.y.y.y.y.y.y.y.",
"y.y.y.r.r.y.r.r.r.r.r.r.r.y.2 2 2 2 2 o.x.o.o.X.X.4 $ + /.>X>X>X^.+ % > y i 4 2 2 2 2 2 2 } C ~ d.y.y.y.y.y.y.y.y.y.y.y.y.y.y.y.",
"y.y.y.r.r.r.r.r.r.r.r.r.r.w.2 2 2 2 2 o.x.x.x.x.x.x.4 # p.-X>X-X* + 9 0 0 0 e 4 2 2 2 2 2 P / / [ h.y.y.y.y.y.y.y.y.y.y.y.y.y.y.",
"y.y.y.y.y.y.y.y.y.y.y.y.r.+.} z | } 2 o.x.x.x.x.x.x.x.1 - %X>X/.+ < k.l.r w 0 5 2 2 2  . .S / / / R h.y.y.y.y.y.y.y.y.y.y.y.y.y.",
"y.y.y.y.y.y.y.y.y.y.y.y.y.u.E / / S 2 o.x.x.x.x.x.x.x.x.$ (.>X5., x.x.x.t r i y 4 2  .P S ~ / / / ( s.y.y.y.y.y.y.r.r.y.y.y.y.y.",
"y.y.y.y.y.y.y.y.y.y.y.y.y.y.Y / / / Z #.x.x.x.i z.x.x.x.o.p.|.1 x.k.o.z.i c.x.x.o. .] / / / / / / / _ f.>.y.y.y.r.>.r.y.y.y.y.y.",
"y.y.y.y.y.y.y.y.y.y.y.y.y.y.J / / / _ $.x.x.z.t u x.x.x.x.b.a.x.x.X.o.x.z.x.x.x.x.@.[ / / / / / / / / J ,.r.y.r.,.,.r.y.y.y.y.y.",
"y.y.y.y.y.y.y.y.y.y.y.y.y.y.J / / / ^ #.x.x.y 0 0 t i l.x.x.x.x.4 X.x.x.x.x.x.x.x.x.g.J _ / / / ! Q g ~ U r.r.r.>.,.r.y.y.y.y.y.",
"y.y.y.y.y.y.y.y.y.y.y.y.y.f.h Q / / ] #.x.i 0 w w 0 i z.x.x.x.o.4 o.x.x.x.x.x.x.x.v.j.g.R / / Q f f Q / K r.r.r.r.r.r.y.y.y.y.y.",
"y.y.y.y.y.y.y.y.y.y.y.y.W d Q / ! / J %.x.y y r 0 y x.x.x.x.x.o.k.x.x.x.x.x.x.x.x.b.XXT.U / Q Q Q / / / ) 3.r.r.r.r.y.y.y.y.y.y.",
"y.y.y.y.y.y.y.y.y.y.y.y.h Q / / Q h I.3 , < < > q X.X.o.o.o.o.o.x.x.x.x.x.x.x.x.x.b.OX~.E ! / / / / / / _ d.r.r.r.r.y.y.y.y.y.y.",
"y.y.y.y.y.y.y.y.y.y.y.y.Z / / / ' ).E.* + + + # & + + # # $ $ $ % % = , , < 4 4 o.n.OX}.S.Q / / / / / / / d.y.y.y.y.y.y.y.y.y.y.",
"y.y.y.y.y.y.y.y.y.y.y.f._ / / ' _.OXE.9.5.7 6 - ; + + + + + + + + + + + + + + + + 9. X XI.g / / / / / / ( f.y.y.y.y.y.y.y.y.y.y.",
"y.y.y.y.y.y.y.y.y.y.y.T S P P R. X XOXOXOXOXOXOXOXOXoXQ.0.&.&.: : 7 7 6 6 - - * * i. X~.i.z A / / / / _ R y.y.y.y.y.y.y.y.y.y.y.",
"y.y.y.y.y.y.y.y.y.y.h.g.5.8 8 8.Q. X.XoXOXOXOXOXOXOXOX}.y.y.y.y.y.W.OXXXXX X X~.Q.~.~.i.8 8 *.) / ) K s.h.y.y.y.y.y.y.y.y.y.y.y.",
"y.y.y.y.y.y.y.y.y.y.y.y.e.O.8 8 i.~. X.XOXOXOXOXOXOXOX!.y.y.y.y.y.Y.}.OXOXOXOX.X X~.i.8 8 O.0.T R d.h.y.y.y.y.y.y.y.y.y.y.y.y.y.",
"y.y.y.y.y.y.y.y.y.y.y.y.y.u.5.8 8 9.~. X XOXOXOXOXOX{.U.y.y.y.y.y.y.j.}.OXOX X X~.7.8 8 O.e.y.y.y.y.y.y.y.y.y.y.y.y.y.y.y.y.y.y.",
"y.y.y.y.y.y.y.y.y.y.y.y.y.y.e.O.8 8 i.Q. X.XOXOXOX}.T.y.y.y.y.y.y.y.y.Y.!..X X~.i.8 8 O.q.y.y.y.y.y.y.y.y.y.y.y.y.y.y.y.y.y.y.y.",
"y.y.y.y.y.y.y.y.y.y.y.y.y.y.y.e.O.8 8 8.~. X XOXXXj.y.y.y.y.y.y.y.y.y.y.j.W.~.i.8 8 O.e.y.y.y.y.y.y.y.y.y.y.y.y.y.y.y.y.y.y.y.y.",
"y.y.y.y.y.y.y.y.y.y.y.y.y.y.y.y.0.O.8 8 7.~. X!.Y.y.y.y.y.y.y.y.y.y.y.y.y.j.7.8 8 O.e.y.y.y.y.y.y.y.y.y.y.y.y.y.y.y.y.y.y.y.y.y.",
"y.y.y.y.y.y.y.y.y.y.y.y.y.y.y.y.y.e.O.8 8 7.Q.j.y.y.y.y.y.y.y.y.y.y.y.y.y.y.8 8 O.e.y.y.y.y.y.y.y.y.y.y.y.y.y.y.y.y.y.y.y.y.y.y.",
"y.y.y.y.y.y.y.y.y.y.y.y.y.y.y.y.y.y.q.5.8 6.j.y.y.y.y.y.y.y.y.y.y.y.y.y.y.y.O.5.e.y.y.y.y.y.y.y.y.y.y.y.y.y.y.y.y.y.y.y.y.y.y.y.",
"y.y.y.y.y.y.y.y.y.y.y.y.y.y.y.y.y.y.y.q.5.u.y.y.y.y.y.y.y.y.y.y.y.y.y.y.y.y.0.e.y.y.y.y.y.y.y.y.y.y.y.y.y.y.y.y.y.y.y.y.y.y.y.y."
};
