/* XPM */
static char *xpm_[] = {
/* columns rows colors chars-per-pixel */
"64 64 195 2 ",
"   c #010100",
".  c #050902",
"X  c #0B0B04",
"o  c #0C0E08",
"O  c #070F08",
"+  c #110E09",
"@  c #110F07",
"#  c #0A1207",
"$  c #0D130B",
"%  c #13130C",
"&  c #18170E",
"*  c #14190E",
"=  c #1A180E",
"-  c #101106",
";  c #131412",
":  c #161C11",
">  c #1B1C12",
",  c #1C1C1D",
"<  c #211E14",
"1  c #162214",
"2  c #1C2316",
"3  c #1C2619",
"4  c #1D291B",
"5  c #232215",
"6  c #292417",
"7  c #24241A",
"8  c #29261B",
"9  c #242B1D",
"0  c #2B2B1D",
"q  c #312E1F",
"w  c #2B301E",
"e  c #26301E",
"r  c #30301E",
"t  c #1F1F21",
"y  c #201E21",
"u  c #222224",
"i  c #242E21",
"p  c #2C2E21",
"a  c #272729",
"s  c #2B2C2C",
"d  c #312E21",
"f  c #302D2C",
"g  c #263122",
"h  c #2B3424",
"j  c #2D3826",
"k  c #2C352A",
"l  c #2D3A29",
"z  c #333425",
"x  c #393526",
"c  c #333927",
"v  c #393A27",
"b  c #343629",
"n  c #393629",
"m  c #343B2A",
"M  c #3B3C2C",
"N  c #343534",
"B  c #353D32",
"V  c #3B3D33",
"C  c #3D3D3D",
"Z  c #373638",
"A  c #413D2D",
"S  c #403F30",
"D  c #34412E",
"F  c #3C402F",
"G  c #354431",
"H  c #3C4332",
"J  c #3B4935",
"K  c #3D4139",
"L  c #3E4C3A",
"P  c #374A36",
"I  c #3F5039",
"U  c #42402F",
"Y  c #434432",
"T  c #4A4433",
"R  c #434936",
"E  c #494935",
"W  c #44423A",
"Q  c #444B3B",
"!  c #4A493B",
"~  c #43513C",
"^  c #51503E",
"/  c #514937",
"(  c #444444",
")  c #494741",
"_  c #464B46",
"`  c #4C4C45",
"'  c #474748",
"]  c #4C4C4C",
"[  c #484948",
"{  c #4E544B",
"}  c #4D5546",
"|  c #545246",
" . c #54544B",
".. c #5A554B",
"X. c #525A4C",
"o. c #5B5C4E",
"O. c #585347",
"+. c #4F4F50",
"@. c #504F50",
"#. c #4F5250",
"$. c #535353",
"%. c #555F51",
"&. c #5B5C54",
"*. c #575758",
"=. c #5B5B5B",
"-. c #585757",
";. c #564F44",
":. c #605D4F",
">. c #615F57",
",. c #576050",
"<. c #596455",
"1. c #5F625B",
"2. c #646355",
"3. c #62635E",
"4. c #626A5D",
"5. c #6E6A5D",
"6. c #5F5F61",
"7. c #605F60",
"8. c #646464",
"9. c #636B61",
"0. c #6B6C65",
"q. c #676768",
"w. c #6C6C6C",
"e. c #686668",
"r. c #736F66",
"t. c #6D716C",
"y. c #697465",
"u. c #72736D",
"i. c #6F6F70",
"p. c #706F70",
"a. c #737373",
"s. c #797772",
"d. c #767974",
"f. c #7B7A75",
"g. c #777778",
"h. c #7C7C7B",
"j. c #787778",
"k. c #827F7A",
"l. c #7E817B",
"z. c #83827D",
"x. c #88857F",
"c. c #87897F",
"v. c #7F7F80",
"b. c #7F8081",
"n. c #838383",
"m. c #898682",
"M. c #868A85",
"N. c #8C8B85",
"B. c #878788",
"V. c #888789",
"C. c #8C8C8C",
"Z. c #918F89",
"A. c #8E928C",
"S. c #92928D",
"D. c #98968F",
"F. c #8F8F90",
"G. c #8F9091",
"H. c #929292",
"J. c #999793",
"K. c #959993",
"L. c #9A9B96",
"P. c #979798",
"I. c #9C9C9C",
"U. c #A09F9B",
"Y. c #A09D96",
"T. c #9EA29C",
"R. c #A3A39D",
"E. c #A8A69F",
"W. c #9F9FA0",
"Q. c #A09FA0",
"!. c #A3A3A3",
"~. c #A8A7A4",
"^. c #A5AAA2",
"/. c #ABABA5",
"(. c #A7A7A8",
"). c #ABABAB",
"_. c #ACB2AB",
"`. c #B1B2AC",
"'. c #AFAFB0",
"]. c #B0AFB0",
"[. c #AFB0B1",
"{. c #B3B2B3",
"}. c #BCBCBC",
"|. c #BFBFC0",
" X c #C0BFC1",
".X c #C4C4C5",
"XX c #C7C7C8",
"oX c #CACACA",
"OX c #C8C8C5",
"+X c #D6D4CF",
"@X c #D2D2D2",
"#X c #DFDEDF",
"$X c #E5E5E7",
"%X c #F7F7F8",
"&X c #FDFDFE",
/* pixels */
").!.(.| { d.d.a.w.4.H n.q.H.H.q.P.0 U T T T m m m k 2   3.q.*.' 9.3.=.u   P.*.*.$.( $.7   oXq.n.n.C.C.H.a.8.-.U.s w.!.(.).).).).",
"$     5 * # # 3 m g . n.8.H.H.8.!.X Y U U h m m m m H U M M M M z z m h   P.$.] [ ( &.2   oXq.n.n.C.H.H.h.q.-.!.* 9 # # # # # $ ",
"H . &XXXoX).!.X.z M h R.8.h.h.q.!.X T Y z /./._.^.X.G M Y M Y M M F Y j   XXB.I.=.-.{ m   oXw.a.n.B.n.w.w.8.*.I.&   K.S.C.n.M.{ ",
"M   oXq.q.=.*.` z M n B.8.q.w.$.!.. H M ^ *.q.q.$.(.i M o $ $ 7 M M 9 : l 1 3 4 g g j l   XX8.q.w.w.8.=.-.$.] B.>   {.=.8.=.] A.",
"H X oXw.n.a.*.4.9 M M p.*.-.=.] I.  H m v oXq.q.-.W.K F ( C.B.C.}.9.y.u.y._.K.A.n._ j h . ].=.8.8.8.=.-.$.' ( h.. . '.q.q.8.$.K.",
"V X oXa.H.h.] 0.i M h a.(.(.a.C C.  m M 0 .Xw.q.-.W.W M /.=.q.q.8.w.w.q.8.=.$.] ( q.g 4   {.*.*.*.$.$.] [ [ ' B.    }.w.n.h.$.K.",
"S X oXh.H.h.] n.9 m m 9 X   N.h.} 9 z M 0 }.a.a.-.!.B M ~.8.w.w.a.a.a.a.a.8.-.*.[ t.g ;   XXP.P.P.!.(.(.@X*.f.B.    oXh.C.n.$.z.",
"m . oXh.H.a.] (.5 p 0 b M H m m m m 9 U r }.a.a.=.P.k M ~.8.w.n.B.C.H.H.B.h.8.*.' a.i k % . X             o X 7 & @ XXh.H.n.$.M.",
"M X oXh.H.w.] !.> > x.5 9 3 3 $ _ K.u X 8 }.h.h.=.P.l 9 T.8.w.n.H.H.H.H.B.h.8.$.( t.i M z z z o + % < & = & > ; z 8 XXn.H.h.$.S.",
"M X oXq.a.w.-.(.    %XXXXXXXoXoXXX] (.f.  }.B.n.8.I.l i T.8.q.8.w.w.w.w.a.q.$.] ( t.i H I./.!.C.` 8 H.XXXXoX{.P.z.X XXn.H.a.$.N.",
"M X XX8.8.8.] H.    oXq.w.h.n.n.a.8.*.(.  }.C.C.8.M.l i !.-.-.=.8.8.8.8.=.-.[ ' C w.i <.=.8.8.[ m.q /.8.q.q.8.] m.- XXh.h.8.$.N.",
"m X (.$.$.$.' !.    oXa.C.P.H.H.h.=.-.(.  }.F.C.8.t.m i M.' ] ] [ [ [ ' ' [ ( ( Z t.g L p.w.q.*.z.0 !.w.B.n.8.$.z.% (.8.8.=.] t.",
"M < N.m.m.x.=.X.$   @Xa.P.P.H.n.a.=.$.(.  }.B.C.8.t.G g { u.f.f.z.z.z.z.x.;.o.o.2.Z $ 4 w.q.8.=.l.d U.w.H.H.a.$.l.> 8.$.-.$.' =.",
"M M h m m j m m M * XXq.q.h.a.q.8.*.[ H.  .Xh.n.8.).y h h + J m z z H J J L H G G m h <.-.*.*.' u.z U.q.C.C.a.$.n.% =.h.W ) > &.",
"n b g 9 h c m m M h m.*.$.$.] ] ] ] C n.  .Xa.h.8.).u F H   1 9 i i l I G l : 8 x i . Z h.XX!.B.u.z J.=.n.C.8.[ a.. .   .   .   ",
"&.o./.T.h.j.q.5 M A z.P..X=.8.z.k.k.u.q.  .Xa.a.8.(.t E M OX(.}./.A.W z g _.N                     b x.=.8.q.8.[ 8.=. .J.F.H.P.z.",
"q.w.8.8.=.*.P.&.U Y m 1 7 U A M M M M z 5 }.w.a.-.P.u E U R.=.8.=.] N.z m a..XoXoXoXoXoXXX{.(.P.I.: } $.+.*.] C =.!.a.h.h.w.w.a.",
"!.P.h.w.8.=.[ f.z M M j H E Y H G T A U 6  Xq.8.$.H., E U n.w.n.n.*.f.z H T.8.q.q.q.q.q.8.8.=.[ H.  L d.H.` ) w.[ }.a.h.h.C.!.I.",
"P.P.n.n.8.=.$.2.p 0 g B k * $ $ * O 5 M z |.8.*.] C.; E U h.a.H.H.*.w.z H T.8.w.a.a.h.h.h.q.8.$.!.o G l D p p 2 ( XXq.q.h.n.P.I.",
"8.8.q.q.-.*.) 2.6 N.oXXXXXoXoX.X}.H.a.h M W.] a.P.}.  E 8 %X8.n.n.$.w.M z P.q.h.h.n.h.B.B.a.8.$.I.i G m b p p m H %.=.-.8.8.8.8.",
"C.C.' [ ] ' ) O.5 !.q.q.a.a.a.q.=.' v.M 9 oXXXC.; % d E q {.8.8.8.[ f.M z H.a.a.h.n.B.n.B.n.8.$.I.h D G b p h l > y.P.H.P.H.H.H.",
"  ( n.C.H.w.z.z < oXq.q.n.C.P.C.-.' h.M H $ 0 z x n A A  .P.$.-.*.( f.M & {.a.a.h.n.B.B.B.h.q.$.Q.9 l G G l D i o   + g g       ",
".X}.{.s ;   > U X oXh.n.H.I.I.n.=.( a.M E T T T T T Y T C z.r...O.:.V M > }.w.h.h.n.n.n.n.h.8.$.P.4 l $.H.).}.}..XC.b m G Z I.}.",
"8.8.H.{.P..X- T & XXh.C.P.I.I.n.-.C._ M T T T T Y Y H H M n n M M M b M > }.8.a.a.a.h.h.a.q.8.*.P.: h T.8.8.8.8.=.$.).h m C.=.8.",
"a.a.w.-.] F.> T & oXh.H.P.I.I.a.-.H.o M T T T T Y U z M M M M M F M Y M & }.8.q.w.w.q.q.w.w.=.$.P.2 b n.w.w.a.h.8.-.R.h m C.q.w.",
"C.C.h.-.$.H.> T : }.a.n.n.B.h.w.-.H.  G T Y n n W s ,     X *       ; X X ).=.8.=.=.=.=.=.=.$.' n.B N }.8.a.B.B.h.*.).p m J.8.a.",
"I.I.C.8.] C.> T 1 {.=.8.8.8.a.8.*.n.: G Y T 7 +X.XXXXXXXoXoXoXoXXX).P.oX  C.$.*.*.*.*.$.$.{ ] ' Z w., {.a.K.I.P.a.-.{.0 m J.8.B.",
"P.I.C.8.$.B.> E m !.-.-.-.=.=.*.' P.: b M Y a .X8.a.a.a.a.a.a.a.w.8.$.B.2 3.I.P.P.P.P.P.H.C.C.h.g.*.$.oXn.P.I.C.a.*.{.m m J.8.C.",
"I.I.B.8.] n.* E m C.] $.*.-.-.$.( w.z T M U a XXa.h.h.n.n.n.n.n.h.a.=.!.9 p 9 9 h h 0 8 8 8 8 6 0 9 ^.8.B.P.I.C.a.*.).m j U.8.H.",
"C.n.a.$.' a.: T v {.C.G.w.[ [ ( N #.M Y M M a }.q.a.w.h.h.h.a.a.w.8.*.!.g H H n b $ e 9 8 0 0 8 z x J.w.n.C.R.C.8.-.I.M > oXa.C.",
"a.w.*.#.' n.p R R w x > | 0.z.f.' t.z U Y x a }.8.8.8.8.8.8.8.8.=.-.$.C.j G J b   &XXXXX X{.!.C.x.z L.8.h.h.H.B.8.-.{.6 f.C.w.a.",
"8.$.$.( Z a.0 H R T U H A A M M n h Y U z d   I.[ ] ] ] ] ] ] ] [ ' C u.9 G G H 7 XX8.a.q.8.-.[ C.z `.8.w.w.n.n.8.-.W.5 /.{ -.8.",
"' P.H.n.C.H.0 H R ~ H E T / T J Q Q T Y z d > i.B.H.H.H.H.H.H.H.n.n.q.V 0 M H H 7 XXa.a.a.8.-.[ m.x 5.8.8.=.8.8.*.( n.5 3.$.] [ ",
"M. .c m z z M z F H R E m z ).0.& % & X 6 5 6           $ 7 p 0 p 9 7 : H H H J 9 XXw.n.h.w.=.[ m.z :.{.).).).(.(.I.I.5 >.N.N.n.",
"H H F F z c n V z. .H P Y p }..XoXoXoXoXXXXXXXoXoX}.!.n.2 M n z z z b J H H h J 9 XXa.n.h.a.=.] m.z M 6 z z d M ! ! b 6 8 0 z m ",
"p ..~.{.{./.$XI.8.z.H L H Q .Xq.q.a.a.a.a.n.n.h.h.8.[ C.z n 0 H.I.f...&.P.a.Z G $ oXa.b.h.h.=.] x.M E !.I.I.R.R././.!.`.~.S.p R ",
"M B.=.8.8.8.8.-.] m.F ~ Y n XXq.n.n.n.H.H.C.H.h.n.8.] n.z b 9 XX8.q.w.w.8.$.I.D j XXa.n.h.h.8.] m.M c.8.8.8.8.8.8.8.q.q.*.(.m R ",
"M C.q.w.w.w.8.-.] B.U R Y b XXq.n.h.n.C.C.C.H.n.n.q.] a.b b 8 XXa.a.h.h.h.-.#X3 h XXa.h.h.h.=.] m.m /.8.w.w.w.w.w.w.w.p.8.Q.H R ",
"A C.q.n.B.B.h.-.] N.x E R b {.8.w.w.w.a.a.8.8.8.*.*.-.q.p n 8 XXa.n.n.n.n.7.(.m h XXw.a.a.w.=.] N.n /.q.w.w.a.a.w.w.w.w.8.!.f E ",
"A n.a.H.P.C.n.-.] N.x E Y z XXw.] ] ] [ ] ( C B.b.P.u.| p h   oXa.n.n.n.n.=.W.V h .X-.8.8.=.$.' f.v l.w.w.a.h.n.h.a.w.w.=.!.7 T ",
"  &Xw.I.I.P.n.-.] N.x E Y H 5 T.A.C.D.Z.S.S.D.0 0 6 5 < 8 X P.G.a.h.h.h.h.=.!.V h .X$.=.*.*.{ K s.M <.i.w.h.n.n.n.n.a.q.=.!.& Y ",
"  XXa.P.I.I.w.-.] I.d Y E Y H M Y H A M x 8 5 x M M n h z . XX-.8.q.w.q.8.] L.* m =.] ] ] ] ] Z u.M 4.w.w.h.k.n.B.b.h.q.=.).: R ",
"X oXa.P.I.I.w.-.] !.n Y Y Y Y Y H H H m I.}.$X/.`.`.`.h.d   h.$.$.$.$.$.*.] !.9 m 0.M.A.M.V.H.w.6.M /.8.w.h.n.n.B.n.n.8.=.).* H ",
"e XXa.H.P.P.w.*.[ I.z Y M E Y R Q ~ L G /.=.8.8.8.8.=. .M & R.^.~.^.).^.L.K.C.g Y n h h m m m g 4 d /.8.w.h.n.n.B.b.h.8.-.J.9 R ",
"g XXq.h.n.n.8.$.' H.F G h h j h h l M h u.XXq.w.w.w.8.$.M p 7 l l m 3 3 3 3 3 i h m h z e h h K.( 0 &.i.w.a.h.n.h.n.h.8.=.u.m J ",
"g }.8.8.8.=.-.] C n.h j l K B ^.C.L.Q M h XXh.n.n.n.=.&.z H 9 M.<.%.^.T.T.T.R.!._._.OXl.oXXXoXa.n.9 ..i.w.w.a.f.h.h.w.q.=.w.m H ",
"h {.=.=.-.=.$.[ C n.4 K.{.XXXXF.=.[ ..b 3 XXn.H.H.B.-.(.8 M n XXw.w.8.8.8.q.q.w.a.a.a.a.w.q.8.-.Q.9 ..i.w.w.w.w.w.w.w.q.*.!.h R ",
"7 (.$.$.*.] [ ' Z d.: ).7.i.a.a.q.( B.z 9 XXn.C.C.B.$.@X8 H H XXw.a.a.a.h.n.M.B.B.B.B.n.h.w.q.-.(.9 ..a.w.w.a.a.a.a.a.q.*.P.h H ",
"h H.w.I.3.L.h.B.u./.* }.8.n.n.B.a.] h.z V .Xh.H.F.B.$.F.z H M XXq.a.h.n.B.B.B.B.n.h.h.a.a.a.q.-.(.7 ..8.=.=.-.$.$.$.$.=.] |.g R ",
"0 a.h.b b c m m n z 9 }.8.n.C.C.C.] f.z V .Xh.h.h.h.@.H.z Y 0 |.q.w.w.h.h.a.a.q.8.8.8.8.8.8.-.] I.8 Y ).P.I.I.I.I.I.I.(.L.,.z H ",
"H m m H M n m 8 5 % : }.8.B.C.Z.C.#.h.z N .Xw.a.a.8.] n.z Y   ).=.*.$.$.$.$.] [ [ ] $.] {.).{.}.V.0 p s Q K K K m m m m m p m H ",
"H Y H H ! 2.R.~.I.L.1 }.8.B.H.C.a.-.S.z 3 C.$.$.$.$.( }.0 H u.J.K.h.a.h.n.A.h.m.a.i.K.4.B 1 1 : 1 9 9 m l m l D m H H F H Y R H ",
"H H M M R.q.8.q.*.w.1 |.8.h.h.h.8.$.n.4 m ..s.!.!.!.h.&.z Y z p n n M m z p z d n z p p 9 u.T.T.T.T.T.^.^.L.T.z.h.- Y M M M F H ",
"m H H M L.8.a.h.8.0.2 L.] -.-.-.-.@.M.h F n n c M z z M H Y n n n n h 5 z p p 0 0 d p z 2 .X=.8.8.8.q.w.w.q.*.[ P.5 M M m M M H ",
"F H H M E.8.P.H.h.h.: A.(.<.1.9.w.w.n.j H F 0 0 0 5 > 5 5 . _ I.S.f.h.$X# L.T.L.Z.3.W 0 8 {.w.n.n.B.B.B.n.h.8.] B.6 M A b V M F ",
"m m m M ^.a.H.B.q.!.7 g h D D D m n D H n ,.oXXXXXXXXXXXXXoXoX-.-.] [ (.  !.8.q.8.$.1.8 8 /.h.h.C.C.H.H.C.n.8.] B.q A A A M M m ",
"n z d A /.a.H.B.w.I.7 9 g h h j c M M M M <.w.q.q.q.a.a.a.q.w.8.=.-.] I.  oXq.w.8.*.z.5 8 S.q.a.C.C.n.a.8.8.$.[ n.> M A Y Y A M ",
"< > 8 M o.v.H.B.h.C.3 !.XXXXXX).S.< z m z ^.8.w.n.n.n.B.B.n.a.a.=.-.] P.  oXw.n.h.$.P.0 0 U.B.8.-.=.-.-.-.$.[ S n.    8 8 0 6 0 ",
"~.[.m.T ..h.H.B.n.C.h ^.8.q.w.*.!.0 M H z L.e.w.n.z.n.C.C.H.C.a.a.*.] P.  oXa.H.F.$.P.2 b   (.$.] ] ] ] ] ' C Z {.w.@Xf.z.z.S.z.",
"j.-. .T &.a.h.h.a.w.h ^.8.n.h.*.P.8 M M 8 }.8.q.a.n.n.C.H.C.H.a.a.-.] P.  oXa.H.C.$.I.5 M p 1.h.h.h.h.h.d.=.6.h.s B.8.w.j.a.a.a.",
"n.=. .T /.8.h.n.q.X.m /.8.n.h.=.P.8 M M 5 f.q.q.8.8.a.h.n.B.n.a.8.-.] P.  oXa.H.C.$.3.8 z 2 : : > : : : : : : : * n.8.n.B.B.C.H.",
"B.=.-.T E.q.w.q.8.1.D ,.g.H.H.q.P.5 M H > a.=.=.8.8.8.8.8.8.8.=.=.=.] P.  oXa.B.C.*.8.:  .I.h.l.l.l.l.l.z.d.q.t.8.n.8.h.H.S.C.H.",
"w.] $.T Y.-.8.8.=.3.h X.a.H.H.8.H.0 M F 0  .h.F.' $.*.*.=.=.=.-.$.$.' H.  .Xa.h.8.] 1.: B.F.w.w.w.h.a.w.8.8.-.$.h.n.q.a.C.B.n.n.",
"=.' ] T x.I.$.*.$.3.H X.a.H.H.q.H.z M F M M g Q f.w.h.h.8.] $.[ ] [ Z H.  ).8.8.-.[ &.7   oXq.w.h.n.B.n.a.8.-.$.h.a.-.=.-.-.-.-."
};
