/* XPM */
static char *dad15fcbf70e4c83825783c1c131521d[] = {
/* columns rows colors chars-per-pixel */
"64 64 205 2 ",
"   c #A79F7B",
".  c #A49D78",
"X  c #A39B77",
"o  c #9F9873",
"O  c #A49C77",
"+  c #A09874",
"@  c #A59D79",
"#  c #9F9772",
"$  c #A19975",
"%  c #A69E7A",
"&  c #A29A76",
"*  c #9E9672",
"=  c #B4A186",
"-  c #D6ABA8",
";  c #E8B1B9",
":  c #F4B5C4",
">  c #F6B5C6",
",  c #F2B4C3",
"<  c #E7B1B8",
"1  c #D4ACA6",
"2  c #B3A386",
"3  c #ABA07F",
"4  c #C7A899",
"5  c #E1AFB2",
"6  c #EEB3BF",
"7  c #EDB3BE",
"8  c #DFAFB1",
"9  c #C3A795",
"0  c #A9A07D",
"q  c #CDA99F",
"w  c #F0B4C1",
"e  c #FFB8CF",
"r  c #FEB5CD",
"t  c #FDB4CB",
"y  c #FEB6CD",
"u  c #C8A99B",
"i  c #B5A388",
"p  c #E2B0B4",
"a  c #FCB7CC",
"s  c #F8B6C9",
"d  c #DFAFB0",
"f  c #AFA183",
"g  c #B5A289",
"h  c #F3B4C3",
"j  c #FEB7CE",
"k  c #F9ACC4",
"l  c #F5A4BE",
"z  c #F29EB9",
"x  c #F19CB7",
"c  c #F5A3BD",
"v  c #F8ABC4",
"b  c #F1B4C1",
"n  c #C1A794",
"m  c #AFA182",
"M  c #FEB8CE",
"N  c #F8AAC3",
"B  c #F4A3BD",
"V  c #F29FB9",
"C  c #FBB7CB",
"Z  c #DAAEAC",
"A  c #D2ABA4",
"S  c #FDB5CC",
"D  c #F6A6C0",
"F  c #F19DB8",
"G  c #F5A5BF",
"H  c #E3B0B4",
"J  c #AEA181",
"K  c #CDAA9F",
"L  c #FAB7CA",
"P  c #FBAFC8",
"I  c #F4A2BC",
"U  c #FCB2CA",
"Y  c #F3B5C3",
"T  c #BFA692",
"R  c #B1A284",
"E  c #ECB3BD",
"W  c #F7A9C2",
"Q  c #F4B5C5",
"!  c #B3A387",
"~  c #DCAEAD",
"^  c #F4A2BD",
"/  c #EC99B4",
"(  c #E294AE",
")  c #E294AD",
"_  c #E596B0",
"`  c #C3A495",
"'  c #F3A1BB",
"]  c #F7A8C2",
"[  c #F09BB6",
"{  c #DF93AC",
"}  c #DE92AB",
"|  c #E897B1",
" . c #F9ADC6",
".. c #DFADB0",
"X. c #A89D7B",
"o. c #E9B2BA",
"O. c #FBB1C9",
"+. c #EB99B3",
"@. c #E495AF",
"#. c #F7A8C1",
"$. c #EAB2BB",
"%. c #BBA58E",
"&. c #FCB3CB",
"*. c #F29EB8",
"=. c #D88DA5",
"-. c #BA7D90",
";. c #B77B8E",
":. c #B97C90",
">. c #D48BA2",
",. c #E998B2",
"<. c #D4ACA5",
"1. c #D8ADA9",
"2. c #DC90A8",
"3. c #DD91A9",
"4. c #E093AD",
"5. c #E093AC",
"6. c #DF92AC",
"7. c #E696B0",
"8. c #F09CB7",
"9. c #F3A0BA",
"0. c #FBB5CA",
"q. c #DEA8AD",
"w. c #C58398",
"e. c #C38296",
"r. c #EA98B2",
"t. c #F6A6BF",
"y. c #C0A593",
"u. c #DCA0A8",
"i. c #BE7F92",
"p. c #C18195",
"a. c #D0A7A1",
"s. c #D79DA2",
"d. c #CB869C",
"f. c #D2A2A0",
"g. c #C19E90",
"h. c #EC99B3",
"j. c #C68399",
"k. c #ED9AB4",
"l. c #E596AF",
"z. c #CB9E98",
"x. c #A99F7D",
"c. c #E89CB0",
"v. c #EE9AB5",
"b. c #DA8FA7",
"n. c #DF92AA",
"m. c #EF9BB6",
"M. c #E193AC",
"N. c #B69E87",
"B. c #BA9E8B",
"V. c #F09CB6",
"C. c #E998B1",
"Z. c #E29DAB",
"A. c #A89F7C",
"S. c #C19E8F",
"D. c #D99CA3",
"F. c #B89C88",
"G. c #B39C84",
"H. c #B69C86",
"J. c #D79CA1",
"K. c #EC9CB3",
"L. c #AE9F81",
"P. c #BF9E8F",
"I. c #EB9CB3",
"U. c #B99E89",
"Y. c #BA9E8A",
"T. c #E79CAF",
"R. c #EF9CB6",
"E. c #C59D93",
"W. c #A89E7B",
"Q. c #E49DAC",
"!. c #B19F83",
"~. c #B29E84",
"^. c #E69CAE",
"/. c #C89E96",
"(. c #B99E8A",
"). c #C69E94",
"_. c #D09E9C",
"`. c #BF9E8E",
"'. c #AA9E7D",
"]. c #B69D87",
"[. c #E79CAE",
"{. c #D09D9C",
"}. c #AB9F7E",
"|. c #EF9CB5",
" X c #EA9CB2",
".X c #BE9E8E",
"XX c #A79E7B",
"oX c #C79D95",
"OX c #ED9CB3",
"+X c #E09DA9",
"@X c #B49E85",
"#X c #AE9F80",
"$X c #C49E93",
"%X c #C79E95",
"&X c #BC9E8C",
"*X c #AA9F7D",
"=X c #AD9F80",
"-X c #C49E92",
";X c #E59CAD",
":X c #D69DA1",
">X c #B79E88",
",X c #B39F85",
"<X c #C09E8F",
"1X c #CE9D9A",
"2X c #C99E97",
/* pixels */
"                                                                                                                                ",
"                                                                                                                                ",
"                                                                                                                                ",
"                                                                                                                                ",
"                                                                                  .                                             ",
"                                                  X                   X         X o                                             ",
"                                                O +                   + O     @ # +                                             ",
"                                              @ o X                   $ o @ @ o o $                                             ",
"                                    @       % $ + .                   O + + + + + &                                             ",
"                                  % $ O     X $ $ @                   O $ $ $ $ $ &                                             ",
"                            @     @ & & X . & & &               % . @ @ & & & & & X                                             ",
"                            X O % @ X X X X X X O                 X X X X X X X X O                                             ",
"                            . O O . O O O O O O . % @ @           % . . . . . . . . @ . @                                       ",
"                        %   @ . . . . . . . . . . . . %             @ @ @ @ @ @ @ @ @ @ %                                       ",
"                        % @ @ @ @ @ @ @ @ @ @ @ @ @ @               % % % % % % % % % %                                   X     ",
"                        % @ @ @ @ @ @ @ @ @ @ @ @ @ %                                                                   & X     ",
"                  . .                                                                                                 . o .     ",
"      X .       . * .                                                                                     % %       @ + + %     ",
"      . # %   % o # .                                                                                     . $ @   % & $ $       ",
"      @ o + @ + o o .                                                                             % @     . & & . X & & X       ",
"        + + + + + + @                                                                             % X .   O X X X X X X .       ",
"        $ $ $ $ $ $ @                                                                               O O O O O O O O O O @ % . % ",
"  . . @ X X X X X X @                                                                           %   . . . . . . . . . . . . .   ",
"  % O O O O O O O O %   % %                                                                     @ @ @ @ @ @ @ @ @ @ @ @ @ @ %   ",
"    @ . . . . . . . . . .                                                                       % @ @ @ @ @ @ @ @ @ @ @ @ @     ",
"    % @ @ @ @ @ @ @ @ @ @                                                                                                       ",
"      % % % % % % % % % %                                                                                                       ",
"                                                                                                                                ",
"                                                                                                                                ",
"                                                                                                                                ",
"                                                                                                                                ",
"                                                                                X                                               ",
"                                                                    & %       X *                                               ",
"                                                                    X +     @ # #                                               ",
"                                                                    O o & @ o o o                                               ",
"                          % @                                       @ + + + + + +                                               ",
"                          $                                         @ $ $ $ $ $ $                                               ",
"                        O +                                     O . @ X X X X X X                                               ",
"                      @ + &                                     @ O O O O O O O O     %                                         ",
"            X @     % $ $ O                                       . . . . . . . . . . .                                         ",
"            $ $ .   & $ $ @                                       % @ @ @ @ @ @ @ @ @ %                                         ",
"    X .     & & & & & & & %                                         % % % % % % % % %                                           ",
"    . X X . X X X X X X X     @                                                                                                 ",
"    @ O O O O O O O O O = - ; : > > > , < 1 2                                 3 4 5 6 > > > > 7 8 9 0                           ",
"% @ % . . . . . . % q w e e e r t t t y e e e 6 u                         i p a e e e e e e e e e e s d f           .           ",
"  @ @ @ @ @ @ @ g h e j k l z x x x x x z c v j e b n                 m 5 M e t N B z x x x x V c v r e C Z 3     + &           ",
"              A a S D F x x x x x x x x x x x F G S e H J           K L e P I x x x x x x x x x x x x B U e Y T X # X           ",
"          R E e k z x x x x x x x x x x x x x x x F W e Q !       ~ e U ^ x x x / ( ) _ x x x x x x x x x l S M ` o X           ",
"        m > r ^ x x x x x x x x x x x x x x x x x x x ' t C 8 ~ b e ] F x x x [ { } } } | x x x x x x x x x z  .e ..X.          ",
"        o.U V x x x x x x x x x x x x x x x x x x x x x F O.e e j l x x x x x +.} } } } @.x x x x x x x x x x x #.e $.0         ",
"      %.&.*.x x =.-.;.:.>.x x x x x x x x x x x x x x x x x c l z x x x x x x [ } } } } ,.x x x x x x x x x x x x I r <.        ",
"      1.' x x 2.;.;.;.;.;.3.x x x x x x x x x x x x x x x x x x x ,.4.5.5.,.x x ,.6.} 7.8.x x x x x x x x x x x x x 9.0.J       ",
"      q.x x x w.;.;.;.;.;.e.x x x x x x x x x x x x x x x x x x r.} } } } } +.x x x x x x x x x x x x x x x x x x x x t.y.%     ",
"      u.x x x i.;.;.;.;.;.p.x x x x x x x x x x x x x x x x x x ( } } } } } ( x x x x x x x x x x x x x x x x x x x x x a.      ",
"      s.x x x d.;.;.;.;.;.>.x x x x x x x x x x x x x x x x x x ) } } } } } 4.x x x x x x x x x x x x x x x x x x x x x f.      ",
"      g.x x x h.p.;.;.;.j.k.x x x x x x x x x x x x x x x x x x l.} } } } } 7.x x x x x x x x x x x x x x x x x x x x x z.      ",
"      x.c.x x x v.3.b.n.m.x x x x x x x x x x x x x x x x x x x m.5.} } } M.m.x x x x x x x x x x x x x x x x x x x x x N.      ",
"        B.V.x x x x x x x x x x x x x x x x x x x x x x x x x x x [ ,.7.C.[ x x x x x x x x x x x x x x x x x x x x x Z.A.      ",
"          S.V.x x x x x x x x D.F.G.H.J.x x x x x x x x x x x x x x x x x x x x x x K.g.L.L.P.I.x x x x x x x x x x x U.        ",
"            Y.T.x x x x x R.E.W.. . . @ E.V.x x x x x x x x x x x x x x x x x x x Q.!.        ~.^.x x x x x x x x x /.          ",
"                (.)._._.`.'.@ @ @ @ @ @ @ ].[.x x x x x x x x x x x x x x x x x {.}.            x.{.|.x x x x x  X.X            ",
"                            % % % % % % % % XXoXOXx x x x x x x x x x x x x +X@X                    #X$X_._.%X&X*X              ",
"                                                =X-X;Xx x x x x x x x x :X>XA.                                                  ",
"                                                      ,X<X1X_._._.2X&X=X                                                        "
};
