/* XPM */
static char *xpm_[] = {
/* columns rows colors chars-per-pixel */
"64 64 179 2 ",
"   c #6B747B",
".  c #667B7A",
"X  c #6C787D",
"o  c #70787B",
"O  c #767573",
"+  c #8E653B",
"@  c #94693D",
"#  c #9C744C",
"$  c #9E7F58",
"%  c #A07041",
"&  c #AF7C49",
"*  c #B17D49",
"=  c #A57D55",
"-  c #AA7E5C",
";  c #A77E5A",
":  c #877767",
">  c #837B67",
",  c #927B63",
"<  c #DE5C49",
"1  c #E05848",
"2  c #D36F4C",
"3  c #CC7B4E",
"4  c #D0744D",
"5  c #DF6B55",
"6  c #E16552",
"7  c #25A75C",
"8  c #2CA55B",
"9  c #26AA5D",
"0  c #34AB5E",
"q  c #2BB966",
"w  c #2ABC68",
"e  c #2AB766",
"r  c #34B76E",
"t  c #3DB574",
"y  c #39BD73",
"u  c #37BA71",
"i  c #519E58",
"p  c #6D9956",
"a  c #739F5A",
"s  c #4EA85D",
"d  c #73A05B",
"f  c #5F8579",
"g  c #5A8C78",
"h  c #549577",
"j  c #519A77",
"k  c #579178",
"l  c #5D937E",
"z  c #59987C",
"x  c #719D69",
"c  c #68807E",
"v  c #62877C",
"b  c #7E827A",
"n  c #79957D",
"m  c #7A8764",
"M  c #5EAD61",
"N  c #4AA275",
"B  c #4AAA79",
"V  c #46A975",
"C  c #52A07A",
"Z  c #42B175",
"A  c #5CBB75",
"S  c #55B568",
"D  c #7AAA61",
"F  c #66AF77",
"G  c #75AE76",
"H  c #7BAD75",
"J  c #7CAF78",
"K  c #64B875",
"L  c #64B775",
"P  c #71B376",
"I  c #79B077",
"U  c #2CC46D",
"Y  c #2DC86F",
"T  c #38C66E",
"R  c #2ECC71",
"E  c #33C471",
"W  c #33C971",
"Q  c #39C872",
"!  c #3BC671",
"~  c #4CC174",
"^  c #41C573",
"/  c #9C874E",
"(  c #988655",
")  c #809B58",
"_  c #8B9355",
"`  c #909354",
"'  c #999A5A",
"]  c #B6814D",
"[  c #BC854E",
"{  c #AA825E",
"}  c #AB8657",
"|  c #B48D52",
" . c #BD8C52",
".. c #BD8F5C",
"X. c #B98551",
"o. c #AA9657",
"O. c #85A25C",
"+. c #9E8A64",
"@. c #8C8D7D",
"#. c #878476",
"$. c #809B7C",
"%. c #969077",
"&. c #9F9773",
"*. c #9F9873",
"=. c #95937E",
"-. c #9E987B",
";. c #9B977C",
":. c #AB8462",
">. c #AA8C65",
",. c #A78D6A",
"<. c #A98D6A",
"1. c #B18665",
"2. c #B88F6E",
"3. c #B38968",
"4. c #A7916D",
"5. c #A8926D",
"6. c #A69571",
"7. c #A99673",
"8. c #A29A76",
"9. c #A89B76",
"0. c #A79F7B",
"q. c #A89E7A",
"w. c #BC9574",
"e. c #84A975",
"r. c #84AC78",
"t. c #8FA879",
"y. c #98A277",
"u. c #94A679",
"i. c #9EA27A",
"p. c #95A377",
"a. c #A3A17B",
"s. c #AAA17E",
"d. c #C9814F",
"f. c #C78550",
"g. c #C48A51",
"h. c #C78F58",
"j. c #C88552",
"k. c #C9935E",
"l. c #C0976E",
"z. c #C89867",
"x. c #C09D79",
"c. c #CCA87D",
"v. c #D7AB7F",
"b. c #D1A171",
"n. c #6F7981",
"m. c #717B83",
"M. c #6A8381",
"N. c #658980",
"B. c #7B8281",
"V. c #868980",
"C. c #888A80",
"Z. c #848780",
"A. c #B2A683",
"S. c #B6A987",
"D. c #BBAD8A",
"F. c #C0A180",
"G. c #CAA686",
"H. c #C6AF8E",
"J. c #CDAB8A",
"K. c #D8AE83",
"L. c #C1B18F",
"P. c #DBB289",
"I. c #C3B291",
"U. c #CAB796",
"Y. c #D5B393",
"T. c #D4BD9D",
"R. c #DCBC9C",
"E. c #D6BA97",
"W. c #E0BA95",
"Q. c #E3BA97",
"!. c #DFBFA0",
"~. c #E3C09C",
"^. c #D6C0A0",
"/. c #DCC3A4",
"(. c #E2C2A3",
"). c #E5C9AB",
"_. c #EACCAE",
"`. c #E5C7A9",
"'. c #ECCFB1",
/* pixels */
"0.0.0.0.0.0.0.0.0.0.0.0.0.0.0.0.0.0.0.0.0.0.0.0.0.0.0.0.0.0.0.0.0.0.0.0.0.0.0.0.0.0.0.0.0.0.0.0.0.0.0.0.0.0.0.0.0.0.0.0.0.0.0.0.",
"0.0.0.0.0.0.0.0.0.0.0.0.0.0.0.0.0.0.0.0.0.0.0.0.0.0.0.0.0.0.0.0.0.0.0.0.0.0.0.0.0.0.0.0.0.0.0.0.0.0.0.0.0.0.0.0.0.0.0.0.0.0.0.0.",
"0.0.0.0.0.0.0.0.0.0.0.0.0.0.0.0.0.0.0.0.0.0.0.0.0.0.0.0.0.0.0.0.0.0.0.0.0.0.0.0.0.0.0.0.0.0.0.0.0.0.0.0.0.0.0.0.0.0.0.0.0.0.0.0.",
"0.0.0.0.0.0.0.0.0.0.0.0.0.0.0.0.0.0.0.0.0.0.0.0.0.0.0.0.0.0.0.0.0.0.0.0.0.0.0.0.0.0.0.0.0.0.0.0.0.0.0.0.0.0.0.0.0.0.0.0.0.0.0.0.",
"0.0.0.0.0.0.0.0.0.0.0.0.0.0.0.0.0.0.0.0.0.0.0.0.0.0.0.0.0.0.0.0.0.0.0.0.0.0.0.0.0.0.0.0.0.0.0.0.0.0.0.0.0.0.0.0.0.0.0.0.0.0.0.0.",
"0.0.0.0.0.0.0.0.0.0.0.0.0.0.0.0.0.0.0.0.0.0.0.0.0.8.0.0.0.0.0.0.0.0.0.8.0.0.0.0.8.*.0.0.0.0.0.0.0.0.0.0.0.0.0.0.0.0.0.0.0.0.0.0.",
"0.0.0.0.0.0.0.0.0.0.0.0.0.0.0.0.0.0.0.0.0.0.0.0.8.8.0.0.0.0.0.0.0.0.0.8.8.0.0.0.&.8.0.0.0.0.0.0.0.0.0.0.0.0.0.0.0.0.0.0.0.0.0.0.",
"0.0.0.0.0.0.0.0.0.0.0.0.0.0.0.0.0.0.0.0.0.0.0.0.*.8.0.0.0.0.0.0.0.0.0.8.*.0.0.*.*.8.0.0.0.0.0.0.0.0.0.0.0.0.0.0.0.0.0.0.0.0.0.0.",
"0.0.0.0.0.0.0.0.0.0.0.0.0.0.0.0.0.0.0.0.0.0.0.8.8.0.0.0.0.0.0.0.0.0.0.8.8.8.8.8.8.8.0.0.0.0.0.0.0.0.0.0.0.0.0.0.0.0.0.0.0.0.0.0.",
"0.0.0.0.0.0.0.0.0.0.0.0.0.0.0.0.0.0.8.8.0.0.8.8.8.0.0.0.0.0.0.0.0.0.0.8.8.8.8.8.8.8.0.0.0.0.0.0.0.0.0.0.0.0.0.0.0.0.0.0.0.0.0.0.",
"0.0.0.0.0.0.0.0.0.0.0.0.0.0.0.0.u.H G H e.p.-.@.B.m.m.m.=.0.0.0.8.-.-.-.-.8.8.8.8.8.0.0.0.0.0.0.0.0.0.0.0.0.0.0.0.0.0.0.0.0.0.0.",
"0.0.0.0.0.0.0.0.0.0.0.0.0.0.8.e.Q R R R R Z m.m.m.m.m.B.;.@.B.m.m.m.n.      o b -.8.0.0.0.0.0.0.0.0.0.0.0.0.0.0.0.0.0.0.0.0.0.0.",
"0.0.0.0.0.0.0.0.0.0.0.0.0.0.y.Q R R R R B n.m.m.m.m.m.m.m.m.m.m.              b 0.0.0.0.0.0.0.0.0.0.0.0.0.0.0.0.0.0.0.0.0.0.0.0.",
"0.0.0.0.0.0.0.0.0.0.0.0.0.0.H R R R R y M.m.m.m.m.m.m.m.m.m.                  @.0.0.8.8.0.0.0.0.0.0.0.0.0.0.0.0.0.0.0.0.0.0.0.0.",
"0.0.0.0.0.0.0.0.0.0.0.0.0.8.L R W R y v m.m.m.m.n.m.m.m.                          m.m.B.;.0.0.0.0.0.0.0.0.0.0.0.0.0.0.0.0.8.0.0.",
"0.0.0.0.0.0.0.0.0.0.0.0.0.i.A R C l l n.m.m.m.      n.                            m.m.m.=.0.0.0.0.0.0.0.0.0.0.0.0.0.0.0.8.8.0.0.",
"0.0.0.0.0.0.0.0.0.0.0.0.0.i.A r M.m.m.m.m.m.                                      X m.m.@.0.0.0.0.0.0.0.0.0.0.0.0.0.0.0.*.0.0.0.",
"0.0.0.8.8.0.0.0.0.&.0.0.0.i.A Z m.m.m.m.m.n.                                        m.m.C.0.0.0.0.0.0.0.0.0.0.0.0.0.0.8.8.0.0.0.",
"0.0.0.0.&.0.0.0.*.&.0.0.0.i.A N.m.m.m.m.                                            m.m.V.0.0.0.0.0.0.0.0.0.8.0.0.0.8.8.8.0.0.0.",
"0.0.0.0.*.8.0.8.*.*.0.0.0.i.F m.m.m.m.X                                             m.m.V.0.0.0.0.0.0.0.0.0.8.8.0.8.8.8.8.0.0.0.",
"0.0.0.0.8.8.8.8.8.8.0.0.0.a.n m.m.m.                                                m.m.V.0.0.0.0.0.8.0.0.8.8.8.8.8.8.8.0.0.0.0.",
"0.0.0.0.8.8.8.8.8.8.0.0.0.0.Z.m.m.n.        m.                                      n.m.V.0.0.0.0.0.8.8.8.8.8.8.8.8.8.8.0.0.0.0.",
"0.0.0.0.8.8.8.8.8.8.0.0.0.0.$.m.X         m.n.                                      n.m.n a.0.0.0.0.0.0.0.8.0.0.0.0.0.0.0.0.0.0.",
"0.0.8.8.8.8.8.8.8.8.0.0.0.0.G c           m.                          m.m.n.        n.M.Z K i.0.0.0.0.0.0.0.0.0.0.0.0.0.0.0.0.0.",
"0.0.0.0.0.0.0.0.0.0.0.0.0.0.I h                                       m.            n.N.y Q r.0.0.0.0.0.0.0.0.0.0.0.0.0.0.0.0.0.",
"0.0.0.0.0.0.0.0.0.0.0.0.0.0.r.Z                                                     m.z R R ~ a.0.0.0.0.0.0.0.0.0.0.0.0.0.0.0.0.",
"0.0.0.0.0.0.0.0.0.0.0.0.0.0.t.t                                                     m.B R R ! u.0.0.0.0.0.0.0.0.0.0.0.0.0.0.0.0.",
"0.0.0.0.0.0.0.0.0.0.0.0.0.0.y.t                                                     M.u w q U r.0.0.0.0.0.0.0.0.0.0.0.0.0.0.0.0.",
"0.0.0.0.0.0.0.0.0.0.0.0.0.0.5.m                                                     k e w Y R K 0.0.0.0.0.0.0.0.0.0.0.0.0.0.0.0.",
"0.0.0.0.0.0.0.0.0.0.0.0.0.0.8.:                                       .             E R R R R J 0.0.0.0.0.0.0.0.0.0.0.0.0.0.0.0.",
"0.0.0.0.0.0.0.0.0.0.0.0.0.0.0.#.                                    v Z N           W R R R Q u.0.0.0.0.0.0.0.0.0.0.0.0.0.0.0.0.",
"0.0.0.0.0.0.0.0.0.0.0.0.0.0.0.%.                          . j f   g t R W g         y R R R ~ a.0.0.0.0.0.0.0.0.0.0.0.0.0.0.0.0.",
"0.0.0.0.0.0.0.0.0.0.0.0.0.0.0.6.:                       g y R R y W R R R R g       E R R R P 0.0.0.0.0.0.0.0.0.0.0.0.0.0.0.0.0.",
"0.0.0.0.0.0.0.0.0.0.0.0.0.0.0.9.= > h j N j .       . k E R R R R R R R R R y g   O M R R ^ t.0.0.0.0.0.0.0.0.0.0.0.0.0.0.0.0.0.",
"0.0.0.0.0.0.0.0.0.0.0.0.0.0.0.0.} / R R R R y f   . V W R R R R R R R R R R R t . , ( T R P a.0.0.0.0.0.0.0.0.0.0.0.0.0.0.0.0.0.",
"0.0.0.0.0.0.0.0.0.0.0.0.0.0.0.0.>.& T R R R R E N y R R R R R R R R R R R R R W x X.& _ S i.0.0.0.0.0.0.0.0.0.0.0.0.0.0.0.0.0.0.",
"0.0.0.0.0.0.0.0.0.0.0.0.0.8.0.0.9.} d W R R R R R R R R Y Y Y U U w q M ' o.o. .g.[ & & } 9.0.0.0.0.0.0.0.0.0.0.0.0.0.0.0.0.0.0.",
"0.0.0.0.0.0.0.0.0.0.0.0.8.8.0.0.0.9.} ' D D D O.) a s 0 9 9 9 7 8 i _  .g.g.g.g.g.[ & } 9.0.0.0.0.0.0.0.0.0.0.0.0.0.0.0.0.0.0.0.",
"0.0.0.0.0.0.0.0.0.0.0.0.8.8.0.0.0.0.0...g.g.g.] * g.| ` i 8 7 8 p | g.g.g.g.g.g.g.[ & 5.0.0.0.0.0.0.0.0.0.0.0.0.0.0.0.0.0.0.0.0.",
"0.0.0.0.0.0.8.0.0.0.0.8.8.8.0.0.0.0.0...g.g.g.] [ g.g.g.g. .` | g.g.g.g.g.g.g.g.g. .6.0.0.0.0.0.0.0.0.0.0.0.0.0.0.0.0.0.0.0.0.0.",
"0.0.0.0.0.0.8.8.0.0.8.8.8.0.0.0.0.0.0...g.g.g.[ g.g.g.g.g.g.g.g.g.g.g.g.g.g.g.g.g...0.0.0.0.0.0.0.0.0.0.0.0.0.0.0.0.0.0.0.0.0.0.",
"0.0.8.0.0.0.8.8.8.8.8.8.8.0.0.0.0.0.0...g.g.g.g.g.g.g.g.g.g.g.g.g.g.g.g.g.g.g.g.g...0.0.0.0.0.0.0.0.0.0.0.0.0.0.0.0.0.0.0.0.0.0.",
"0.0.0.8.8.0.8.8.8.8.8.8.8.0.0.0.0.0.0...g.g.d.f.g.4 2 g.g.g.g.g.g.g.g.k.v.W.(.(.W.c.0.0.0.0.0.0.0.0.0.0.0.0.0.0.0.0.0.0.0.0.0.0.",
"0.0.0.8.8.8.8.8.8.8.8.8.8.8.8.0.0.0.0...g.g.2 1 1 1 3 g.g.g.g.g.g.g.h.(.'.'.'.'.'.'.^.s.0.0.0.0.0.0.0.0.0.0.0.0.0.0.0.0.0.0.0.0.",
"0.0.0.0.0.0.0.0.0.0.0.0.0.0.0.0.0.0.0...g.g.d.< 1 < 3 g.g.g.g.g.g.h.K.'.'.'.'.'.'.'.'.I.0.0.0.0.0.0.0.0.0.0.0.0.0.0.0.0.0.0.0.0.",
"0.0.0.0.0.0.0.0.0.0.0.0.0.0.0.0.0.0.0...g.g.j.5 6 6 3 g.g.g.g.g.g.k.~.'.'.'.'.'.'.'.'.T.s.0.0.0.0.0.0.0.0.0.0.0.0.8.8.0.0.0.0.0.",
"0.0.0.0.0.0.0.0.0.0.0.0.0.0.0.0.0.0.0...h.P._.'.'.'.Q.z.g.g.g.g.g.b.'.'.'.'.'.'.'.'.'.`.S.0.0.0.0.0.0.0.&.0.0.0.8.&.8.0.0.0.0.0.",
"0.0.0.0.0.0.0.0.0.0.0.0.0.0.0.0.0.0.0.l.W.'.'.'.'.'._.Q.g.g.g.g.g.P.'.'.'.'.'.'.'.'.'.).D.0.0.0.0.0.0.0.*.8.0.8.*.*.8.0.0.0.0.0.",
"0.0.0.0.0.0.0.0.0.0.0.0.0.0.0.0.0.0.s.E.'.'.'.'.'.'.'.'.z.[ [ ] ] R._.'.'.'.'.'.'.'.'.`.S.0.0.0.0.0.0.0.8.8.8.8.&.*.8.0.0.0.0.0.",
"0.0.0.0.0.0.0.0.0.0.0.0.0.0.0.0.0.0.D.).'.'.'.'.'.'.'.'.l.% @ + # R.`.)._.'.'.'.'.'.'./.s.0.0.0.0.0.0.0.8.8.8.8.8.8.8.0.0.0.0.0.",
"0.0.0.0.0.0.0.0.0.0.0.0.0.0.0.0.0.0.T.'.'.'.'.'.'.'.'.'.x.+ + + = Y.!.(.(.(.)._.'.'.'.I.0.0.0.0.0.0.0.0.0.8.8.8.8.8.0.0.0.0.0.0.",
"0.0.0.0.0.0.0.0.0.0.0.0.0.0.0.0.0.0.T.'.'.'.'.'.'.'.'.'.J.$ ( +.; 1.w.J.Y.!.(.(.(.).).S.0.0.0.0.0.0.8.8.8.8.8.8.8.8.0.0.0.0.0.0.",
"0.0.0.0.0.0.0.0.0.0.0.0.0.0.0.0.0.0.T.'.'.'.'.'.'.'.'.'./.A.0.8.- - - - :.2.J.R.(.(.T.s.0.0.0.0.0.0.0.8.0.0.0.0.0.0.0.0.0.0.0.0.",
"0.0.0.0.0.0.0.0.0.0.0.0.0.0.0.0.0.0.U.'.'.'.'.'.'._._.`.R.A.0.8.<.:.- - - - - :.w.J.H.0.0.0.0.0.0.0.0.0.0.0.0.0.0.0.0.0.0.0.0.0.",
"0.0.0.0.0.0.0.0.0.0.0.0.0.0.0.0.0.0.L._.'.'._.).(.(.(.(.R.A.0.0.0.0.7.:.{ - - - - - :.0.0.0.0.0.0.0.0.0.0.0.0.0.0.0.0.0.0.0.0.0.",
"0.0.0.0.0.0.0.0.0.0.0.0.0.0.0.0.0.0.D./.`.(.(.(.R.Y.G.w.3.7.0.0.0.0.0.0.8.4.>.:.- - - 4.0.0.0.0.0.0.0.0.0.0.0.0.0.0.0.0.0.0.0.0.",
"0.0.0.0.0.0.0.0.0.0.0.0.0.0.0.0.0.0.A.T.(.(.Y.G.w.:.- - - 4.0.0.0.0.0.0.0.0.0.7.<.{ - <.0.0.0.0.0.0.0.0.0.0.0.0.0.0.0.0.0.0.0.0.",
"0.0.0.0.0.0.0.0.0.0.0.0.0.0.0.0.8.0.q.F.w.1.- - - - - - { <.0.0.0.0.0.0.0.0.0.0.0.0.9.8.0.0.0.0.0.0.0.0.0.0.0.0.0.0.0.0.0.0.0.0.",
"0.0.0.0.0.0.0.0.0.0.0.0.0.0.0.0.8.8.4.:.- - - - - :.>.,.6.0.0.0.0.0.0.0.0.0.0.0.0.0.0.0.0.0.0.0.0.0.0.0.0.0.0.0.0.0.0.0.0.0.0.0.",
"0.0.0.0.0.0.0.0.0.0.0.0.0.0.0.0.0.8.{ - - - { ,.6.8.0.0.0.0.0.0.0.0.0.0.0.0.0.0.0.0.0.0.0.0.0.0.0.0.0.0.0.0.0.0.0.0.0.0.0.0.0.0.",
"0.0.0.0.0.0.0.0.0.0.0.0.0.0.0.0.0.4.- :.,.6.0.0.0.0.0.0.0.0.0.0.0.0.0.0.0.0.0.0.0.0.0.0.0.0.0.0.0.0.0.0.0.0.0.0.0.0.0.0.0.0.0.0.",
"0.0.0.0.0.0.0.0.0.0.0.0.0.0.0.0.0.0.0.0.0.0.0.0.0.0.0.0.0.0.0.0.0.0.0.0.0.0.0.0.0.0.0.0.0.0.0.0.0.0.0.0.0.0.0.0.0.0.0.0.0.0.0.0.",
"0.0.0.0.0.0.0.0.0.0.0.0.0.0.0.0.0.0.0.0.0.0.0.0.0.0.0.0.0.0.0.0.0.0.0.0.0.0.0.0.0.0.0.0.0.0.0.0.0.0.0.0.0.0.0.0.0.0.0.0.0.0.0.0.",
"0.0.0.0.0.0.0.0.0.0.0.0.0.0.0.0.0.0.0.0.0.0.0.0.0.0.0.0.0.0.0.0.0.0.0.0.0.0.0.0.0.0.0.0.0.0.0.0.0.0.0.0.0.0.0.0.0.0.0.0.0.0.0.0."
};
