/* XPM */
static char *_27aed13295c4224b5500323737b29f2n7Sf4IBXWbUir40k[] = {
/* columns rows colors chars-per-pixel */
"64 64 181 2 ",
"   c #010100",
".  c #050902",
"X  c #0C0C05",
"o  c #0F0E08",
"O  c #110F07",
"+  c #110E09",
"@  c #0A1207",
"#  c #0D130B",
"$  c #101106",
"%  c #13130B",
"&  c #14190E",
"*  c #1B190E",
"=  c #19170D",
"-  c #141512",
";  c #161B11",
":  c #1B1B12",
">  c #201D13",
",  c #162214",
"<  c #1C2316",
"1  c #1D251A",
"2  c #1D291B",
"3  c #232215",
"4  c #242519",
"5  c #2A271B",
"6  c #232B1D",
"7  c #2B2B1D",
"8  c #312E1F",
"9  c #2A301E",
"0  c #30301E",
"q  c #1F1F21",
"w  c #201E21",
"e  c #222123",
"r  c #242E21",
"t  c #2C2E21",
"y  c #2C2D2C",
"u  c #312E21",
"i  c #263123",
"p  c #2B3424",
"a  c #2E3826",
"s  c #2D342A",
"d  c #2D392A",
"f  c #333425",
"g  c #383525",
"h  c #343927",
"j  c #393A27",
"k  c #353729",
"l  c #39372A",
"z  c #343B2B",
"x  c #3C3D2D",
"c  c #343534",
"v  c #353C32",
"b  c #3C3D33",
"n  c #383738",
"m  c #3C3D3D",
"M  c #413D2D",
"N  c #403F30",
"B  c #35412E",
"V  c #3C412F",
"C  c #3C4332",
"Z  c #3B4A35",
"A  c #3D4139",
"S  c #394636",
"D  c #3F5039",
"F  c #41402F",
"G  c #434332",
"H  c #4A4434",
"J  c #424A36",
"K  c #484935",
"L  c #44433B",
"P  c #43483F",
"I  c #494C3C",
"U  c #46513B",
"Y  c #51503E",
"T  c #454545",
"R  c #494741",
"E  c #474C46",
"W  c #4B4C46",
"Q  c #474748",
"!  c #484748",
"~  c #4C4C4C",
"^  c #564F44",
"/  c #4E544B",
"(  c #4D5546",
")  c #53544B",
"_  c #5A564D",
"`  c #535B4C",
"'  c #5B5C4E",
"]  c #575347",
"[  c #4F4F50",
"{  c #504F50",
"}  c #535353",
"|  c #585756",
" . c #5A5C55",
".. c #575758",
"X. c #585758",
"o. c #5B5B5B",
"O. c #576051",
"+. c #596355",
"@. c #5F625B",
"#. c #646355",
"$. c #62635E",
"%. c #616A5D",
"&. c #5F5F60",
"*. c #646464",
"=. c #636B61",
"-. c #6A6B66",
";. c #676768",
":. c #686668",
">. c #6B6C6B",
",. c #677364",
"<. c #6D716C",
"1. c #6E7A6B",
"2. c #72736D",
"3. c #6F6E70",
"4. c #706F70",
"5. c #737373",
"6. c #767974",
"7. c #7C7B75",
"8. c #777678",
"9. c #787778",
"0. c #7C7C7B",
"q. c #797773",
"w. c #827F7A",
"e. c #7F807C",
"r. c #83827C",
"t. c #88857F",
"y. c #7F7F80",
"u. c #848483",
"i. c #898682",
"p. c #868A85",
"a. c #8D8B85",
"s. c #878788",
"d. c #888789",
"f. c #888888",
"g. c #908E8B",
"h. c #8F938D",
"j. c #91928D",
"k. c #8F8F90",
"l. c #929292",
"z. c #959993",
"x. c #9B9B96",
"c. c #979798",
"v. c #9E9E9E",
"b. c #9B9B9B",
"n. c #999793",
"m. c #A09F9B",
"M. c #A09D96",
"N. c #9DA29B",
"B. c #A5A29E",
"V. c #A8A69F",
"C. c #9F9FA0",
"Z. c #A1A1A1",
"A. c #A4A3A4",
"S. c #A3A3A3",
"D. c #A8A7A5",
"F. c #A5AAA2",
"G. c #A9AEA7",
"H. c #ABAAA4",
"J. c #A7A7A8",
"K. c #A8A8A9",
"L. c #ACABAC",
"P. c #ADADAD",
"I. c #ACABAC",
"U. c #ACB2AB",
"Y. c #AFAFB0",
"T. c #B0AFB0",
"R. c #AFB0B1",
"E. c #B2B2B3",
"W. c #BCBCBD",
"Q. c #BFBEC0",
"!. c #C6C6C6",
"~. c #C4C4C5",
"^. c #C7C7C8",
"/. c #C7C8C8",
"(. c #C9C9CA",
"). c #CACACB",
"_. c #C9C6C0",
"`. c #D2D2D3",
"'. c #F7F7F8",
"]. c #FDFDFD",
"[. c #E7E7E9",
/* pixels */
"L.L.L.I.K.A.>.y v.} ;.8.l.a.k.s.u.>.).  3 } T } } } c.  e o.$.=.Q } -.$.  1 s h z z G G G F 7 x.>.l.l.>.u.C %.-.5.6.6./ ] K.S.I.",
"# @ @ @ @ @ 6 = A.} >.0.l.a.a.u.u.>.).  < | T ~ ~ } x.  p h f f x x x j F C z h h h a x F G X S.;.l.l.;.u.. p h 1 @ @ & 3     # ",
"/ p.u.a.j.z.  = v.} *.>.>.u.f.u.8.>.).  h / o.o.v.f.!.  d G x x x G x G x C ` F.U.G.G.f G G o S.>.0.0.;.N.p j f ) S.I.).!.].. C ",
"h.~ o.;.o.E.  : f.~ } o.o.*.>.>.>.;.!.  d d i i 2 1 , d - 6 x j 4 # # o x r J.} >.;...Y x C . S.} >.>.*.p.h x g W } o.>.>.).. x ",
"z.} *.>.>.Y.. . 0.T Q } o.o.*.*.*.o.T.. p d E u.h.z.U.,.1.,.=.W.a.f.a.T x A C.o.>.>.).j z C . v.~ o.o.} 3.z x 6 %.} 5.u.>.).X C ",
"z.} 0.u.>.W.    f.Q ~ ~ ~ } } } } } E.  2 i :.T ~ } o.*.>.>.>.;.>.>.o.H.j L C.o.>.>.~.7 x z . a.m 8.K.A.5.p x r -.~ 0.l.8.).X b ",
"r.} u.a.0.).    a.q.} `.A.A.S.x.x.x.!.  - i <.~ } o.*.5.8.8.8.5.>.>.;.H.j v S.o.8.5.W.7 x f 6 ( 0.a.  X 6 z z 6 u.~ 0.j.0.).o N ",
"p.} u.l.0./.O % 3 o o             o . % s r 5.! } ;.0.f.l.l.a.f.u.>.;.H.x s c.o.5.8.W.0 F 6 z z z h b x l 5 t 3 A.~ 8.l.0.).. h ",
"h.} 0.l.u.!.7 f - : = * = > % + o g f f x r <.T } *.0.f.l.l.l.l.u.>.;.N.6 d c.o.0.0.W.5 X e z.E # 1 1 6 4 r.: : S.~ >.l.0.).. x ",
"a.} 5.l.u.!.o r.c.E.)./.!.l.5 W a.S.D.v.S r <.T ~ } >.8.>.>.>.>.*.>.;.N.r d b.;.u.f.W.  7.A.~ !.).).!.!.!.'.    A.o.>.8.>.).. x ",
"a.} ;.0.0.!.$ i.~ *.>.>.*.D.8 i.~ *.;.o.+.r -.m Q ~ o.o.*.*.*.*.o.o.o.S.r d p.;.a.a.W.  K.} *.5.u.u.0.>.>.).    l.~ *.;.;.!.o x ",
"<.~ o.;.*.A.$ r.} ;.u.f.>.S.7 r.} >.>.4.Z i <.c T T ~ Q Q ~ ~ ~ ~ ~ Q p.r z <.;.a.l.W.  A.o.o.0.l.l.c.a.8.).    S.Q } } } K.. h ",
"o.Q } o.} *.: e.} 8.l.l.>.m.u e.o.;.>.>.2 # n #.' ' ^ t.r.r.r.r.7.7.2./ i B -.;.a.a.W.  A.} o.5.u.l.c.x.5.`.  # ` o.t.i.i.a.> j ",
"| : R L 0.o.$ u.} 8.a.a.>.v.g 2.Q } } X.+.p z C C C Z Z Z C f f z Z + i i q L.;.u.0.~.  l.~ } *.>.5.0.>.>.!.& x h z a h h a x x ",
"  . . .   . . 8.~ *.a.0.o.n.g 2.f.S.!.0.n . r g 5 ; d S D d 6 r 6 <   C V e I.*.0.5.~.  u.m ~ ~ ~ ~ } } } i.p x h h h p 6 i h h ",
"r.x.l.k.x.) o.*.~ &.>.*.o.r.l .                   c U.i f L h.G.W.K._.x K q A.*.5.5.~.  -.2.w.w.r.*.o.~.c.r.x x 3 ;.0.0.N.D.'  .",
"5.>.>.0.0.8.S.o.m ~ ..[ } ( ; v.c.K.E.!.).).).).).~.5.z f a.~ o.;.o.B.F K e x.o.5.>.W.3 f x x x x M F 6 , h G F  .c.} o.*.;.>.>.",
"f.f.f.f.f.f.f.f.f.f.f.f.f.f.f.f.f.f.f.f.f.f.f.f.f.f.f.f.f.f.f.f.f.f.f.f.f.f.f.f.f.f.f.f.f.u.u.0.$.G K C d x j f 7.~ o.*.>.0.x.S.",
"f.f.f.f.f.f.f.f.f.f.f.f.f.f.f.f.f.f.f.f.f.f.f.f.f.f.f.f.f.f.f.f.f.f.f.f.f.f.f.f.f.f.f.f.f.f.f.f.f.u.b s v r 7 u #.} o.*.u.u.c.x.",
"f.f.f.f.f.f.f.f.f.f.f.f.f.f.f.f.f.f.f.f.f.f.f.f.f.f.f.f.f.f.f.f.f.f.f.f.f.f.f.f.f.f.f.f.f.f.f.f.f.f.f.E.!.).a.5 #.R } o.>.>.*.*.",
"f.f.f.f.f.f.f.f.f.f.f.f.f.f.f.f.f.f.f.f.f.f.f.f.f.f.f.f.f.f.f.f.f.f.f.f.f.f.f.f.f.f.f.f.f.f.f.f.f.f.f.u.>.>.S.3 ] R Q ~ ~ Q a.a.",
"f.f.f.f.f.f.f.f.f.f.f.f.f.f.f.f.f.f.f.f.f.f.f.f.f.f.f.f.f.f.f.f.f.f.f.f.f.f.f.f.f.f.f.f.f.f.f.f.f.f.f.f.0.>.).> f r.>.l.a.u.T   ",
"f.f.f.f.f.f.f.f.f.f.f.f.f.f.f.f.f.f.f.f.f.f.f.f.f.f.f.f.f.f.f.f.f.f.f.f.f.f.f.f.f.f.f.f.f.f.f.f.f.f.f.f.u.0.).o F :   - y E.W.~.",
"f.f.f.f.f.f.f.f.f.f.f.f.f.f.f.f.f.f.f.f.f.f.f.f.f.f.f.f.f.f.f.f.f.f.f.f.f.f.f.f.f.f.f.f.f.f.f.f.f.f.f.f.f.0.!.% H $ ~.x.E.l.*.;.",
"f.f.f.f.f.f.f.f.f.f.f.f.f.f.f.f.f.f.f.f.f.f.f.f.f.f.f.f.f.f.f.f.f.f.f.f.f.f.f.f.f.f.f.f.f.f.f.f.f.f.f.f.f.0.).% K : a.~ o.>.8.8.",
"f.f.f.f.f.f.f.f.f.f.f.f.f.f.f.f.f.f.f.f.f.f.f.f.f.f.f.f.f.f.f.f.f.f.f.f.f.f.f.f.f.f.f.f.f.f.f.f.f.f.f.f.f.5.W.; G : l.~ o.0.a.a.",
"f.f.f.f.f.f.f.f.f.f.f.f.f.f.f.f.f.f.f.f.f.f.f.f.f.f.f.f.f.f.f.f.f.f.f.f.f.f.f.f.f.f.f.f.f.f.f.f.f.f.f.f.f.o.E.< K : a.~ ;.a.v.v.",
"f.f.f.f.f.f.f.f.f.f.f.f.f.f.f.f.f.f.f.f.f.f.f.f.f.f.f.f.f.f.f.f.f.f.f.f.f.f.f.f.f.f.f.f.f.f.f.f.f.f.f.f.f.o.S.z K : f.} ;.a.v.x.",
"f.f.f.f.f.f.f.f.f.f.f.f.f.f.f.f.f.f.f.f.f.f.f.f.f.f.f.f.f.f.f.f.f.f.f.f.f.f.f.f.f.f.f.f.f.f.f.f.f.f.f.f.f.~ k.z K & u.~ *.f.v.v.",
"f.f.f.f.f.f.f.f.f.f.f.f.f.f.f.f.f.f.f.f.f.f.f.f.f.f.f.f.f.f.f.f.f.f.f.f.f.f.f.f.f.f.f.f.f.f.f.f.f.f.f.f.f.f.E.j G - 5.Q } 5.u.a.",
"f.f.f.f.f.f.f.f.f.f.f.f.f.f.f.f.f.f.f.f.f.f.f.f.f.f.f.f.f.f.f.f.f.f.f.f.f.f.f.f.f.f.f.f.f.f.f.f.f.f.f.f.f.g 0 J J t u.Q } o.>.8.",
"f.f.f.f.f.f.f.f.f.f.f.f.f.f.f.f.f.f.f.f.f.f.f.f.f.f.f.f.f.f.f.f.f.f.f.f.f.f.f.f.f.f.f.f.f.f.f.f.f.f.f.f.f.F G J C 5 5.n T } } *.",
"f.f.f.f.f.f.f.f.f.f.f.f.f.f.f.f.f.f.f.f.f.f.f.f.f.f.f.f.f.f.f.f.f.f.f.f.f.f.f.f.f.f.f.f.f.f.f.f.f.f.f.f.f.C U J C 7 l.f.u.l.x.Q ",
"f.f.f.f.f.f.f.f.f.f.f.f.f.f.f.f.f.f.f.f.f.f.f.f.f.f.f.f.f.f.f.f.f.f.f.f.f.f.f.f.f.f.f.f.f.f.f.f.f.f.f.f.f.J C V f j f f z h ) p.",
"f.f.f.f.f.f.f.f.f.f.f.f.f.f.f.f.f.f.f.f.f.f.f.f.f.f.f.f.f.f.f.f.f.f.f.f.f.f.f.f.f.f.f.f.f.f.f.f.f.f.f.f.f.C ) r.n l h g V V C C ",
"f.f.f.f.f.f.f.f.f.f.f.f.f.f.f.f.f.f.f.f.f.f.f.f.f.f.f.f.f.f.f.f.f.f.f.f.f.f.f.f.f.f.f.f.f.f.f.f.f.f.f.f.f.C r.;.x.[.D.E.E.H._ t ",
"f.f.f.f.f.f.f.f.f.f.f.f.f.f.f.f.f.f.f.f.f.f.f.f.f.f.f.f.f.f.f.f.f.f.f.f.f.f.f.f.f.f.f.f.f.f.f.f.f.f.f.f.f.V i.~ } *.;.;.;.o.f.x ",
"f.f.f.f.f.f.f.f.f.f.f.f.f.f.f.f.f.f.f.f.f.f.f.f.f.f.f.f.f.f.f.f.f.f.f.f.f.f.f.f.f.f.f.f.f.f.f.f.f.f.f.f.f.F a.~ o.;.>.>.>.>.a.x ",
"f.f.f.f.f.f.f.f.f.f.f.f.f.f.f.f.f.f.f.f.f.f.f.f.f.f.f.f.f.f.f.f.f.f.f.f.f.f.f.f.f.f.f.f.f.f.f.f.f.f.f.f.f.g a.~ o.0.f.f.u.>.a.M ",
"f.f.f.f.f.f.f.f.f.f.f.f.f.f.f.f.f.f.f.f.f.f.f.f.f.f.f.f.f.f.f.f.f.f.f.f.f.f.f.f.f.f.f.f.f.f.f.f.f.f.f.f.f.g a.~ o.u.a.c.l.5.u.M ",
"f.f.f.f.f.f.f.f.f.f.f.f.f.f.f.f.f.f.f.f.f.f.f.f.f.f.f.f.f.f.f.f.f.f.f.f.f.f.f.f.f.f.f.f.f.f.f.f.f.f.f.f.f.g a.~ o.u.x.v.v.>.].  ",
"f.f.f.f.f.f.f.f.f.f.f.f.f.f.f.f.f.f.f.f.f.f.f.f.f.f.f.f.f.f.f.f.f.f.f.f.f.f.f.f.f.f.f.f.f.f.f.f.f.f.f.f.f.u v.~ o.>.v.v.c.5./.  ",
"f.f.f.f.f.f.f.f.f.f.f.f.f.f.f.f.f.f.f.f.f.f.f.f.f.f.f.f.f.f.f.f.f.f.f.f.f.f.f.f.f.f.f.f.f.f.f.f.f.f.f.f.u.h S.~ o.>.v.v.c.5.).X ",
"f.f.f.f.f.f.f.f.f.f.f.f.f.f.f.f.f.f.f.f.f.f.f.f.f.f.f.f.f.f.f.f.f.f.f.f.f.f.f.f.f.f.f.f.f.f.f.f.f.f.f.f.u.f v.~ } >.x.c.l.5.!.9 ",
"f.f.f.f.f.f.f.f.f.f.f.f.f.f.f.f.f.f.f.f.f.f.f.f.f.f.f.f.f.f.f.f.f.f.f.f.f.f.f.f.f.f.f.f.f.f.f.f.f.f.f.f.0.V l.Q } ;.u.u.0.>.!.p ",
"f.f.f.f.f.f.f.f.f.f.f.f.f.f.f.f.f.f.f.f.f.f.f.f.f.f.f.f.f.f.f.f.f.f.f.f.f.f.f.f.f.f.f.f.f.f.f.f.f.f.f.f.+.p u.m ~ o.o.*.*.;.W.p ",
"f.f.f.f.f.f.f.f.f.f.f.f.f.f.f.f.f.f.f.f.f.f.f.f.f.f.f.f.f.f.f.f.f.f.f.f.f.f.f.f.f.f.f.f.f.f.f.f.f.f.f.f.z.2 u.m ~ } o.o.o.o.E.a ",
"f.f.f.f.f.f.f.f.f.f.f.f.f.f.f.f.f.f.f.f.f.f.f.f.f.f.f.f.f.f.f.f.f.f.f.f.f.f.f.f.f.f.f.f.f.f.f.f.f.f.f.>.I.; 6.n Q ~ ~ } } } A.6 ",
"f.f.f.f.f.f.f.f.f.f.f.f.f.f.f.f.f.f.f.f.f.f.f.f.f.f.f.f.f.f.f.f.f.f.f.f.f.f.f.f.f.f.f.f.f.f.f.f.f.f.u.;.W.= L.2.a.0.x.$.b.>.l.p ",
"f.f.f.f.f.f.f.f.f.f.f.f.f.f.f.f.f.f.f.f.f.f.f.f.f.f.f.f.f.f.f.f.f.f.f.f.f.f.f.f.f.f.f.f.f.f.u.f.a.a.u.;.W.r g h h h h l k 7.5.7 ",
"C h t h z z z z A A A P y t 5 d.W.E.I.E.~ } ~ ~ ~ ~ } } } } } o.I.  G f u.~ ;.5.5.>.~.c f 0./ f.a.a.f.;.W.; $ 4 4 h h x C h z C ",
"C J G C V C C z B d z d z 6 6 , ; , , v %.z.3.8.i.0.h.u.0.5.0.z.n.2.C 7 W.T } } } } a.1 f j.} 8.a.l.f.;.W., z.v.D.B.#.I C S G C ",
"C C x x j G % 0.r.N.x.F.F.N.N.N.N.N.2.6 t t f h u f t f z h h h t f G f  .0.S.S.S.q._ h 2 u.} *.0.0.0.;.Q.< -.} >.;.;.B.x x C G ",
"C x x z j x 4 c.~ } >.>.3.>.;.;.;.o.~.< f t u 7 7 t t g 4 p h h h h G C j f g h h h h V p p.{ o.o.o.o.~ z.< -.*.0.5.;.x.x C C z ",
"C b x f M x 5 f.~ ;.0.u.f.f.f.u.u.>.E.4 5 L $.a.x.N.x.@ [.0.q.j.v.E . 3 > : 3 5 7 7 V C a u.<.-.=.@.+.K.h.: 0.0.l.c.*.V.x C C V ",
"z b j M M M 8 s.~ ;.u.a.l.l.k.a.0.0.D.4 5 @.} *.>.;.S.  A.~ ~ o.o.).).!.!././.!.!.).O.h G B h z B B B p p 6 S.>.f.l.5.F.x z h z ",
"x x G G M x : u.~ } *.;.5.u.a.a.8.>.j.5 3 u.} ;.>.>.).  v.~ o.o.;.>.>.8.5.5.>.>.>.>.+.x x x x h a p p p 6 6 b.>.f.l.8.H.M u f l ",
"5 5 7 5 5     u.m ~ } o.o.o.o.o.*.s.v.5 7 x.} y.s.>.).  x.~ o.o.5.8.u.f.f.u.u.u.>.;.F.f z f > j.I./.!.~.S.1 a.0.f.l.y._ x 5 : > ",
"r.j.r.r.7.`.>.E.c m Q ~ ~ ~ ~ ~ } J.  l < x.} a.l.5.).  x.~ } 5.8.a.l.a.a.u.0.u.>.;.x.f C x 7 A.} >.>.*.F.p f.u.f.l.0._ H i.R.D.",
"8.8.8.8.>.;.f.y 0.&.o.6.7.7.7.7.0.@.t x 3 v.} a.l.5.).  x.~ o.5.8.l.a.l.a.u.u.5.>.*.W.4 x x 5 x.} 0.u.;.F.a >.5.0.0.5. .H ) o.8.",
"l.a.u.f.u.;.u.= : : : ; ; ; ; ; ; ; < f 4 $.} a.l.5.).  x.~ o.*.5.u.f.u.0.8.;.;.>.>.7.3 x x 5 c.o.0.u.;.G.z ) >.u.0.;.H.H ) o.u.",
"k.a.a.l.0.;.u.;.<.-.6.r.0.e.e.e.e.0.v.) : *.} a.f.8.).  x.~ o.o.o.;.;.;.*.;.;.*.o.o.5.: C x 3 l.>.l.l.8.O.B @.;.>.>.;.V.H | o.f.",
"u.u.f.f.5.>.u.0.} o.*.;.>.5.8.>.>.>.k.f.: @.~ *.0.5.~.  l.Q } } o.o.o.o.} } } Q k.7.) 5 x x 5 l.;.l.l.8.` p $.o.;.;.o.M.H } ~ >.",
"o.o.o.o.o.o.5.0.} o.*.5.u.u.u.0.>.>.).  4  .~ o.*.;.I.  l.c ~ ~ ~ } ~ *.0.0.>.7.P i x x x x f l.>.l.l.8.) S $.} | } v.t.H ~ Q o."
};
