/* XPM */
static char *a8079155f4904c1199083a152e7448578QLzvwhq7Ai37Jjy[] = {
/* columns rows colors chars-per-pixel */
"64 64 181 2 ",
"   c #010100",
".  c #050902",
"X  c #0C0C05",
"o  c #0F0E08",
"O  c #110F07",
"+  c #110E09",
"@  c #0A1207",
"#  c #0D130B",
"$  c #101106",
"%  c #13130B",
"&  c #14190E",
"*  c #1B190E",
"=  c #19170D",
"-  c #141512",
";  c #161B11",
":  c #1B1B12",
">  c #201D13",
",  c #162214",
"<  c #1C2316",
"1  c #1D251A",
"2  c #1D291B",
"3  c #232215",
"4  c #242519",
"5  c #2A271B",
"6  c #232B1D",
"7  c #2B2B1D",
"8  c #312E1F",
"9  c #2A301E",
"0  c #30301E",
"q  c #1F1F21",
"w  c #201E21",
"e  c #222123",
"r  c #242E21",
"t  c #2C2E21",
"y  c #2C2D2C",
"u  c #312E21",
"i  c #263123",
"p  c #2B3424",
"a  c #2E3826",
"s  c #2D342A",
"d  c #2D392A",
"f  c #333425",
"g  c #383525",
"h  c #343927",
"j  c #393A27",
"k  c #353729",
"l  c #39372A",
"z  c #343B2B",
"x  c #3C3D2D",
"c  c #343534",
"v  c #353C32",
"b  c #3C3D33",
"n  c #383738",
"m  c #3C3D3D",
"M  c #413D2D",
"N  c #403F30",
"B  c #35412E",
"V  c #3C412F",
"C  c #3C4332",
"Z  c #3B4A35",
"A  c #3D4139",
"S  c #394636",
"D  c #3F5039",
"F  c #41402F",
"G  c #434332",
"H  c #4A4434",
"J  c #424A36",
"K  c #484935",
"L  c #44433B",
"P  c #43483F",
"I  c #494C3C",
"U  c #46513B",
"Y  c #51503E",
"T  c #454545",
"R  c #494741",
"E  c #474C46",
"W  c #4B4C46",
"Q  c #474748",
"!  c #484748",
"~  c #4C4C4C",
"^  c #564F44",
"/  c #4E544B",
"(  c #4D5546",
")  c #53544B",
"_  c #5A564D",
"`  c #535B4C",
"'  c #5B5C4E",
"]  c #575347",
"[  c #4F4F50",
"{  c #504F50",
"}  c #535353",
"|  c #585756",
" . c #5A5C55",
".. c #575758",
"X. c #585758",
"o. c #5B5B5B",
"O. c #576051",
"+. c #596355",
"@. c #5F625B",
"#. c #646355",
"$. c #62635E",
"%. c #616A5D",
"&. c #5F5F60",
"*. c #646464",
"=. c #636B61",
"-. c #6A6B66",
";. c #676768",
":. c #686668",
">. c #6B6C6B",
",. c #677364",
"<. c #6D716C",
"1. c #6E7A6B",
"2. c #72736D",
"3. c #6F6E70",
"4. c #706F70",
"5. c #737373",
"6. c #767974",
"7. c #7C7B75",
"8. c #777678",
"9. c #787778",
"0. c #7C7C7B",
"q. c #797773",
"w. c #827F7A",
"e. c #7F807C",
"r. c #83827C",
"t. c #88857F",
"y. c #7F7F80",
"u. c #848483",
"i. c #898682",
"p. c #868A85",
"a. c #8D8B85",
"s. c #878788",
"d. c #888789",
"f. c #888888",
"g. c #908E8B",
"h. c #8F938D",
"j. c #91928D",
"k. c #8F8F90",
"l. c #929292",
"z. c #959993",
"x. c #9B9B96",
"c. c #979798",
"v. c #9E9E9E",
"b. c #9B9B9B",
"n. c #999793",
"m. c #A09F9B",
"M. c #A09D96",
"N. c #9DA29B",
"B. c #A5A29E",
"V. c #A8A69F",
"C. c #9F9FA0",
"Z. c #A1A1A1",
"A. c #A4A3A4",
"S. c #A3A3A3",
"D. c #A8A7A5",
"F. c #A5AAA2",
"G. c #A9AEA7",
"H. c #ABAAA4",
"J. c #A7A7A8",
"K. c #A8A8A9",
"L. c #ACABAC",
"P. c #ADADAD",
"I. c #ACABAC",
"U. c #ACB2AB",
"Y. c #AFAFB0",
"T. c #B0AFB0",
"R. c #AFB0B1",
"E. c #B2B2B3",
"W. c #BCBCBD",
"Q. c #BFBEC0",
"!. c #C6C6C6",
"~. c #C4C4C5",
"^. c #C7C7C8",
"/. c #C7C8C8",
"(. c #C9C9CA",
"). c #CACACB",
"_. c #C9C6C0",
"`. c #D2D2D3",
"'. c #F7F7F8",
"]. c #FDFDFD",
"[. c #E7E7E9",
/* pixels */
"P.Z.K.] / 6.6.5.>.%.C u.;.l.l.;.c.7 F H H H z z z a <   @.;...Q =.$.o.e   c.....} T } 3   (.;.u.u.f.f.l.5.*...C.y >.A.K.P.L.L.L.",
"#     3 & @ @ 1 z i . u.*.l.l.*.Z.X G G F p z z z z C V l x x x f f z p   c.} ~ ! T  .<   (.;.u.u.f.l.l.0.;...A.& 6 @ @ @ @ @ # ",
"C . ].!.(.P.S.) f l p B.*.0.0.;.Z.X H G f G.G.U.F.` C x G x G x x V G d   !.f.v.o.X./ z   (.>.5.u.f.u.>.>.*...v.=   z.j.f.u.p./ ",
"x   (.;.;.o...W f x l f.*.;.>.} Z.. C x Y ..;.;.} J.r x o # # 6 l x 6 ; d , 1 2 i i d d   !.*.;.>.>.*.$.X.} ~ f.:   E.o.*.o.~ h.",
"C X (.>.u.5...%.6 x x 4...X.o.~ v.  C z j ).;.;.X.C.A F T f.f.f.W.=.,.1.,.U.z.h.u.E d p . T.o.*.*.*.o.X.} Q T 0.. . Y.;.;.*.} z.",
"b X (.5.l.0.~ -.r x p 5.J.K.5.m f.  z x 7 ~.>.;.X.C.L l H.o.;.;.*.>.>.;.*.o.} ~ T ;.i 2   E.......} } ~ ! ! Q f.    W.>.u.0.} z.",
"N X (.0.l.0.~ u.6 z z 6 X   a.0.( 6 f x 7 W.5.5.X.Z.v l H.*.>.>.5.5.5.5.5.*.X...! <.i -   !.c.c.c.Z.J.J.`...7.f.    (.0.f.u.} r.",
"z . (.0.l.5.~ J.3 t 7 k V C z z z z 6 F 0 W.5.5.o.c.s x H.*.>.u.f.f.l.l.f.0.*...! 5.r a % . X             o X 3 = O ^.0.l.u.} p.",
"x X (.0.l.>.~ Z.: : t.3 4 1 1 # E z.e X 5 W.0.0.o.c.d 6 N.*.>.u.l.l.l.l.f.0.*.} T <.r x f f f o + % > = * = : - f 7 !.u.l.0.} j.",
"x X (.;.5.>.X.J.    '.!.!.!.(.).!.~ J.7.  W.f.u.*.b.d r N.*.;.*.>.>.>.>.5.;.} ~ T <.r C b.H.A.f.W 5 l.!.^.(.E.c.r.X !.u.l.5.} a.",
"x X !.*.*.*.~ l.    (.;.>.0.u.u.5.*...K.  W.f.f.*.p.d r S.X.X.o.*.*.*.*.o.X.! Q m >.r +.o.*.*.! i.8 H.*.;.;.*.~ i.$ !.0.0.*.} a.",
"z X K.} } } Q Z.    ).5.f.c.l.l.0.o.X.J.  W.k.f.*.<.z r p.Q ~ ~ ! ! ! Q Q ! T T n <.i Z 4.>.;...r.7 A.>.f.u.;.} r.% J.*.*.o.~ <.",
"l > a.i.i.t.o.` #   `.5.c.c.l.u.5.o.} J.  W.f.f.*.<.B i / 2.7.7.t.t.r.r.t.^ ' ' #.n # 2 >.;.*.o.e.u m.>.l.l.5.} e.: *.} X.} Q o.",
"x x p z z a z z x & !.;.;.0.5.;.*...! l.  ~.0.u.*.P.w p p + Z z f f C Z Z Z C C C z p +.X.....Q 2.f m.;.f.f.5.} u.% o.0.L R :  .",
"l h i 6 p h z z x p i...} } ~ ~ ~ ~ m u.  ~.5.0.*.P.e V C   < 6 r r d D S d ; 5 g r . n 0.!.Z.f.2.f n.o.u.f.*.~ 5.. .   .   .   ",
" .' H.N.0.0.;.3 x M r.c.~.o.*.r.w.w.2.;.  ~.5.5.*.J.q K x _.K.W.G.h.L f i U.c                     k t.o.*.;.*.! *.o.) c.k.l.c.r.",
";.>.*.*.o...c. .F G z , 4 F M x x x x f 3 W.>.5.X.c.e K F B.o.*.o.~ a.f z 5.~.(.(.(.(.(.!.E.K.c.v.; ( } [ ..~ m o.Z.5.0.0.>.>.5.",
"Z.c.0.>.*.o.! 7.f l x d C K G $.0.u.s.f.f.f.f.f.f.f.f.f.f.f.f.f.f.f.f.f.f.f.f.f.f.f.f.f.f.f.f.f.f.f.f.f.f.f.f.f.f.f.f.f.f.f.f.f.",
"c.c.u.u.*.o.} #.t 7 r v s b u.f.f.f.f.f.f.f.f.f.f.f.f.f.f.f.f.f.f.f.f.f.f.f.f.f.f.f.f.f.f.f.f.f.f.f.f.f.f.f.f.f.f.f.f.f.f.f.f.f.",
"*.*.;.;.X...R #.4 a.).!.E.f.f.f.f.f.f.f.f.f.f.f.f.f.f.f.f.f.f.f.f.f.f.f.f.f.f.f.f.f.f.f.f.f.f.f.f.f.f.f.f.f.f.f.f.f.f.f.f.f.f.f.",
"f.f.Q ! ~ Q R ] 3 A.;.;.u.f.f.f.f.f.f.f.f.f.f.f.f.f.f.f.f.f.f.f.f.f.f.f.f.f.f.f.f.f.f.f.f.f.f.f.f.f.f.f.f.f.f.f.f.f.f.f.f.f.f.f.",
"  T u.f.l.>.t.f > (.;.0.f.f.f.f.f.f.f.f.f.f.f.f.f.f.f.f.f.f.f.f.f.f.f.f.f.f.f.f.f.f.f.f.f.f.f.f.f.f.f.f.f.f.f.f.f.f.f.f.f.f.f.f.",
"~.W.E.y -   : F O (.0.s.f.f.f.f.f.f.f.f.f.f.f.f.f.f.f.f.f.f.f.f.f.f.f.f.f.f.f.f.f.f.f.f.f.f.f.f.f.f.f.f.f.f.f.f.f.f.f.f.f.f.f.f.",
"*.*.l.E.c.~.% K = ^.0.f.f.f.f.f.f.f.f.f.f.f.f.f.f.f.f.f.f.f.f.f.f.f.f.f.f.f.f.f.f.f.f.f.f.f.f.f.f.f.f.f.f.f.f.f.f.f.f.f.f.f.f.f.",
"5.5.>.X.~ k.: H = (.0.f.f.f.f.f.f.f.f.f.f.f.f.f.f.f.f.f.f.f.f.f.f.f.f.f.f.f.f.f.f.f.f.f.f.f.f.f.f.f.f.f.f.f.f.f.f.f.f.f.f.f.f.f.",
"f.f.0.X.} l.: H ; W.5.f.f.f.f.f.f.f.f.f.f.f.f.f.f.f.f.f.f.f.f.f.f.f.f.f.f.f.f.f.f.f.f.f.f.f.f.f.f.f.f.f.f.f.f.f.f.f.f.f.f.f.f.f.",
"v.v.f.*.~ f.: K < E.o.f.f.f.f.f.f.f.f.f.f.f.f.f.f.f.f.f.f.f.f.f.f.f.f.f.f.f.f.f.f.f.f.f.f.f.f.f.f.f.f.f.f.f.f.f.f.f.f.f.f.f.f.f.",
"c.v.f.*.} f.: K z Z.X.f.f.f.f.f.f.f.f.f.f.f.f.f.f.f.f.f.f.f.f.f.f.f.f.f.f.f.f.f.f.f.f.f.f.f.f.f.f.f.f.f.f.f.f.f.f.f.f.f.f.f.f.f.",
"v.v.f.*.~ u.& K z k.~ f.f.f.f.f.f.f.f.f.f.f.f.f.f.f.f.f.f.f.f.f.f.f.f.f.f.f.f.f.f.f.f.f.f.f.f.f.f.f.f.f.f.f.f.f.f.f.f.f.f.f.f.f.",
"f.u.5.} Q 5.; H j E.f.f.f.f.f.f.f.f.f.f.f.f.f.f.f.f.f.f.f.f.f.f.f.f.f.f.f.f.f.f.f.f.f.f.f.f.f.f.f.f.f.f.f.f.f.f.f.f.f.f.f.f.f.f.",
"5.>.X.[ Q u.t J J 0 g f.f.f.f.f.f.f.f.f.f.f.f.f.f.f.f.f.f.f.f.f.f.f.f.f.f.f.f.f.f.f.f.f.f.f.f.f.f.f.f.f.f.f.f.f.f.f.f.f.f.f.f.f.",
"*.} } T n 5.7 C J H F f.f.f.f.f.f.f.f.f.f.f.f.f.f.f.f.f.f.f.f.f.f.f.f.f.f.f.f.f.f.f.f.f.f.f.f.f.f.f.f.f.f.f.f.f.f.f.f.f.f.f.f.f.",
"Q c.l.u.f.l.7 C J U C f.f.f.f.f.f.f.f.f.f.f.f.f.f.f.f.f.f.f.f.f.f.f.f.f.f.f.f.f.f.f.f.f.f.f.f.f.f.f.f.f.f.f.f.f.f.f.f.f.f.f.f.f.",
"p.) h z f f l f V C J f.f.f.f.f.f.f.f.f.f.f.f.f.f.f.f.f.f.f.f.f.f.f.f.f.f.f.f.f.f.f.f.f.f.f.f.f.f.f.f.f.f.f.f.f.f.f.f.f.f.f.f.f.",
"C C V V f h l n r.) C f.f.f.f.f.f.f.f.f.f.f.f.f.f.f.f.f.f.f.f.f.f.f.f.f.f.f.f.f.f.f.f.f.f.f.f.f.f.f.f.f.f.f.f.f.f.f.f.f.f.f.f.f.",
"t _ H.E.E.H.[.b.*.r.C f.f.f.f.f.f.f.f.f.f.f.f.f.f.f.f.f.f.f.f.f.f.f.f.f.f.f.f.f.f.f.f.f.f.f.f.f.f.f.f.f.f.f.f.f.f.f.f.f.f.f.f.f.",
"x f.o.*.*.*.*.X.~ i.V f.f.f.f.f.f.f.f.f.f.f.f.f.f.f.f.f.f.f.f.f.f.f.f.f.f.f.f.f.f.f.f.f.f.f.f.f.f.f.f.f.f.f.f.f.f.f.f.f.f.f.f.f.",
"x f.;.>.>.>.*.X.~ a.F f.f.f.f.f.f.f.f.f.f.f.f.f.f.f.f.f.f.f.f.f.f.f.f.f.f.f.f.f.f.f.f.f.f.f.f.f.f.f.f.f.f.f.f.f.f.f.f.f.f.f.f.f.",
"M f.;.u.f.f.0.X.~ a.g f.f.f.f.f.f.f.f.f.f.f.f.f.f.f.f.f.f.f.f.f.f.f.f.f.f.f.f.f.f.f.f.f.f.f.f.f.f.f.f.f.f.f.f.f.f.f.f.f.f.f.f.f.",
"M u.5.l.c.f.u.X.~ a.g f.f.f.f.f.f.f.f.f.f.f.f.f.f.f.f.f.f.f.f.f.f.f.f.f.f.f.f.f.f.f.f.f.f.f.f.f.f.f.f.f.f.f.f.f.f.f.f.f.f.f.f.f.",
"  ].>.v.v.c.u.X.~ a.g f.f.f.f.f.f.f.f.f.f.f.f.f.f.f.f.f.f.f.f.f.f.f.f.f.f.f.f.f.f.f.f.f.f.f.f.f.f.f.f.f.f.f.f.f.f.f.f.f.f.f.f.f.",
"  /.5.c.v.v.>.X.~ v.u f.f.f.f.f.f.f.f.f.f.f.f.f.f.f.f.f.f.f.f.f.f.f.f.f.f.f.f.f.f.f.f.f.f.f.f.f.f.f.f.f.f.f.f.f.f.f.f.f.f.f.f.f.",
"X (.5.c.v.N.>.X.~ Z.l u.f.f.f.f.f.f.f.f.f.f.f.f.f.f.f.f.f.f.f.f.f.f.f.f.f.f.f.f.f.f.f.f.f.f.f.f.f.f.f.f.f.f.f.f.f.f.f.f.f.f.f.f.",
"9 !.5.l.c.c.>...! v.f u.f.f.f.f.f.f.f.f.f.f.f.f.f.f.f.f.f.f.f.f.f.f.f.f.f.f.f.f.f.f.f.f.f.f.f.f.f.f.f.f.f.f.f.f.f.f.f.f.f.f.f.f.",
"i !.;.0.u.u.*.} Q l.V 0.f.f.f.f.f.f.f.f.f.f.f.f.f.f.f.f.f.f.f.f.f.f.f.f.f.f.f.f.f.f.f.f.f.f.f.f.f.f.f.f.f.f.f.f.f.f.f.f.f.f.f.f.",
"i W.*.*.*.o.X.~ m u.p +.f.f.f.f.f.f.f.f.f.f.f.f.f.f.f.f.f.f.f.f.f.f.f.f.f.f.f.f.f.f.f.f.f.f.f.f.f.f.f.f.f.f.f.f.f.f.f.f.f.f.f.f.",
"p E.o.o.X.X.} ! m u.2 z.f.f.f.f.f.f.f.f.f.f.f.f.f.f.f.f.f.f.f.f.f.f.f.f.f.f.f.f.f.f.f.f.f.f.f.f.f.f.f.f.f.f.f.f.f.f.f.f.f.f.f.f.",
"4 J.} } ..~ ! Q n 6.; P.>.f.f.f.f.f.f.f.f.f.f.f.f.f.f.f.f.f.f.f.f.f.f.f.f.f.f.f.f.f.f.f.f.f.f.f.f.f.f.f.f.f.f.f.f.f.f.f.f.f.f.f.",
"p l.>.b.$.n.0.f.2.H.& W.*.u.f.f.f.f.f.f.f.f.f.f.f.f.f.f.f.f.f.f.f.f.f.f.f.f.f.f.f.f.f.f.f.f.f.f.f.f.f.f.f.f.f.f.f.f.f.f.f.f.f.f.",
"7 5.0.k k h z z l f 6 W.*.u.f.f.f.u.f.f.f.f.f.f.f.f.f.f.f.f.f.f.f.f.f.f.f.f.f.f.f.f.f.f.f.f.f.f.f.f.f.f.f.f.f.f.f.f.f.f.f.f.f.f.",
"C z z C x l z 5 3 % , W.*.f.f.k.f.} 0.f c ~.>.5.5.*.~ u.f G   P.o...} } } } ~ ! ! ~ } ~ E.P.E.W.d.7 t y P A A A z z z z z t z C ",
"C G C C I #.B.D.v.c., W.*.f.l.f.5.X.j.f 1 f.} } } } T W.7 C 2.n.z.0.5.0.u.h.0.i.5.3.z.%.v , , ; , 6 6 z d z d B z C C V C G J C ",
"C C x l B.;.*.;...>.< Q.*.0.0.0.*.} u.2 z _ q.Z.S.Z.0. .f G k t l l l z f t f u l f t t 6 2.N.N.N.N.N.F.F.x.N.r.0.% G l x x V C ",
"z C C j n.*.5.0.*.-.< c.~ X.X.X.X.{ p.p V l l h l f f l C G l l l l p 3 f t t 7 7 u t f < ~.o.*.*.*.;.>.>.;...! c.5 x l z x x C ",
"V C C x V.*.c.l.0.0.; h.K.+.@.=.>.>.u.a C V 7 7 7 3 : 3 3 . E b.j.7.0.[.@ x.N.n.g.$.L 7 5 E.>.u.u.f.f.f.u.0.*.~ f.4 x M f x x V ",
"z z z x F.5.l.f.;.Z.4 i p B B B z l B G l O.).!.!.^./.!.!.(.(.o.X.~ ! J.  S.*.;.*.} @.5 5 H.0.0.f.f.l.l.f.u.*.~ s.8 M M M l x z ",
"l f u M H.5.l.f.>.b.4 6 i p p a h x x x l O.>.;.;.;.5.5.5.;.>.;.o.X.~ v.  ).;.>.*...r.3 5 j.;.5.f.f.u.5.*.*.} ! u.: x M G G M x ",
"> : 5 j _ y.l.f.0.f.1 S.!.!.^.P.j.> f z f F.*.>.u.u.u.f.f.u.5.5.o.X.~ c.  (.>.u.0.} c.7 7 m.s.*.X.o.X.X.X.} ! N u.    5 5 7 4 7 ",
"D.R.i.K _ 0.l.f.u.f.p F.*.;.>...A.7 x C f x.:.>.u.r.u.h.f.l.f.5.5...~ c.  (.5.l.k.} c.< k   J.} ~ ~ ~ [ ~ Q m n E.>.`.7.t.r.j.t.",
"9.X.) H  .5.0.0.5.>.p F.*.u.0...c.5 x x 5 W.*.;.5.u.u.f.l.f.l.5.5.X.~ c.  (.5.l.f.} v.3 x t @.0.0.0.0.0.6.o.&.0.y f.*.>.6.5.5.5.",
"u.o.) H H.*.0.u.;.) z G.*.u.0.o.c.5 x x 3 7.;.;.*.*.5.0.u.f.u.5.*.X.~ c.  (.5.l.f.} $.6 f < ; ; : : ; ; ; ; ; ; & u.*.u.f.f.f.l.",
"f.o.| H V.;.>.;.*.@.B O.8.l.l.;.l.3 x C : 5.o.o.*.*.*.*.*.*.*.o.X.o.~ c.  (.5.f.f...*.; ) b.0.r.r.r.e.e.r.6.;.<.*.u.*.0.l.f.l.l.",
">.~ } H M.X.*.*.o.$.p ` 5.l.l.*.l.7 x x 7 ) 0.k.Q } ....o.o.o.X.} } Q l.  ~.5.0.*.~ @.; f.k.>.>.>.0.5.>.*.*.X.} 0.u.;.5.f.f.u.u.",
"o.Q ! H t.v.....} $.C ) 5.l.l.;.l.f x x x x i P 7.>.0.0.*.~ } ! ~ ! n l.  P.*.*.X.!  .4   ).;.>.0.u.f.u.5.*.X.} 0.5.X.o.X.X.X.X."
};
